<svg xmlns="http://www.w3.org/2000/svg" xmlns:xlink="http://www.w3.org/1999/xlink" version="1.1" class="marks" width="400" height="400" viewBox="0 0 400 400"><g fill="none" stroke-miterlimit="10" transform="translate(80,80)"><g class="mark-group role-frame root" role="graphics-object" aria-roledescription="group mark container"><g transform="translate(120,120)"><path class="background" aria-hidden="true" d="M0,0h240v240h-240Z"/><g><g class="mark-rule role-mark radial-grid" role="graphics-symbol" aria-roledescription="rule mark container"><line transform="translate(0,0)" x2="-103.92304845413261" y2="-60.00000000000004" stroke="gray" stroke-width="1"/><line transform="translate(0,0)" x2="3.399323338588788e-14" y2="-120" stroke="gray" stroke-width="1"/><line transform="translate(0,0)" x2="103.92304845413264" y2="-59.99999999999998" stroke="gray" stroke-width="1"/><line transform="translate(0,0)" x2="103.92304845413261" y2="60.00000000000003" stroke="gray" stroke-width="1"/><line transform="translate(0,0)" x2="7.34788079488412e-15" y2="120" stroke="gray" stroke-width="1"/><line transform="translate(0,0)" x2="-103.92304845413261" y2="60.00000000000004" stroke="gray" stroke-width="1"/></g><g class="mark-group role-scope categories" role="graphics-object" aria-roledescription="group mark container"><g transform="translate(0,0)"><path class="background" aria-hidden="true" d="M0,0h0v0h0Z"/><g><g class="mark-line role-mark category-line" role="graphics-symbol" aria-roledescription="line mark container"><path d="M-103.923,-60L0,-36.816L23.798,-13.74L19.538,11.28L0,12.072L-4.261,2.46Z" fill="#0f452d" fill-opacity="0.6" stroke="#0f452d" stroke-width="2"/></g><g class="mark-symbol role-mark category-point" role="graphics-symbol" aria-roledescription="symbol mark container"><path transform="translate(-103.92304845413261,-60.00000000000004)" d="M3.536,0A3.536,3.536,0,1,1,-3.536,0A3.536,3.536,0,1,1,3.536,0" fill="#0f452d" stroke="white" stroke-width="1"/><path transform="translate(1.0429124002790401e-14,-36.816)" d="M3.536,0A3.536,3.536,0,1,1,-3.536,0A3.536,3.536,0,1,1,3.536,0" fill="#0f452d" stroke="white" stroke-width="1"/><path transform="translate(23.798378095996373,-13.739999999999993)" d="M3.536,0A3.536,3.536,0,1,1,-3.536,0A3.536,3.536,0,1,1,3.536,0" fill="#0f452d" stroke="white" stroke-width="1"/><path transform="translate(19.53753310937693,11.280000000000005)" d="M3.536,0A3.536,3.536,0,1,1,-3.536,0A3.536,3.536,0,1,1,3.536,0" fill="#0f452d" stroke="white" stroke-width="1"/><path transform="translate(7.391968079653425e-16,12.072000000000001)" d="M3.536,0A3.536,3.536,0,1,1,-3.536,0A3.536,3.536,0,1,1,3.536,0" fill="#0f452d" stroke="white" stroke-width="1"/><path transform="translate(-4.2608449866194364,2.4600000000000013)" d="M3.536,0A3.536,3.536,0,1,1,-3.536,0A3.536,3.536,0,1,1,3.536,0" fill="#0f452d" stroke="white" stroke-width="1"/></g><g class="mark-text role-mark value-text" role="graphics-object" aria-roledescription="text mark container"><text text-anchor="end" transform="translate(-108.92304845413261,-46.00000000000004)" font-family="Arial, sans-serif" font-size="12px" fill="#bfc6cc">51%</text><text text-anchor="start" transform="translate(1.0429124002790401e-14,-22.816000000000003)" font-family="Arial, sans-serif" font-size="12px" fill="#bfc6cc">15%</text><text text-anchor="start" transform="translate(23.798378095996373,0.2600000000000069)" font-family="Arial, sans-serif" font-size="12px" fill="#bfc6cc">11%</text><text text-anchor="start" transform="translate(19.53753310937693,3.2800000000000047)" font-family="Arial, sans-serif" font-size="12px" fill="#bfc6cc">9%</text><text text-anchor="start" transform="translate(7.391968079653425e-16,4.072000000000001)" font-family="Arial, sans-serif" font-size="12px" fill="#bfc6cc">5%</text><text text-anchor="end" transform="translate(-9.260844986619436,-5.539999999999999)" font-family="Arial, sans-serif" font-size="12px" fill="#bfc6cc"/></g></g><path class="foreground" aria-hidden="true" d="" display="none"/></g><g transform="translate(0,0)"><path class="background" aria-hidden="true" d="M0,0h0v0h0Z"/><g><g class="mark-line role-mark category-line" role="graphics-symbol" aria-roledescription="line mark container"><path d="M-1.621,-0.936L0,-35.568L2.266,-1.308L82.39,47.568L0,50.904L-10.372,5.988Z" fill="#31b74c" fill-opacity="0.6" stroke="#31b74c" stroke-width="2"/></g><g class="mark-symbol role-mark category-point" role="graphics-symbol" aria-roledescription="symbol mark container"><path transform="translate(-1.621199555884469,-0.9360000000000007)" d="M3.536,0A3.536,3.536,0,1,1,-3.536,0A3.536,3.536,0,1,1,3.536,0" fill="#31b74c" stroke="white" stroke-width="1"/><path transform="translate(1.0075594375577167e-14,-35.568)" d="M3.536,0A3.536,3.536,0,1,1,-3.536,0A3.536,3.536,0,1,1,3.536,0" fill="#31b74c" stroke="white" stroke-width="1"/><path transform="translate(2.2655224563000917,-1.3079999999999996)" d="M3.536,0A3.536,3.536,0,1,1,-3.536,0A3.536,3.536,0,1,1,3.536,0" fill="#31b74c" stroke="white" stroke-width="1"/><path transform="translate(82.39019281443635,47.568000000000026)" d="M3.536,0A3.536,3.536,0,1,1,-3.536,0A3.536,3.536,0,1,1,3.536,0" fill="#31b74c" stroke="white" stroke-width="1"/><path transform="translate(3.1169710331898435e-15,50.904)" d="M3.536,0A3.536,3.536,0,1,1,-3.536,0A3.536,3.536,0,1,1,3.536,0" fill="#31b74c" stroke="white" stroke-width="1"/><path transform="translate(-10.371520235722434,5.988000000000003)" d="M3.536,0A3.536,3.536,0,1,1,-3.536,0A3.536,3.536,0,1,1,3.536,0" fill="#31b74c" stroke="white" stroke-width="1"/></g><g class="mark-text role-mark value-text" role="graphics-object" aria-roledescription="text mark container"><text text-anchor="end" transform="translate(-6.621199555884469,13.064)" font-family="Arial, sans-serif" font-size="12px" fill="#bfc6cc"/><text text-anchor="start" transform="translate(1.0075594375577167e-14,-21.567999999999998)" font-family="Arial, sans-serif" font-size="12px" fill="#bfc6cc">15%</text><text text-anchor="start" transform="translate(2.2655224563000917,12.692)" font-family="Arial, sans-serif" font-size="12px" fill="#bfc6cc"/><text text-anchor="start" transform="translate(82.39019281443635,39.568000000000026)" font-family="Arial, sans-serif" font-size="12px" fill="#bfc6cc">40%</text><text text-anchor="start" transform="translate(3.1169710331898435e-15,42.904)" font-family="Arial, sans-serif" font-size="12px" fill="#bfc6cc">21%</text><text text-anchor="end" transform="translate(-15.371520235722434,-2.011999999999997)" font-family="Arial, sans-serif" font-size="12px" fill="#bfc6cc"/></g></g><path class="foreground" aria-hidden="true" d="" display="none"/></g></g><g class="mark-text role-mark key-label" role="graphics-object" aria-roledescription="text mark container"><text text-anchor="end" transform="translate(-116.91342951089919,-70.50000000000004)" font-family="Arial, sans-serif" font-size="12px" fill="#7c848c">Python</text><text text-anchor="start" transform="translate(3.824238755912386e-14,-138)" font-family="Arial, sans-serif" font-size="12px" fill="#7c848c">unknown</text><text text-anchor="start" transform="translate(116.91342951089922,-70.49999999999997)" font-family="Arial, sans-serif" font-size="12px" fill="#7c848c">XML</text><text text-anchor="start" transform="translate(116.91342951089919,76.50000000000003)" font-family="Arial, sans-serif" font-size="12px" fill="#7c848c">JavaScript</text><text text-anchor="start" transform="translate(8.266365894244634e-15,144)" font-family="Arial, sans-serif" font-size="12px" fill="#7c848c">YAML</text><text text-anchor="end" transform="translate(-116.91342951089919,76.50000000000004)" font-family="Arial, sans-serif" font-size="12px" fill="#7c848c">Markdown</text></g></g><path class="foreground" aria-hidden="true" d="" display="none"/></g></g></g></svg>