<svg xmlns="http://www.w3.org/2000/svg" xmlns:xlink="http://www.w3.org/1999/xlink" version="1.1" class="marks" width="400" height="400" viewBox="0 0 400 400"><g fill="none" stroke-miterlimit="10" transform="translate(60,60)"><g class="mark-group role-frame root" role="graphics-object" aria-roledescription="group mark container"><g transform="translate(140,140)"><path class="background" aria-hidden="true" d="M0,0h280v280h-280Z"/><g><g class="mark-rule role-mark radial-grid" role="graphics-symbol" aria-roledescription="rule mark container"><line transform="translate(0,0)" x2="-121.24355652982139" y2="-70.00000000000004" stroke="gray" stroke-width="1"/><line transform="translate(0,0)" x2="3.9658772283535856e-14" y2="-140" stroke="gray" stroke-width="1"/><line transform="translate(0,0)" x2="121.24355652982142" y2="-69.99999999999997" stroke="gray" stroke-width="1"/><line transform="translate(0,0)" x2="121.24355652982139" y2="70.00000000000003" stroke="gray" stroke-width="1"/><line transform="translate(0,0)" x2="8.572527594031473e-15" y2="140" stroke="gray" stroke-width="1"/><line transform="translate(0,0)" x2="-121.24355652982139" y2="70.00000000000004" stroke="gray" stroke-width="1"/></g><g class="mark-group role-scope categories" role="graphics-object" aria-roledescription="group mark container"><g transform="translate(0,0)"><path class="background" aria-hidden="true" d="M0,0h0v0h0Z"/><g><g class="mark-line role-mark category-line" role="graphics-symbol" aria-roledescription="line mark container"><path d="M-114.139,-65.898L0,-39.816L31.499,-18.186L28.613,16.52L0,13.272L-7.008,4.046Z" fill="#0f452d" fill-opacity="0.6" stroke="#0f452d" stroke-width="2"/></g><g class="mark-symbol role-mark category-point" role="graphics-symbol" aria-roledescription="symbol mark container"><path transform="translate(-114.13868411717385,-65.89800000000004)" d="M3.536,0A3.536,3.536,0,1,1,-3.536,0A3.536,3.536,0,1,1,3.536,0" fill="#0f452d" stroke="white" stroke-width="1"/><path transform="translate(1.1278954837437596e-14,-39.815999999999995)" d="M3.536,0A3.536,3.536,0,1,1,-3.536,0A3.536,3.536,0,1,1,3.536,0" fill="#0f452d" stroke="white" stroke-width="1"/><path transform="translate(31.49907598644761,-18.185999999999996)" d="M3.536,0A3.536,3.536,0,1,1,-3.536,0A3.536,3.536,0,1,1,3.536,0" fill="#0f452d" stroke="white" stroke-width="1"/><path transform="translate(28.61347934103785,16.520000000000007)" d="M3.536,0A3.536,3.536,0,1,1,-3.536,0A3.536,3.536,0,1,1,3.536,0" fill="#0f452d" stroke="white" stroke-width="1"/><path transform="translate(8.126756159141837e-16,13.272000000000002)" d="M3.536,0A3.536,3.536,0,1,1,-3.536,0A3.536,3.536,0,1,1,3.536,0" fill="#0f452d" stroke="white" stroke-width="1"/><path transform="translate(-7.007877567423677,4.046000000000003)" d="M3.536,0A3.536,3.536,0,1,1,-3.536,0A3.536,3.536,0,1,1,3.536,0" fill="#0f452d" stroke="white" stroke-width="1"/></g><g class="mark-text role-mark value-text" role="graphics-object" aria-roledescription="text mark container"><text text-anchor="end" transform="translate(-119.13868411717385,-51.89800000000004)" font-family="Arial, sans-serif" font-size="12px" fill="#7c848c">47%</text><text text-anchor="start" transform="translate(1.1278954837437596e-14,-25.815999999999995)" font-family="Arial, sans-serif" font-size="12px" fill="#7c848c">14%</text><text text-anchor="start" transform="translate(31.49907598644761,-4.185999999999996)" font-family="Arial, sans-serif" font-size="12px" fill="#7c848c">13%</text><text text-anchor="start" transform="translate(28.61347934103785,8.520000000000007)" font-family="Arial, sans-serif" font-size="12px" fill="#7c848c">12%</text><text text-anchor="start" transform="translate(8.126756159141837e-16,5.272000000000002)" font-family="Arial, sans-serif" font-size="12px" fill="#7c848c"/><text text-anchor="end" transform="translate(-12.007877567423677,-3.953999999999997)" font-family="Arial, sans-serif" font-size="12px" fill="#7c848c"/></g></g><path class="foreground" aria-hidden="true" d="" display="none"/></g><g transform="translate(0,0)"><path class="background" aria-hidden="true" d="M0,0h0v0h0Z"/><g><g class="mark-line role-mark category-line" role="graphics-symbol" aria-roledescription="line mark container"><path d="M0,0L0,-31.36L108.222,-62.482L11.833,6.832L0,45.584L-17.411,10.052Z" fill="#31b74c" fill-opacity="0.6" stroke="#31b74c" stroke-width="2"/></g><g class="mark-symbol role-mark category-point" role="graphics-symbol" aria-roledescription="symbol mark container"><path transform="translate(0,0)" d="M3.536,0A3.536,3.536,0,1,1,-3.536,0A3.536,3.536,0,1,1,3.536,0" fill="#31b74c" stroke="white" stroke-width="1"/><path transform="translate(8.883564991512031e-15,-31.359999999999996)" d="M3.536,0A3.536,3.536,0,1,1,-3.536,0A3.536,3.536,0,1,1,3.536,0" fill="#31b74c" stroke="white" stroke-width="1"/><path transform="translate(108.2219985585186,-62.481999999999985)" d="M3.536,0A3.536,3.536,0,1,1,-3.536,0A3.536,3.536,0,1,1,3.536,0" fill="#31b74c" stroke="white" stroke-width="1"/><path transform="translate(11.833371117310568,6.8320000000000025)" d="M3.536,0A3.536,3.536,0,1,1,-3.536,0A3.536,3.536,0,1,1,3.536,0" fill="#31b74c" stroke="white" stroke-width="1"/><path transform="translate(2.7912149846166477e-15,45.584)" d="M3.536,0A3.536,3.536,0,1,1,-3.536,0A3.536,3.536,0,1,1,3.536,0" fill="#31b74c" stroke="white" stroke-width="1"/><path transform="translate(-17.41057471768235,10.052000000000007)" d="M3.536,0A3.536,3.536,0,1,1,-3.536,0A3.536,3.536,0,1,1,3.536,0" fill="#31b74c" stroke="white" stroke-width="1"/></g><g class="mark-text role-mark value-text" role="graphics-object" aria-roledescription="text mark container"><text text-anchor="end" transform="translate(-5,14)" font-family="Arial, sans-serif" font-size="12px" fill="#7c848c"/><text text-anchor="start" transform="translate(8.883564991512031e-15,-17.359999999999996)" font-family="Arial, sans-serif" font-size="12px" fill="#7c848c">11%</text><text text-anchor="start" transform="translate(108.2219985585186,-48.481999999999985)" font-family="Arial, sans-serif" font-size="12px" fill="#7c848c">45%</text><text text-anchor="start" transform="translate(11.833371117310568,-1.1679999999999975)" font-family="Arial, sans-serif" font-size="12px" fill="#7c848c"/><text text-anchor="start" transform="translate(2.7912149846166477e-15,37.584)" font-family="Arial, sans-serif" font-size="12px" fill="#7c848c">16%</text><text text-anchor="end" transform="translate(-22.41057471768235,2.0520000000000067)" font-family="Arial, sans-serif" font-size="12px" fill="#7c848c">7%</text></g></g><path class="foreground" aria-hidden="true" d="" display="none"/></g></g><g class="mark-text role-mark key-label" role="graphics-object" aria-roledescription="text mark container"><text text-anchor="end" transform="translate(-134.23393758658796,-80.50000000000006)" font-family="Arial, sans-serif" font-size="12px" fill="#bfc6cc">Python</text><text text-anchor="start" transform="translate(4.390792645677184e-14,-158)" font-family="Arial, sans-serif" font-size="12px" fill="#bfc6cc">unknown</text><text text-anchor="start" transform="translate(134.233937586588,-80.49999999999997)" font-family="Arial, sans-serif" font-size="12px" fill="#bfc6cc">JavaScript</text><text text-anchor="start" transform="translate(134.23393758658796,86.50000000000003)" font-family="Arial, sans-serif" font-size="12px" fill="#bfc6cc">XML</text><text text-anchor="start" transform="translate(9.491012693391987e-15,164)" font-family="Arial, sans-serif" font-size="12px" fill="#bfc6cc">YAML</text><text text-anchor="end" transform="translate(-134.23393758658796,86.50000000000006)" font-family="Arial, sans-serif" font-size="12px" fill="#bfc6cc">Markdown</text></g></g><path class="foreground" aria-hidden="true" d="" display="none"/></g></g></g></svg>