<svg xmlns="http://www.w3.org/2000/svg" xmlns:xlink="http://www.w3.org/1999/xlink" version="1.1" class="marks" width="400" height="400" viewBox="0 0 400 400"><g fill="none" stroke-miterlimit="10" transform="translate(100,100)"><g class="mark-group role-frame root" role="graphics-object" aria-roledescription="group mark container"><g transform="translate(100,100)"><path class="background" aria-hidden="true" d="M0,0h200v200h-200Z"/><g><g class="mark-rule role-mark radial-grid" role="graphics-symbol" aria-roledescription="rule mark container"><line transform="translate(0,0)" x2="-86.60254037844385" y2="-50.000000000000036" stroke="gray" stroke-width="1"/><line transform="translate(0,0)" x2="2.8327694488239898e-14" y2="-100" stroke="gray" stroke-width="1"/><line transform="translate(0,0)" x2="86.60254037844388" y2="-49.999999999999986" stroke="gray" stroke-width="1"/><line transform="translate(0,0)" x2="86.60254037844385" y2="50.00000000000002" stroke="gray" stroke-width="1"/><line transform="translate(0,0)" x2="6.123233995736766e-15" y2="100" stroke="gray" stroke-width="1"/><line transform="translate(0,0)" x2="-86.60254037844385" y2="50.000000000000036" stroke="gray" stroke-width="1"/></g><g class="mark-group role-scope categories" role="graphics-object" aria-roledescription="group mark container"><g transform="translate(0,0)"><path class="background" aria-hidden="true" d="M0,0h0v0h0Z"/><g><g class="mark-line role-mark category-line" role="graphics-symbol" aria-roledescription="line mark container"><path d="M-86.603,-50L0,-30.94L19.919,-11.5L16.039,9.26L0,9.46L-3.17,1.83Z" fill="#0f452d" fill-opacity="0.6" stroke="#0f452d" stroke-width="2"/></g><g class="mark-symbol role-mark category-point" role="graphics-symbol" aria-roledescription="symbol mark container"><path transform="translate(-86.60254037844385,-50.000000000000036)" d="M3.536,0A3.536,3.536,0,1,1,-3.536,0A3.536,3.536,0,1,1,3.536,0" fill="#0f452d" stroke="white" stroke-width="1"/><path transform="translate(8.764588674661424e-15,-30.94)" d="M3.536,0A3.536,3.536,0,1,1,-3.536,0A3.536,3.536,0,1,1,3.536,0" fill="#0f452d" stroke="white" stroke-width="1"/><path transform="translate(19.91858428704209,-11.499999999999996)" d="M3.536,0A3.536,3.536,0,1,1,-3.536,0A3.536,3.536,0,1,1,3.536,0" fill="#0f452d" stroke="white" stroke-width="1"/><path transform="translate(16.0387904780878,9.260000000000003)" d="M3.536,0A3.536,3.536,0,1,1,-3.536,0A3.536,3.536,0,1,1,3.536,0" fill="#0f452d" stroke="white" stroke-width="1"/><path transform="translate(5.792579359966981e-16,9.46)" d="M3.536,0A3.536,3.536,0,1,1,-3.536,0A3.536,3.536,0,1,1,3.536,0" fill="#0f452d" stroke="white" stroke-width="1"/><path transform="translate(-3.169652977851045,1.8300000000000012)" d="M3.536,0A3.536,3.536,0,1,1,-3.536,0A3.536,3.536,0,1,1,3.536,0" fill="#0f452d" stroke="white" stroke-width="1"/></g><g class="mark-text role-mark value-text" role="graphics-object" aria-roledescription="text mark container"><text text-anchor="end" transform="translate(-91.60254037844385,-36.000000000000036)" font-family="Arial, sans-serif" font-size="12px" fill="#bfc6cc">51%</text><text text-anchor="start" transform="translate(8.764588674661424e-15,-16.94)" font-family="Arial, sans-serif" font-size="12px" fill="#bfc6cc">15%</text><text text-anchor="start" transform="translate(19.91858428704209,2.5000000000000036)" font-family="Arial, sans-serif" font-size="12px" fill="#bfc6cc">12%</text><text text-anchor="start" transform="translate(16.0387904780878,1.2600000000000033)" font-family="Arial, sans-serif" font-size="12px" fill="#bfc6cc">9%</text><text text-anchor="start" transform="translate(5.792579359966981e-16,1.4600000000000009)" font-family="Arial, sans-serif" font-size="12px" fill="#bfc6cc"/><text text-anchor="end" transform="translate(-8.169652977851046,-6.169999999999999)" font-family="Arial, sans-serif" font-size="12px" fill="#bfc6cc"/></g></g><path class="foreground" aria-hidden="true" d="" display="none"/></g><g transform="translate(0,0)"><path class="background" aria-hidden="true" d="M0,0h0v0h0Z"/><g><g class="mark-line role-mark category-line" role="graphics-symbol" aria-roledescription="line mark container"><path d="M-1.403,-0.81L0,-30.74L1.576,-0.91L69.542,40.15L0,41L-7.188,4.15Z" fill="#31b74c" fill-opacity="0.6" stroke="#31b74c" stroke-width="2"/></g><g class="mark-symbol role-mark category-point" role="graphics-symbol" aria-roledescription="symbol mark container"><path transform="translate(-1.4029611541307907,-0.8100000000000007)" d="M3.536,0A3.536,3.536,0,1,1,-3.536,0A3.536,3.536,0,1,1,3.536,0" fill="#31b74c" stroke="white" stroke-width="1"/><path transform="translate(8.707933285684945e-15,-30.740000000000002)" d="M3.536,0A3.536,3.536,0,1,1,-3.536,0A3.536,3.536,0,1,1,3.536,0" fill="#31b74c" stroke="white" stroke-width="1"/><path transform="translate(1.5761662348876786,-0.9099999999999997)" d="M3.536,0A3.536,3.536,0,1,1,-3.536,0A3.536,3.536,0,1,1,3.536,0" fill="#31b74c" stroke="white" stroke-width="1"/><path transform="translate(69.54183992389041,40.15000000000002)" d="M3.536,0A3.536,3.536,0,1,1,-3.536,0A3.536,3.536,0,1,1,3.536,0" fill="#31b74c" stroke="white" stroke-width="1"/><path transform="translate(2.510525938252074e-15,41)" d="M3.536,0A3.536,3.536,0,1,1,-3.536,0A3.536,3.536,0,1,1,3.536,0" fill="#31b74c" stroke="white" stroke-width="1"/><path transform="translate(-7.18801085141084,4.150000000000003)" d="M3.536,0A3.536,3.536,0,1,1,-3.536,0A3.536,3.536,0,1,1,3.536,0" fill="#31b74c" stroke="white" stroke-width="1"/></g><g class="mark-text role-mark value-text" role="graphics-object" aria-roledescription="text mark container"><text text-anchor="end" transform="translate(-6.402961154130791,13.19)" font-family="Arial, sans-serif" font-size="12px" fill="#bfc6cc"/><text text-anchor="start" transform="translate(8.707933285684945e-15,-16.740000000000002)" font-family="Arial, sans-serif" font-size="12px" fill="#bfc6cc">15%</text><text text-anchor="start" transform="translate(1.5761662348876786,13.09)" font-family="Arial, sans-serif" font-size="12px" fill="#bfc6cc"/><text text-anchor="start" transform="translate(69.54183992389041,32.15000000000002)" font-family="Arial, sans-serif" font-size="12px" fill="#bfc6cc">40%</text><text text-anchor="start" transform="translate(2.510525938252074e-15,33)" font-family="Arial, sans-serif" font-size="12px" fill="#bfc6cc">21%</text><text text-anchor="end" transform="translate(-12.18801085141084,-3.849999999999997)" font-family="Arial, sans-serif" font-size="12px" fill="#bfc6cc"/></g></g><path class="foreground" aria-hidden="true" d="" display="none"/></g></g><g class="mark-text role-mark key-label" role="graphics-object" aria-roledescription="text mark container"><text text-anchor="end" transform="translate(-99.59292143521043,-60.500000000000036)" font-family="Arial, sans-serif" font-size="12px" fill="#7c848c">Python</text><text text-anchor="start" transform="translate(3.2576848661475884e-14,-118)" font-family="Arial, sans-serif" font-size="12px" fill="#7c848c">unknown</text><text text-anchor="start" transform="translate(99.59292143521046,-60.49999999999998)" font-family="Arial, sans-serif" font-size="12px" fill="#7c848c">XML</text><text text-anchor="start" transform="translate(99.59292143521043,66.50000000000003)" font-family="Arial, sans-serif" font-size="12px" fill="#7c848c">JavaScript</text><text text-anchor="start" transform="translate(7.041719095097281e-15,124)" font-family="Arial, sans-serif" font-size="12px" fill="#7c848c">YAML</text><text text-anchor="end" transform="translate(-99.59292143521043,66.50000000000003)" font-family="Arial, sans-serif" font-size="12px" fill="#7c848c">Markdown</text></g></g><path class="foreground" aria-hidden="true" d="" display="none"/></g></g></g></svg>