<svg xmlns="http://www.w3.org/2000/svg" xmlns:xlink="http://www.w3.org/1999/xlink" version="1.1" class="marks" width="425" height="203" viewBox="0 0 425 203"><g fill="none" stroke-miterlimit="10" transform="translate(11,5)"><g class="mark-group role-frame root" role="graphics-object" aria-roledescription="group mark container"><g transform="translate(0,0)"><path class="background" aria-hidden="true" d="M0,0h400v144h-400Z"/><g><g class="mark-group role-axis" role="graphics-symbol" aria-roledescription="axis" aria-label="Y-axis for a discrete scale with 6 values: Python, unknown, XML, JavaScript, YAML, TSX"><g transform="translate(0.5,0.5)"><path class="background" aria-hidden="true" d="M0,0h0v0h0Z" pointer-events="none"/><g><g class="mark-rule role-axis-tick" pointer-events="none"><line transform="translate(0,13)" x2="-5" y2="0" stroke="#888" stroke-width="1" opacity="1"/><line transform="translate(0,37)" x2="-5" y2="0" stroke="#888" stroke-width="1" opacity="1"/><line transform="translate(0,60)" x2="-5" y2="0" stroke="#888" stroke-width="1" opacity="1"/><line transform="translate(0,83)" x2="-5" y2="0" stroke="#888" stroke-width="1" opacity="1"/><line transform="translate(0,106)" x2="-5" y2="0" stroke="#888" stroke-width="1" opacity="1"/><line transform="translate(0,130)" x2="-5" y2="0" stroke="#888" stroke-width="1" opacity="1"/></g><g class="mark-rule role-axis-domain" pointer-events="none"><line transform="translate(0,0)" x2="0" y2="144" stroke="#888" stroke-width="1" opacity="1"/></g></g><path class="foreground" aria-hidden="true" d="" pointer-events="none" display="none"/></g></g><g class="mark-rect role-mark" role="graphics-symbol" aria-roledescription="rect mark container"><path d="M366.2377777777778,4.6451612903225765h1.3333333333333144v18.580645161290324h-1.3333333333333144Z" fill="#FFF574"/><path d="M0,4.6451612903225765h366.2377777777778v18.580645161290324h-366.2377777777778Z" fill="#A1D6CB"/><path d="M85.61777777777777,27.87096774193548h25.444444444444443v18.580645161290324h-25.444444444444443Z" fill="#FFF574"/><path d="M0,27.87096774193548h85.61777777777777v18.580645161290324h-85.61777777777777Z" fill="#A1D6CB"/><path d="M81.03111111111112,51.096774193548384h0.23777777777777942v18.580645161290324h-0.23777777777777942Z" fill="#FFF574"/><path d="M0,51.096774193548384h81.03111111111112v18.580645161290324h-81.03111111111112Z" fill="#A1D6CB"/><path d="M0,74.3225806451613h64.72222222222223v18.580645161290324h-64.72222222222223Z" fill="#FFF574"/><path d="M0,74.3225806451613h0v18.580645161290324h0Z" fill="#A1D6CB"/><path d="M0,97.54838709677419h33.55777777777777v18.580645161290324h-33.55777777777777Z" fill="#FFF574"/><path d="M0,97.54838709677419h0v18.580645161290324h0Z" fill="#A1D6CB"/><path d="M0,120.77419354838709h12.935555555555556v18.580645161290324h-12.935555555555556Z" fill="#FFF574"/><path d="M0,120.77419354838709h0v18.580645161290324h0Z" fill="#A1D6CB"/></g><g class="mark-text role-mark" role="graphics-object" aria-roledescription="text mark container"><text text-anchor="start" transform="translate(5,17.935483870967737)" font-family="Arial, sans-serif" font-size="14px" fill="#666666">Python</text><text text-anchor="start" transform="translate(5,17.935483870967737)" font-family="Arial, sans-serif" font-size="14px" fill="#666666">Python</text><text text-anchor="start" transform="translate(5,41.16129032258064)" font-family="Arial, sans-serif" font-size="14px" fill="#666666">unknown</text><text text-anchor="start" transform="translate(5,41.16129032258064)" font-family="Arial, sans-serif" font-size="14px" fill="#666666">unknown</text><text text-anchor="start" transform="translate(5,64.38709677419354)" font-family="Arial, sans-serif" font-size="14px" fill="#666666">XML</text><text text-anchor="start" transform="translate(5,64.38709677419354)" font-family="Arial, sans-serif" font-size="14px" fill="#666666">XML</text><text text-anchor="start" transform="translate(5,87.61290322580646)" font-family="Arial, sans-serif" font-size="14px" fill="#666666">JavaScript</text><text text-anchor="start" transform="translate(5,87.61290322580646)" font-family="Arial, sans-serif" font-size="14px" fill="#666666">JavaScript</text><text text-anchor="start" transform="translate(5,110.83870967741936)" font-family="Arial, sans-serif" font-size="14px" fill="#666666">YAML</text><text text-anchor="start" transform="translate(5,110.83870967741936)" font-family="Arial, sans-serif" font-size="14px" fill="#666666">YAML</text><text text-anchor="start" transform="translate(5,134.06451612903226)" font-family="Arial, sans-serif" font-size="14px" fill="#666666">TSX</text><text text-anchor="start" transform="translate(5,134.06451612903226)" font-family="Arial, sans-serif" font-size="14px" fill="#666666">TSX</text></g><g class="mark-group role-legend" role="graphics-symbol" aria-roledescription="legend" aria-label="Symbol legend for fill color with 2 values: last_7_days, all_time"><g transform="translate(0,179)"><path class="background" aria-hidden="true" d="M0,0h170v14h-170Z" pointer-events="none"/><g><g class="mark-group role-legend-entry"><g transform="translate(0,0)"><path class="background" aria-hidden="true" d="M0,0h0v0h0Z" pointer-events="none"/><g><g class="mark-group role-scope" role="graphics-object" aria-roledescription="group mark container"><g transform="translate(0,0)"><path class="background" aria-hidden="true" d="M0,0h92.716796875v14h-92.716796875Z" pointer-events="none" opacity="1"/><g><g class="mark-symbol role-legend-symbol" pointer-events="none"><path transform="translate(7,7)" d="M5,0A5,5,0,1,1,-5,0A5,5,0,1,1,5,0" fill="#FFF574" stroke-width="1.5" opacity="1"/></g><g class="mark-text role-legend-label" pointer-events="none"><text text-anchor="start" transform="translate(18,11)" font-family="Arial, sans-serif" font-size="14px" fill="#666666" opacity="1">last_7_days</text></g></g><path class="foreground" aria-hidden="true" d="" pointer-events="none" display="none"/></g><g transform="translate(103,0)"><path class="background" aria-hidden="true" d="M0,0h66.2412109375v14h-66.2412109375Z" pointer-events="none" opacity="1"/><g><g class="mark-symbol role-legend-symbol" pointer-events="none"><path transform="translate(7,7)" d="M5,0A5,5,0,1,1,-5,0A5,5,0,1,1,5,0" fill="#A1D6CB" stroke-width="1.5" opacity="1"/></g><g class="mark-text role-legend-label" pointer-events="none"><text text-anchor="start" transform="translate(18,11)" font-family="Arial, sans-serif" font-size="14px" fill="#666666" opacity="1">all_time</text></g></g><path class="foreground" aria-hidden="true" d="" pointer-events="none" display="none"/></g></g></g><path class="foreground" aria-hidden="true" d="" pointer-events="none" display="none"/></g></g></g><path class="foreground" aria-hidden="true" d="" pointer-events="none" display="none"/></g></g><g class="mark-group role-axis" role="graphics-symbol" aria-roledescription="axis" aria-label="X-axis for a linear scale with values from 0k to 180k"><g transform="translate(0.5,144.5)"><path class="background" aria-hidden="true" d="M0,0h0v0h0Z" pointer-events="none"/><g><g class="mark-rule role-axis-tick" pointer-events="none"><line transform="translate(0,0)" x2="0" y2="5" stroke="#666666" stroke-width="1" opacity="1"/><line transform="translate(44,0)" x2="0" y2="5" stroke="#666666" stroke-width="1" opacity="1"/><line transform="translate(89,0)" x2="0" y2="5" stroke="#666666" stroke-width="1" opacity="1"/><line transform="translate(133,0)" x2="0" y2="5" stroke="#666666" stroke-width="1" opacity="1"/><line transform="translate(178,0)" x2="0" y2="5" stroke="#666666" stroke-width="1" opacity="1"/><line transform="translate(222,0)" x2="0" y2="5" stroke="#666666" stroke-width="1" opacity="1"/><line transform="translate(267,0)" x2="0" y2="5" stroke="#666666" stroke-width="1" opacity="1"/><line transform="translate(311,0)" x2="0" y2="5" stroke="#666666" stroke-width="1" opacity="1"/><line transform="translate(356,0)" x2="0" y2="5" stroke="#666666" stroke-width="1" opacity="1"/><line transform="translate(400,0)" x2="0" y2="5" stroke="#666666" stroke-width="1" opacity="1"/></g><g class="mark-text role-axis-label" pointer-events="none"><text text-anchor="middle" transform="translate(0,15)" font-family="Arial, sans-serif" font-size="10px" fill="#666666" opacity="1">0h</text><text text-anchor="middle" transform="translate(44.44444444444444,15)" font-family="Arial, sans-serif" font-size="10px" fill="#666666" opacity="1">6h</text><text text-anchor="middle" transform="translate(88.88888888888889,15)" font-family="Arial, sans-serif" font-size="10px" fill="#666666" opacity="1">11h</text><text text-anchor="middle" transform="translate(133.33333333333331,15)" font-family="Arial, sans-serif" font-size="10px" fill="#666666" opacity="1">17h</text><text text-anchor="middle" transform="translate(177.77777777777777,15)" font-family="Arial, sans-serif" font-size="10px" fill="#666666" opacity="1">22h</text><text text-anchor="middle" transform="translate(222.22222222222223,15)" font-family="Arial, sans-serif" font-size="10px" fill="#666666" opacity="1">28h</text><text text-anchor="middle" transform="translate(266.66666666666663,15)" font-family="Arial, sans-serif" font-size="10px" fill="#666666" opacity="1">33h</text><text text-anchor="middle" transform="translate(311.11111111111114,15)" font-family="Arial, sans-serif" font-size="10px" fill="#666666" opacity="1">39h</text><text text-anchor="middle" transform="translate(355.55555555555554,15)" font-family="Arial, sans-serif" font-size="10px" fill="#666666" opacity="1">44h</text><text text-anchor="middle" transform="translate(400,15)" font-family="Arial, sans-serif" font-size="10px" fill="#666666" opacity="1">50h</text></g><g class="mark-rule role-axis-domain" pointer-events="none"><line transform="translate(0,0)" x2="400" y2="0" stroke="#888" stroke-width="1" opacity="1"/></g></g><path class="foreground" aria-hidden="true" d="" pointer-events="none" display="none"/></g></g></g><path class="foreground" aria-hidden="true" d="" display="none"/></g></g></g></svg>