<svg xmlns="http://www.w3.org/2000/svg" xmlns:xlink="http://www.w3.org/1999/xlink" version="1.1" class="marks" width="400" height="400" viewBox="0 0 400 400"><g fill="none" stroke-miterlimit="10" transform="translate(60,60)"><g class="mark-group role-frame root" role="graphics-object" aria-roledescription="group mark container"><g transform="translate(140,140)"><path class="background" aria-hidden="true" d="M0,0h280v280h-280Z"/><g><g class="mark-rule role-mark radial-grid" role="graphics-symbol" aria-roledescription="rule mark container"><line transform="translate(0,0)" x2="-121.24355652982139" y2="-70.00000000000004" stroke="gray" stroke-width="1"/><line transform="translate(0,0)" x2="3.9658772283535856e-14" y2="-140" stroke="gray" stroke-width="1"/><line transform="translate(0,0)" x2="121.24355652982142" y2="-69.99999999999997" stroke="gray" stroke-width="1"/><line transform="translate(0,0)" x2="121.24355652982139" y2="70.00000000000003" stroke="gray" stroke-width="1"/><line transform="translate(0,0)" x2="8.572527594031473e-15" y2="140" stroke="gray" stroke-width="1"/><line transform="translate(0,0)" x2="-121.24355652982139" y2="70.00000000000004" stroke="gray" stroke-width="1"/></g><g class="mark-group role-scope categories" role="graphics-object" aria-roledescription="group mark container"><g transform="translate(0,0)"><path class="background" aria-hidden="true" d="M0,0h0v0h0Z"/><g><g class="mark-line role-mark category-line" role="graphics-symbol" aria-roledescription="line mark container"><path d="M-92.848,-53.606L0,-35.616L29.826,-17.22L26.746,15.442L0,26.544L-12.682,7.322Z" fill="#0f452d" fill-opacity="0.6" stroke="#0f452d" stroke-width="2"/></g><g class="mark-symbol role-mark category-point" role="graphics-symbol" aria-roledescription="symbol mark container"><path transform="translate(-92.84831559053723,-53.60600000000004)" d="M3.536,0A3.536,3.536,0,1,1,-3.536,0A3.536,3.536,0,1,1,3.536,0" fill="#0f452d" stroke="white" stroke-width="1"/><path transform="translate(1.0089191668931522e-14,-35.616)" d="M3.536,0A3.536,3.536,0,1,1,-3.536,0A3.536,3.536,0,1,1,3.536,0" fill="#0f452d" stroke="white" stroke-width="1"/><path transform="translate(29.825914906336074,-17.219999999999995)" d="M3.536,0A3.536,3.536,0,1,1,-3.536,0A3.536,3.536,0,1,1,3.536,0" fill="#0f452d" stroke="white" stroke-width="1"/><path transform="translate(26.7463285704786,15.442000000000007)" d="M3.536,0A3.536,3.536,0,1,1,-3.536,0A3.536,3.536,0,1,1,3.536,0" fill="#0f452d" stroke="white" stroke-width="1"/><path transform="translate(1.6253512318283674e-15,26.544000000000004)" d="M3.536,0A3.536,3.536,0,1,1,-3.536,0A3.536,3.536,0,1,1,3.536,0" fill="#0f452d" stroke="white" stroke-width="1"/><path transform="translate(-12.68207601301932,7.322000000000005)" d="M3.536,0A3.536,3.536,0,1,1,-3.536,0A3.536,3.536,0,1,1,3.536,0" fill="#0f452d" stroke="white" stroke-width="1"/></g><g class="mark-text role-mark value-text" role="graphics-object" aria-roledescription="text mark container"><text text-anchor="end" transform="translate(-97.84831559053723,-39.60600000000004)" font-family="Arial, sans-serif" font-size="12px" fill="#7c848c">38%</text><text text-anchor="start" transform="translate(1.0089191668931522e-14,-21.616)" font-family="Arial, sans-serif" font-size="12px" fill="#7c848c">13%</text><text text-anchor="start" transform="translate(29.825914906336074,-3.2199999999999953)" font-family="Arial, sans-serif" font-size="12px" fill="#7c848c">12%</text><text text-anchor="start" transform="translate(26.7463285704786,7.442000000000007)" font-family="Arial, sans-serif" font-size="12px" fill="#7c848c">11%</text><text text-anchor="start" transform="translate(1.6253512318283674e-15,18.544000000000004)" font-family="Arial, sans-serif" font-size="12px" fill="#7c848c">9%</text><text text-anchor="end" transform="translate(-17.68207601301932,-0.6779999999999946)" font-family="Arial, sans-serif" font-size="12px" fill="#7c848c">5%</text></g></g><path class="foreground" aria-hidden="true" d="" display="none"/></g><g transform="translate(0,0)"><path class="background" aria-hidden="true" d="M0,0h0v0h0Z"/><g><g class="mark-line role-mark category-line" role="graphics-symbol" aria-roledescription="line mark container"><path d="M-40.083,-23.142L0,-19.712L121.244,-70L0,0L0,0.224L-22.6,13.048Z" fill="#31b74c" fill-opacity="0.6" stroke="#31b74c" stroke-width="2"/></g><g class="mark-symbol role-mark category-point" role="graphics-symbol" aria-roledescription="symbol mark container"><path transform="translate(-40.08311978875895,-23.142000000000014)" d="M3.536,0A3.536,3.536,0,1,1,-3.536,0A3.536,3.536,0,1,1,3.536,0" fill="#31b74c" stroke="white" stroke-width="1"/><path transform="translate(5.583955137521849e-15,-19.712)" d="M3.536,0A3.536,3.536,0,1,1,-3.536,0A3.536,3.536,0,1,1,3.536,0" fill="#31b74c" stroke="white" stroke-width="1"/><path transform="translate(121.24355652982142,-69.99999999999997)" d="M3.536,0A3.536,3.536,0,1,1,-3.536,0A3.536,3.536,0,1,1,3.536,0" fill="#31b74c" stroke="white" stroke-width="1"/><path transform="translate(0,0)" d="M3.536,0A3.536,3.536,0,1,1,-3.536,0A3.536,3.536,0,1,1,3.536,0" fill="#31b74c" stroke="white" stroke-width="1"/><path transform="translate(1.3716044150450356e-17,0.224)" d="M3.536,0A3.536,3.536,0,1,1,-3.536,0A3.536,3.536,0,1,1,3.536,0" fill="#31b74c" stroke="white" stroke-width="1"/><path transform="translate(-22.599798937158706,13.048000000000009)" d="M3.536,0A3.536,3.536,0,1,1,-3.536,0A3.536,3.536,0,1,1,3.536,0" fill="#31b74c" stroke="white" stroke-width="1"/></g><g class="mark-text role-mark value-text" role="graphics-object" aria-roledescription="text mark container"><text text-anchor="end" transform="translate(-45.08311978875895,-9.142000000000014)" font-family="Arial, sans-serif" font-size="12px" fill="#7c848c">17%</text><text text-anchor="start" transform="translate(5.583955137521849e-15,-5.712)" font-family="Arial, sans-serif" font-size="12px" fill="#7c848c">7%</text><text text-anchor="start" transform="translate(121.24355652982142,-55.99999999999997)" font-family="Arial, sans-serif" font-size="12px" fill="#7c848c">53%</text><text text-anchor="start" transform="translate(0,-8)" font-family="Arial, sans-serif" font-size="12px" fill="#7c848c"/><text text-anchor="start" transform="translate(1.3716044150450356e-17,-7.776)" font-family="Arial, sans-serif" font-size="12px" fill="#7c848c"/><text text-anchor="end" transform="translate(-27.599798937158706,5.048000000000009)" font-family="Arial, sans-serif" font-size="12px" fill="#7c848c">9%</text></g></g><path class="foreground" aria-hidden="true" d="" display="none"/></g></g><g class="mark-text role-mark key-label" role="graphics-object" aria-roledescription="text mark container"><text text-anchor="end" transform="translate(-134.23393758658796,-80.50000000000006)" font-family="Arial, sans-serif" font-size="12px" fill="#bfc6cc">Python</text><text text-anchor="start" transform="translate(4.390792645677184e-14,-158)" font-family="Arial, sans-serif" font-size="12px" fill="#bfc6cc">unknown</text><text text-anchor="start" transform="translate(134.233937586588,-80.49999999999997)" font-family="Arial, sans-serif" font-size="12px" fill="#bfc6cc">Rust</text><text text-anchor="start" transform="translate(134.23393758658796,86.50000000000003)" font-family="Arial, sans-serif" font-size="12px" fill="#bfc6cc">JavaScript</text><text text-anchor="start" transform="translate(9.491012693391987e-15,164)" font-family="Arial, sans-serif" font-size="12px" fill="#bfc6cc">XML</text><text text-anchor="end" transform="translate(-134.23393758658796,86.50000000000006)" font-family="Arial, sans-serif" font-size="12px" fill="#bfc6cc">YAML</text></g></g><path class="foreground" aria-hidden="true" d="" display="none"/></g></g></g></svg>