<svg xmlns="http://www.w3.org/2000/svg" xmlns:xlink="http://www.w3.org/1999/xlink" version="1.1" class="marks" width="480" height="311" viewBox="0 0 480 311"><g fill="none" stroke-miterlimit="10" transform="translate(38,30)"><g class="mark-group role-frame root" role="graphics-object" aria-roledescription="group mark container"><g transform="translate(0,0)"><path class="background" aria-hidden="true" d="M0,0h400v204h-400Z"/><g><g class="mark-group role-axis" role="graphics-symbol" aria-roledescription="axis" aria-label="Y-axis for a discrete scale with 6 values: Python, unknown, Rust, JavaScript, XML, YAML"><g transform="translate(0.5,0.5)"><path class="background" aria-hidden="true" d="M0,0h0v0h0Z" pointer-events="none"/><g><g class="mark-rule role-axis-tick" pointer-events="none"><line transform="translate(0,19)" x2="-5" y2="0" stroke="#888" stroke-width="1" opacity="1"/><line transform="translate(0,52)" x2="-5" y2="0" stroke="#888" stroke-width="1" opacity="1"/><line transform="translate(0,85)" x2="-5" y2="0" stroke="#888" stroke-width="1" opacity="1"/><line transform="translate(0,118)" x2="-5" y2="0" stroke="#888" stroke-width="1" opacity="1"/><line transform="translate(0,151)" x2="-5" y2="0" stroke="#888" stroke-width="1" opacity="1"/><line transform="translate(0,184)" x2="-5" y2="0" stroke="#888" stroke-width="1" opacity="1"/></g><g class="mark-rule role-axis-domain" pointer-events="none"><line transform="translate(0,0)" x2="0" y2="204" stroke="#888" stroke-width="1" opacity="1"/></g></g><path class="foreground" aria-hidden="true" d="" pointer-events="none" display="none"/></g></g><g class="mark-rect role-mark" role="graphics-symbol" aria-roledescription="rect mark container"><path d="M370.74666666666667,6.5806451612903345h13.422222222222217v26.32258064516129h-13.422222222222217Z" fill="#31b74c"/><path d="M0,6.5806451612903345h370.74666666666667v26.32258064516129h-370.74666666666667Z" fill="#0f452d"/><path d="M121.86222222222223,39.48387096774194h5.713333333333324v26.32258064516129h-5.713333333333324Z" fill="#31b74c"/><path d="M0,39.48387096774194h121.86222222222223v26.32258064516129h-121.86222222222223Z" fill="#0f452d"/><path d="M80.43777777777777,72.38709677419355h42.92444444444445v26.32258064516129h-42.92444444444445Z" fill="#31b74c"/><path d="M0,72.38709677419355h80.43777777777777v26.32258064516129h-80.43777777777777Z" fill="#0f452d"/><path d="M110.6511111111111,105.29032258064515h0v26.32258064516129h0Z" fill="#31b74c"/><path d="M0,105.29032258064515h110.6511111111111v26.32258064516129h-110.6511111111111Z" fill="#0f452d"/><path d="M95.02222222222223,138.19354838709677h0.06666666666666288v26.32258064516129h-0.06666666666666288Z" fill="#31b74c"/><path d="M0,138.19354838709677h95.02222222222223v26.32258064516129h-95.02222222222223Z" fill="#0f452d"/><path d="M44.86222222222222,171.09677419354838h7.56444444444444v26.32258064516129h-7.56444444444444Z" fill="#31b74c"/><path d="M0,171.09677419354838h44.86222222222222v26.32258064516129h-44.86222222222222Z" fill="#0f452d"/></g><g class="mark-text role-mark" role="graphics-object" aria-roledescription="text mark container"><text text-anchor="start" transform="translate(5,23.74193548387098)" font-family="Arial, sans-serif" font-size="12px" fill="#bfc6cc">Python (48h)</text><text text-anchor="start" transform="translate(5,56.64516129032259)" font-family="Arial, sans-serif" font-size="12px" fill="#bfc6cc">unknown (16h)</text><text text-anchor="start" transform="translate(5,89.54838709677419)" font-family="Arial, sans-serif" font-size="12px" fill="#bfc6cc">Rust (15h)</text><text text-anchor="start" transform="translate(5,122.4516129032258)" font-family="Arial, sans-serif" font-size="12px" fill="#bfc6cc">JavaScript (14h)</text><text text-anchor="start" transform="translate(5,155.3548387096774)" font-family="Arial, sans-serif" font-size="12px" fill="#bfc6cc">XML (12h)</text><text text-anchor="start" transform="translate(5,188.25806451612902)" font-family="Arial, sans-serif" font-size="12px" fill="#bfc6cc">YAML (7h)</text></g><g class="mark-group role-legend" role="graphics-symbol" aria-roledescription="legend" aria-label="Symbol legend for fill color with 2 values: last_7_days, all_time"><g transform="translate(0,239)"><path class="background" aria-hidden="true" d="M0,0h223v12h-223Z" pointer-events="none"/><g><g class="mark-group role-legend-entry"><g transform="translate(0,0)"><path class="background" aria-hidden="true" d="M0,0h0v0h0Z" pointer-events="none"/><g><g class="mark-group role-scope" role="graphics-object" aria-roledescription="group mark container"><g transform="translate(0,0)"><path class="background" aria-hidden="true" d="M0,0h121v12h-121Z" pointer-events="none" opacity="1"/><g><g class="mark-symbol role-legend-symbol" pointer-events="none"><path transform="translate(6,6)" d="M5,0A5,5,0,1,1,-5,0A5,5,0,1,1,5,0" fill="#31b74c" stroke-width="1.5" opacity="1"/></g><g class="mark-text role-legend-label" pointer-events="none"><text text-anchor="start" transform="translate(16,10)" font-family="Arial, sans-serif" font-size="12px" fill="#bfc6cc" opacity="1">last_7_days</text></g></g><path class="foreground" aria-hidden="true" d="" pointer-events="none" display="none"/></g><g transform="translate(131,0)"><path class="background" aria-hidden="true" d="M0,0h92v12h-92Z" pointer-events="none" opacity="1"/><g><g class="mark-symbol role-legend-symbol" pointer-events="none"><path transform="translate(6,6)" d="M5,0A5,5,0,1,1,-5,0A5,5,0,1,1,5,0" fill="#0f452d" stroke-width="1.5" opacity="1"/></g><g class="mark-text role-legend-label" pointer-events="none"><text text-anchor="start" transform="translate(16,10)" font-family="Arial, sans-serif" font-size="12px" fill="#bfc6cc" opacity="1">all_time</text></g></g><path class="foreground" aria-hidden="true" d="" pointer-events="none" display="none"/></g></g></g><path class="foreground" aria-hidden="true" d="" pointer-events="none" display="none"/></g></g></g><path class="foreground" aria-hidden="true" d="" pointer-events="none" display="none"/></g></g><g class="mark-group role-axis" role="graphics-symbol" aria-roledescription="axis" aria-label="X-axis for a linear scale with values from 0k to 180k"><g transform="translate(0.5,204.5)"><path class="background" aria-hidden="true" d="M0,0h0v0h0Z" pointer-events="none"/><g><g class="mark-rule role-axis-tick" pointer-events="none"><line transform="translate(0,0)" x2="0" y2="5" stroke="#3c444c" stroke-width="1" opacity="1"/><line transform="translate(44,0)" x2="0" y2="5" stroke="#3c444c" stroke-width="1" opacity="1"/><line transform="translate(89,0)" x2="0" y2="5" stroke="#3c444c" stroke-width="1" opacity="1"/><line transform="translate(133,0)" x2="0" y2="5" stroke="#3c444c" stroke-width="1" opacity="1"/><line transform="translate(178,0)" x2="0" y2="5" stroke="#3c444c" stroke-width="1" opacity="1"/><line transform="translate(222,0)" x2="0" y2="5" stroke="#3c444c" stroke-width="1" opacity="1"/><line transform="translate(267,0)" x2="0" y2="5" stroke="#3c444c" stroke-width="1" opacity="1"/><line transform="translate(311,0)" x2="0" y2="5" stroke="#3c444c" stroke-width="1" opacity="1"/><line transform="translate(356,0)" x2="0" y2="5" stroke="#3c444c" stroke-width="1" opacity="1"/><line transform="translate(400,0)" x2="0" y2="5" stroke="#3c444c" stroke-width="1" opacity="1"/></g><g class="mark-text role-axis-label" pointer-events="none"><text text-anchor="middle" transform="translate(0,15)" font-family="Arial, sans-serif" font-size="10px" fill="#3c444c" opacity="1">0h</text><text text-anchor="middle" transform="translate(44.44444444444444,15)" font-family="Arial, sans-serif" font-size="10px" fill="#3c444c" opacity="1">6h</text><text text-anchor="middle" transform="translate(88.88888888888889,15)" font-family="Arial, sans-serif" font-size="10px" fill="#3c444c" opacity="1">11h</text><text text-anchor="middle" transform="translate(133.33333333333331,15)" font-family="Arial, sans-serif" font-size="10px" fill="#3c444c" opacity="1">17h</text><text text-anchor="middle" transform="translate(177.77777777777777,15)" font-family="Arial, sans-serif" font-size="10px" fill="#3c444c" opacity="1">22h</text><text text-anchor="middle" transform="translate(222.22222222222223,15)" font-family="Arial, sans-serif" font-size="10px" fill="#3c444c" opacity="1">28h</text><text text-anchor="middle" transform="translate(266.66666666666663,15)" font-family="Arial, sans-serif" font-size="10px" fill="#3c444c" opacity="1">33h</text><text text-anchor="middle" transform="translate(311.11111111111114,15)" font-family="Arial, sans-serif" font-size="10px" fill="#3c444c" opacity="1">39h</text><text text-anchor="middle" transform="translate(355.55555555555554,15)" font-family="Arial, sans-serif" font-size="10px" fill="#3c444c" opacity="1">44h</text><text text-anchor="middle" transform="translate(400,15)" font-family="Arial, sans-serif" font-size="10px" fill="#3c444c" opacity="1">50h</text></g><g class="mark-rule role-axis-domain" pointer-events="none"><line transform="translate(0,0)" x2="400" y2="0" stroke="#888" stroke-width="1" opacity="1"/></g></g><path class="foreground" aria-hidden="true" d="" pointer-events="none" display="none"/></g></g></g><path class="foreground" aria-hidden="true" d="" display="none"/></g></g></g></svg>