<svg xmlns="http://www.w3.org/2000/svg" xmlns:xlink="http://www.w3.org/1999/xlink" version="1.1" class="marks" width="523" height="201" viewBox="0 0 523 201"><g fill="none" stroke-miterlimit="10" transform="translate(106,5)"><g class="mark-group role-frame root" role="graphics-object" aria-roledescription="group mark container"><g transform="translate(0,0)"><path class="background" aria-hidden="true" d="M0,0h400v144h-400Z"/><g><g class="mark-group role-axis" role="graphics-symbol" aria-roledescription="axis" aria-label="Y-axis for a discrete scale with 6 values: Python, unknown, JavaScript, XML, YAML, Markdown"><g transform="translate(0.5,0.5)"><path class="background" aria-hidden="true" d="M0,0h0v0h0Z" pointer-events="none"/><g><g class="mark-text role-axis-label" pointer-events="none"><text text-anchor="end" transform="translate(-5,17.435483870967737)" font-family="Arial, sans-serif" font-size="12px" fill="#bfc6cc" opacity="1">Python</text><text text-anchor="end" transform="translate(-5,40.66129032258064)" font-family="Arial, sans-serif" font-size="12px" fill="#bfc6cc" opacity="1">unknown</text><text text-anchor="end" transform="translate(-5,63.887096774193544)" font-family="Arial, sans-serif" font-size="12px" fill="#bfc6cc" opacity="1">JavaScript</text><text text-anchor="end" transform="translate(-5,87.11290322580646)" font-family="Arial, sans-serif" font-size="12px" fill="#bfc6cc" opacity="1">XML</text><text text-anchor="end" transform="translate(-5,110.33870967741936)" font-family="Arial, sans-serif" font-size="12px" fill="#bfc6cc" opacity="1">YAML</text><text text-anchor="end" transform="translate(-5,133.56451612903226)" font-family="Arial, sans-serif" font-size="12px" fill="#bfc6cc" opacity="1">Markdown</text></g></g><path class="foreground" aria-hidden="true" d="" pointer-events="none" display="none"/></g></g><g class="mark-rect role-mark" role="graphics-symbol" aria-roledescription="rect mark container"><path d="M367.5711111111111,4.6451612903225765h0v18.580645161290324h0Z" fill="#31b74c"/><path d="M0,4.6451612903225765h367.5711111111111v18.580645161290324h-367.5711111111111Z" fill="#0f452d"/><path d="M85.61777777777777,27.87096774193548h25.444444444444443v18.580645161290324h-25.444444444444443Z" fill="#31b74c"/><path d="M0,27.87096774193548h85.61777777777777v18.580645161290324h-85.61777777777777Z" fill="#0f452d"/><path d="M0,51.096774193548384h101.42888888888888v18.580645161290324h-101.42888888888888Z" fill="#31b74c"/><path d="M0,51.096774193548384h0v18.580645161290324h0Z" fill="#0f452d"/><path d="M81.03111111111112,74.3225806451613h11.091111111111118v18.580645161290324h-11.091111111111118Z" fill="#31b74c"/><path d="M0,74.3225806451613h81.03111111111112v18.580645161290324h-81.03111111111112Z" fill="#0f452d"/><path d="M0,97.54838709677419h36.99333333333333v18.580645161290324h-36.99333333333333Z" fill="#31b74c"/><path d="M0,97.54838709677419h0v18.580645161290324h0Z" fill="#0f452d"/><path d="M6.264444444444445,120.77419354838709h16.306666666666665v18.580645161290324h-16.306666666666665Z" fill="#31b74c"/><path d="M0,120.77419354838709h6.264444444444445v18.580645161290324h-6.264444444444445Z" fill="#0f452d"/></g><g class="mark-text role-mark" role="graphics-object" aria-roledescription="text mark container"><text text-anchor="start" transform="translate(372.5711111111111,17.935483870967737)" font-family="Arial, sans-serif" font-size="12px" fill="#bfc6cc">46h</text><text text-anchor="start" transform="translate(116.06222222222222,41.16129032258064)" font-family="Arial, sans-serif" font-size="12px" fill="#bfc6cc">14h</text><text text-anchor="start" transform="translate(106.42888888888888,64.38709677419354)" font-family="Arial, sans-serif" font-size="12px" fill="#bfc6cc">13h</text><text text-anchor="start" transform="translate(97.12222222222223,87.61290322580646)" font-family="Arial, sans-serif" font-size="12px" fill="#bfc6cc">12h</text><text text-anchor="start" transform="translate(41.99333333333333,110.83870967741936)" font-family="Arial, sans-serif" font-size="12px" fill="#bfc6cc">5h</text><text text-anchor="start" transform="translate(27.57111111111111,134.06451612903226)" font-family="Arial, sans-serif" font-size="12px" fill="#bfc6cc">3h</text></g><g class="mark-group role-legend" role="graphics-symbol" aria-roledescription="legend" aria-label="Symbol legend for fill color with 2 values: last_7_days, all_time"><g transform="translate(0,179)"><path class="background" aria-hidden="true" d="M0,0h223v12h-223Z" pointer-events="none"/><g><g class="mark-group role-legend-entry"><g transform="translate(0,0)"><path class="background" aria-hidden="true" d="M0,0h0v0h0Z" pointer-events="none"/><g><g class="mark-group role-scope" role="graphics-object" aria-roledescription="group mark container"><g transform="translate(0,0)"><path class="background" aria-hidden="true" d="M0,0h121v12h-121Z" pointer-events="none" opacity="1"/><g><g class="mark-symbol role-legend-symbol" pointer-events="none"><path transform="translate(6,6)" d="M5,0A5,5,0,1,1,-5,0A5,5,0,1,1,5,0" fill="#31b74c" stroke-width="1.5" opacity="1"/></g><g class="mark-text role-legend-label" pointer-events="none"><text text-anchor="start" transform="translate(16,10)" font-family="Arial, sans-serif" font-size="12px" fill="#bfc6cc" opacity="1">last_7_days</text></g></g><path class="foreground" aria-hidden="true" d="" pointer-events="none" display="none"/></g><g transform="translate(131,0)"><path class="background" aria-hidden="true" d="M0,0h92v12h-92Z" pointer-events="none" opacity="1"/><g><g class="mark-symbol role-legend-symbol" pointer-events="none"><path transform="translate(6,6)" d="M5,0A5,5,0,1,1,-5,0A5,5,0,1,1,5,0" fill="#0f452d" stroke-width="1.5" opacity="1"/></g><g class="mark-text role-legend-label" pointer-events="none"><text text-anchor="start" transform="translate(16,10)" font-family="Arial, sans-serif" font-size="12px" fill="#bfc6cc" opacity="1">all_time</text></g></g><path class="foreground" aria-hidden="true" d="" pointer-events="none" display="none"/></g></g></g><path class="foreground" aria-hidden="true" d="" pointer-events="none" display="none"/></g></g></g><path class="foreground" aria-hidden="true" d="" pointer-events="none" display="none"/></g></g><g class="mark-group role-axis" role="graphics-symbol" aria-roledescription="axis" aria-label="X-axis for a linear scale with values from 0k to 180k"><g transform="translate(0.5,144.5)"><path class="background" aria-hidden="true" d="M0,0h0v0h0Z" pointer-events="none"/><g><g class="mark-rule role-axis-tick" pointer-events="none"><line transform="translate(0,0)" x2="0" y2="5" stroke="#3c444c" stroke-width="1" opacity="1"/><line transform="translate(44,0)" x2="0" y2="5" stroke="#3c444c" stroke-width="1" opacity="1"/><line transform="translate(89,0)" x2="0" y2="5" stroke="#3c444c" stroke-width="1" opacity="1"/><line transform="translate(133,0)" x2="0" y2="5" stroke="#3c444c" stroke-width="1" opacity="1"/><line transform="translate(178,0)" x2="0" y2="5" stroke="#3c444c" stroke-width="1" opacity="1"/><line transform="translate(222,0)" x2="0" y2="5" stroke="#3c444c" stroke-width="1" opacity="1"/><line transform="translate(267,0)" x2="0" y2="5" stroke="#3c444c" stroke-width="1" opacity="1"/><line transform="translate(311,0)" x2="0" y2="5" stroke="#3c444c" stroke-width="1" opacity="1"/><line transform="translate(356,0)" x2="0" y2="5" stroke="#3c444c" stroke-width="1" opacity="1"/><line transform="translate(400,0)" x2="0" y2="5" stroke="#3c444c" stroke-width="1" opacity="1"/></g><g class="mark-text role-axis-label" pointer-events="none"><text text-anchor="middle" transform="translate(0,15)" font-family="Arial, sans-serif" font-size="10px" fill="#3c444c" opacity="1">0h</text><text text-anchor="middle" transform="translate(44.44444444444444,15)" font-family="Arial, sans-serif" font-size="10px" fill="#3c444c" opacity="1">6h</text><text text-anchor="middle" transform="translate(88.88888888888889,15)" font-family="Arial, sans-serif" font-size="10px" fill="#3c444c" opacity="1">11h</text><text text-anchor="middle" transform="translate(133.33333333333331,15)" font-family="Arial, sans-serif" font-size="10px" fill="#3c444c" opacity="1">17h</text><text text-anchor="middle" transform="translate(177.77777777777777,15)" font-family="Arial, sans-serif" font-size="10px" fill="#3c444c" opacity="1">22h</text><text text-anchor="middle" transform="translate(222.22222222222223,15)" font-family="Arial, sans-serif" font-size="10px" fill="#3c444c" opacity="1">28h</text><text text-anchor="middle" transform="translate(266.66666666666663,15)" font-family="Arial, sans-serif" font-size="10px" fill="#3c444c" opacity="1">33h</text><text text-anchor="middle" transform="translate(311.11111111111114,15)" font-family="Arial, sans-serif" font-size="10px" fill="#3c444c" opacity="1">39h</text><text text-anchor="middle" transform="translate(355.55555555555554,15)" font-family="Arial, sans-serif" font-size="10px" fill="#3c444c" opacity="1">44h</text><text text-anchor="middle" transform="translate(400,15)" font-family="Arial, sans-serif" font-size="10px" fill="#3c444c" opacity="1">50h</text></g><g class="mark-rule role-axis-domain" pointer-events="none"><line transform="translate(0,0)" x2="400" y2="0" stroke="#888" stroke-width="1" opacity="1"/></g></g><path class="foreground" aria-hidden="true" d="" pointer-events="none" display="none"/></g></g></g><path class="foreground" aria-hidden="true" d="" display="none"/></g></g></g></svg>