<svg xmlns="http://www.w3.org/2000/svg" xmlns:xlink="http://www.w3.org/1999/xlink" version="1.1" class="marks" width="400" height="400" viewBox="0 0 400 400"><g fill="none" stroke-miterlimit="10" transform="translate(50,50)"><g class="mark-group role-frame root" role="graphics-object" aria-roledescription="group mark container"><g transform="translate(150,150)"><path class="background" aria-hidden="true" d="M0,0h300v300h-300Z"/><g><g class="mark-rule role-mark radial-grid" role="graphics-symbol" aria-roledescription="rule mark container"><line transform="translate(0,0)" x2="-129.90381056766577" y2="-75.00000000000006" stroke="lightgray" stroke-width="1"/><line transform="translate(0,0)" x2="4.2491541732359845e-14" y2="-150" stroke="lightgray" stroke-width="1"/><line transform="translate(0,0)" x2="129.9038105676658" y2="-74.99999999999997" stroke="lightgray" stroke-width="1"/><line transform="translate(0,0)" x2="129.90381056766577" y2="75.00000000000003" stroke="lightgray" stroke-width="1"/><line transform="translate(0,0)" x2="9.184850993605149e-15" y2="150" stroke="lightgray" stroke-width="1"/><line transform="translate(0,0)" x2="-129.90381056766577" y2="75.00000000000006" stroke="lightgray" stroke-width="1"/></g><g class="mark-group role-scope categories" role="graphics-object" aria-roledescription="group mark container"><g transform="translate(0,0)"><path class="background" aria-hidden="true" d="M0,0h0v0h0Z"/><g><g class="mark-line role-mark category-line" role="graphics-symbol" aria-roledescription="line mark container"><path d="M-129.904,-75L0,-46.71L29.592,-17.085L23.565,13.605L0,14.1L-4.703,2.715Z" fill="#A1D6CB" fill-opacity="0.8" stroke="#A1D6CB" stroke-width="2"/></g><g class="mark-symbol role-mark category-point" role="graphics-symbol" aria-roledescription="symbol mark container"><path transform="translate(-129.90381056766577,-75.00000000000006)" d="M3.536,0A3.536,3.536,0,1,1,-3.536,0A3.536,3.536,0,1,1,3.536,0" fill="#A1D6CB" stroke="white" stroke-width="1"/><path transform="translate(1.3231866095456856e-14,-46.71)" d="M3.536,0A3.536,3.536,0,1,1,-3.536,0A3.536,3.536,0,1,1,3.536,0" fill="#A1D6CB" stroke="white" stroke-width="1"/><path transform="translate(29.592088047314274,-17.084999999999994)" d="M3.536,0A3.536,3.536,0,1,1,-3.536,0A3.536,3.536,0,1,1,3.536,0" fill="#A1D6CB" stroke="white" stroke-width="1"/><path transform="translate(23.564551236974573,13.605000000000006)" d="M3.536,0A3.536,3.536,0,1,1,-3.536,0A3.536,3.536,0,1,1,3.536,0" fill="#A1D6CB" stroke="white" stroke-width="1"/><path transform="translate(8.63375993398884e-16,14.1)" d="M3.536,0A3.536,3.536,0,1,1,-3.536,0A3.536,3.536,0,1,1,3.536,0" fill="#A1D6CB" stroke="white" stroke-width="1"/><path transform="translate(-4.702517942549502,2.715000000000002)" d="M3.536,0A3.536,3.536,0,1,1,-3.536,0A3.536,3.536,0,1,1,3.536,0" fill="#A1D6CB" stroke="white" stroke-width="1"/></g><g class="mark-text role-mark value-text" role="graphics-object" aria-roledescription="text mark container"><text text-anchor="end" transform="translate(-134.90381056766577,-59.00000000000006)" font-family="Arial, sans-serif" font-size="14px" fill="#ffffff">52%</text><text text-anchor="start" transform="translate(1.3231866095456856e-14,-30.71)" font-family="Arial, sans-serif" font-size="14px" fill="#ffffff">16%</text><text text-anchor="start" transform="translate(29.592088047314274,-1.0849999999999937)" font-family="Arial, sans-serif" font-size="14px" fill="#ffffff">11%</text><text text-anchor="start" transform="translate(23.564551236974573,5.605000000000006)" font-family="Arial, sans-serif" font-size="14px" fill="#ffffff">9%</text><text text-anchor="start" transform="translate(8.63375993398884e-16,6.1)" font-family="Arial, sans-serif" font-size="14px" fill="#ffffff"/><text text-anchor="end" transform="translate(-9.702517942549502,-5.284999999999998)" font-family="Arial, sans-serif" font-size="14px" fill="#ffffff"/></g></g><path class="foreground" aria-hidden="true" d="" display="none"/></g><g transform="translate(0,0)"><path class="background" aria-hidden="true" d="M0,0h0v0h0Z"/><g><g class="mark-line role-mark category-line" role="graphics-symbol" aria-roledescription="line mark container"><path d="M-2.156,-1.245L0,-47.37L0.39,-0.225L104.365,60.255L0,62.49L-20.863,12.045Z" fill="#FFF574" fill-opacity="0.8" stroke="#FFF574" stroke-width="2"/></g><g class="mark-symbol role-mark category-point" role="graphics-symbol" aria-roledescription="symbol mark container"><path transform="translate(-2.156403255423252,-1.245000000000001)" d="M3.536,0A3.536,3.536,0,1,1,-3.536,0A3.536,3.536,0,1,1,3.536,0" fill="#FFF574" stroke="white" stroke-width="1"/><path transform="translate(1.3418828879079239e-14,-47.37)" d="M3.536,0A3.536,3.536,0,1,1,-3.536,0A3.536,3.536,0,1,1,3.536,0" fill="#FFF574" stroke="white" stroke-width="1"/><path transform="translate(0.38971143170299744,-0.22499999999999992)" d="M3.536,0A3.536,3.536,0,1,1,-3.536,0A3.536,3.536,0,1,1,3.536,0" fill="#FFF574" stroke="white" stroke-width="1"/><path transform="translate(104.36472141006269,60.25500000000003)" d="M3.536,0A3.536,3.536,0,1,1,-3.536,0A3.536,3.536,0,1,1,3.536,0" fill="#FFF574" stroke="white" stroke-width="1"/><path transform="translate(3.826408923935905e-15,62.489999999999995)" d="M3.536,0A3.536,3.536,0,1,1,-3.536,0A3.536,3.536,0,1,1,3.536,0" fill="#FFF574" stroke="white" stroke-width="1"/><path transform="translate(-20.862551977167122,12.045000000000009)" d="M3.536,0A3.536,3.536,0,1,1,-3.536,0A3.536,3.536,0,1,1,3.536,0" fill="#FFF574" stroke="white" stroke-width="1"/></g><g class="mark-text role-mark value-text" role="graphics-object" aria-roledescription="text mark container"><text text-anchor="end" transform="translate(-7.1564032554232515,14.754999999999999)" font-family="Arial, sans-serif" font-size="14px" fill="#ffffff"/><text text-anchor="start" transform="translate(1.3418828879079239e-14,-31.369999999999997)" font-family="Arial, sans-serif" font-size="14px" fill="#ffffff">16%</text><text text-anchor="start" transform="translate(0.38971143170299744,15.775)" font-family="Arial, sans-serif" font-size="14px" fill="#ffffff"/><text text-anchor="start" transform="translate(104.36472141006269,52.25500000000003)" font-family="Arial, sans-serif" font-size="14px" fill="#ffffff">40%</text><text text-anchor="start" transform="translate(3.826408923935905e-15,54.489999999999995)" font-family="Arial, sans-serif" font-size="14px" fill="#ffffff">21%</text><text text-anchor="end" transform="translate(-25.862551977167122,4.045000000000009)" font-family="Arial, sans-serif" font-size="14px" fill="#ffffff">8%</text></g></g><path class="foreground" aria-hidden="true" d="" display="none"/></g></g><g class="mark-text role-mark key-label" role="graphics-object" aria-roledescription="text mark container"><text text-anchor="end" transform="translate(-142.89419162443235,-85.50000000000006)" font-family="Arial, sans-serif" font-size="14px" fill="#666666">Python</text><text text-anchor="start" transform="translate(4.6740695905595834e-14,-168)" font-family="Arial, sans-serif" font-size="14px" fill="#666666">unknown</text><text text-anchor="start" transform="translate(142.89419162443238,-85.49999999999997)" font-family="Arial, sans-serif" font-size="14px" fill="#666666">XML</text><text text-anchor="start" transform="translate(142.89419162443235,93.50000000000004)" font-family="Arial, sans-serif" font-size="14px" fill="#666666">JavaScript</text><text text-anchor="start" transform="translate(1.0103336092965664e-14,176)" font-family="Arial, sans-serif" font-size="14px" fill="#666666">YAML</text><text text-anchor="end" transform="translate(-142.89419162443235,93.50000000000006)" font-family="Arial, sans-serif" font-size="14px" fill="#666666">TSX</text></g></g><path class="foreground" aria-hidden="true" d="" display="none"/></g></g></g></svg>