<svg xmlns="http://www.w3.org/2000/svg" xmlns:xlink="http://www.w3.org/1999/xlink" version="1.1" class="marks" width="435" height="211" viewBox="0 0 435 211"><g fill="none" stroke-miterlimit="10" transform="translate(16,10)"><g class="mark-group role-frame root" role="graphics-object" aria-roledescription="group mark container"><g transform="translate(0,0)"><path class="background" aria-hidden="true" d="M0,0h400v144h-400Z"/><g><g class="mark-group role-axis" role="graphics-symbol" aria-roledescription="axis" aria-label="Y-axis for a discrete scale with 6 values: Python, unknown, XML, JavaScript, YAML, Markdown"><g transform="translate(0.5,0.5)"><path class="background" aria-hidden="true" d="M0,0h0v0h0Z" pointer-events="none"/><g><g class="mark-rule role-axis-tick" pointer-events="none"><line transform="translate(0,13)" x2="-5" y2="0" stroke="#888" stroke-width="1" opacity="1"/><line transform="translate(0,37)" x2="-5" y2="0" stroke="#888" stroke-width="1" opacity="1"/><line transform="translate(0,60)" x2="-5" y2="0" stroke="#888" stroke-width="1" opacity="1"/><line transform="translate(0,83)" x2="-5" y2="0" stroke="#888" stroke-width="1" opacity="1"/><line transform="translate(0,106)" x2="-5" y2="0" stroke="#888" stroke-width="1" opacity="1"/><line transform="translate(0,130)" x2="-5" y2="0" stroke="#888" stroke-width="1" opacity="1"/></g><g class="mark-rule role-axis-domain" pointer-events="none"><line transform="translate(0,0)" x2="0" y2="144" stroke="#888" stroke-width="1" opacity="1"/></g></g><path class="foreground" aria-hidden="true" d="" pointer-events="none" display="none"/></g></g><g class="mark-rect role-mark" role="graphics-symbol" aria-roledescription="rect mark container"><path d="M366.2377777777778,4.6451612903225765h1.3333333333333144v18.580645161290324h-1.3333333333333144Z" fill="#31b74c"/><path d="M0,4.6451612903225765h366.2377777777778v18.580645161290324h-366.2377777777778Z" fill="#0f452d"/><path d="M85.61777777777777,27.87096774193548h25.444444444444443v18.580645161290324h-25.444444444444443Z" fill="#31b74c"/><path d="M0,27.87096774193548h85.61777777777777v18.580645161290324h-85.61777777777777Z" fill="#0f452d"/><path d="M81.03111111111112,51.096774193548384h1.8688888888888755v18.580645161290324h-1.8688888888888755Z" fill="#31b74c"/><path d="M0,51.096774193548384h81.03111111111112v18.580645161290324h-81.03111111111112Z" fill="#0f452d"/><path d="M0,74.3225806451613h68.04222222222222v18.580645161290324h-68.04222222222222Z" fill="#31b74c"/><path d="M0,74.3225806451613h0v18.580645161290324h0Z" fill="#0f452d"/><path d="M0,97.54838709677419h36.41111111111111v18.580645161290324h-36.41111111111111Z" fill="#31b74c"/><path d="M0,97.54838709677419h0v18.580645161290324h0Z" fill="#0f452d"/><path d="M6.264444444444445,120.77419354838709h8.566666666666666v18.580645161290324h-8.566666666666666Z" fill="#31b74c"/><path d="M0,120.77419354838709h6.264444444444445v18.580645161290324h-6.264444444444445Z" fill="#0f452d"/></g><g class="mark-text role-mark" role="graphics-object" aria-roledescription="text mark container"><text text-anchor="start" transform="translate(5,17.935483870967737)" font-family="Arial, sans-serif" font-size="12px" fill="#bfc6cc">Python</text><text text-anchor="start" transform="translate(5,17.935483870967737)" font-family="Arial, sans-serif" font-size="12px" fill="#bfc6cc">Python</text><text text-anchor="start" transform="translate(5,41.16129032258064)" font-family="Arial, sans-serif" font-size="12px" fill="#bfc6cc">unknown</text><text text-anchor="start" transform="translate(5,41.16129032258064)" font-family="Arial, sans-serif" font-size="12px" fill="#bfc6cc">unknown</text><text text-anchor="start" transform="translate(5,64.38709677419354)" font-family="Arial, sans-serif" font-size="12px" fill="#bfc6cc">XML</text><text text-anchor="start" transform="translate(5,64.38709677419354)" font-family="Arial, sans-serif" font-size="12px" fill="#bfc6cc">XML</text><text text-anchor="start" transform="translate(5,87.61290322580646)" font-family="Arial, sans-serif" font-size="12px" fill="#bfc6cc">JavaScript</text><text text-anchor="start" transform="translate(5,87.61290322580646)" font-family="Arial, sans-serif" font-size="12px" fill="#bfc6cc">JavaScript</text><text text-anchor="start" transform="translate(5,110.83870967741936)" font-family="Arial, sans-serif" font-size="12px" fill="#bfc6cc">YAML</text><text text-anchor="start" transform="translate(5,110.83870967741936)" font-family="Arial, sans-serif" font-size="12px" fill="#bfc6cc">YAML</text><text text-anchor="start" transform="translate(5,134.06451612903226)" font-family="Arial, sans-serif" font-size="12px" fill="#bfc6cc">Markdown</text><text text-anchor="start" transform="translate(5,134.06451612903226)" font-family="Arial, sans-serif" font-size="12px" fill="#bfc6cc">Markdown</text></g><g class="mark-text role-mark" role="graphics-object" aria-roledescription="text mark container"><text text-anchor="start" transform="translate(372.5711111111111,17.935483870967737)" font-family="Arial, sans-serif" font-size="12px" fill="#bfc6cc">46h</text><text text-anchor="start" transform="translate(116.06222222222222,41.16129032258064)" font-family="Arial, sans-serif" font-size="12px" fill="#bfc6cc">14h</text><text text-anchor="start" transform="translate(87.89999999999999,64.38709677419354)" font-family="Arial, sans-serif" font-size="12px" fill="#bfc6cc">10h</text><text text-anchor="start" transform="translate(73.04222222222222,87.61290322580646)" font-family="Arial, sans-serif" font-size="12px" fill="#bfc6cc">9h</text><text text-anchor="start" transform="translate(41.41111111111111,110.83870967741936)" font-family="Arial, sans-serif" font-size="12px" fill="#bfc6cc">5h</text><text text-anchor="start" transform="translate(19.831111111111113,134.06451612903226)" font-family="Arial, sans-serif" font-size="12px" fill="#bfc6cc">2h</text></g><g class="mark-group role-legend" role="graphics-symbol" aria-roledescription="legend" aria-label="Symbol legend for fill color with 2 values: last_7_days, all_time"><g transform="translate(0,179)"><path class="background" aria-hidden="true" d="M0,0h149v12h-149Z" pointer-events="none"/><g><g class="mark-group role-legend-entry"><g transform="translate(0,0)"><path class="background" aria-hidden="true" d="M0,0h0v0h0Z" pointer-events="none"/><g><g class="mark-group role-scope" role="graphics-object" aria-roledescription="group mark container"><g transform="translate(0,0)"><path class="background" aria-hidden="true" d="M0,0h80.04296875v12h-80.04296875Z" pointer-events="none" opacity="1"/><g><g class="mark-symbol role-legend-symbol" pointer-events="none"><path transform="translate(6,6)" d="M5,0A5,5,0,1,1,-5,0A5,5,0,1,1,5,0" fill="#31b74c" stroke-width="1.5" opacity="1"/></g><g class="mark-text role-legend-label" pointer-events="none"><text text-anchor="start" transform="translate(16,10)" font-family="Arial, sans-serif" font-size="12px" fill="#7c848c" opacity="1">last_7_days</text></g></g><path class="foreground" aria-hidden="true" d="" pointer-events="none" display="none"/></g><g transform="translate(91,0)"><path class="background" aria-hidden="true" d="M0,0h57.349609375v12h-57.349609375Z" pointer-events="none" opacity="1"/><g><g class="mark-symbol role-legend-symbol" pointer-events="none"><path transform="translate(6,6)" d="M5,0A5,5,0,1,1,-5,0A5,5,0,1,1,5,0" fill="#0f452d" stroke-width="1.5" opacity="1"/></g><g class="mark-text role-legend-label" pointer-events="none"><text text-anchor="start" transform="translate(16,10)" font-family="Arial, sans-serif" font-size="12px" fill="#7c848c" opacity="1">all_time</text></g></g><path class="foreground" aria-hidden="true" d="" pointer-events="none" display="none"/></g></g></g><path class="foreground" aria-hidden="true" d="" pointer-events="none" display="none"/></g></g></g><path class="foreground" aria-hidden="true" d="" pointer-events="none" display="none"/></g></g><g class="mark-group role-axis" role="graphics-symbol" aria-roledescription="axis" aria-label="X-axis for a linear scale with values from 0k to 180k"><g transform="translate(0.5,144.5)"><path class="background" aria-hidden="true" d="M0,0h0v0h0Z" pointer-events="none"/><g><g class="mark-rule role-axis-tick" pointer-events="none"><line transform="translate(0,0)" x2="0" y2="5" stroke="#7c848c" stroke-width="1" opacity="1"/><line transform="translate(44,0)" x2="0" y2="5" stroke="#7c848c" stroke-width="1" opacity="1"/><line transform="translate(89,0)" x2="0" y2="5" stroke="#7c848c" stroke-width="1" opacity="1"/><line transform="translate(133,0)" x2="0" y2="5" stroke="#7c848c" stroke-width="1" opacity="1"/><line transform="translate(178,0)" x2="0" y2="5" stroke="#7c848c" stroke-width="1" opacity="1"/><line transform="translate(222,0)" x2="0" y2="5" stroke="#7c848c" stroke-width="1" opacity="1"/><line transform="translate(267,0)" x2="0" y2="5" stroke="#7c848c" stroke-width="1" opacity="1"/><line transform="translate(311,0)" x2="0" y2="5" stroke="#7c848c" stroke-width="1" opacity="1"/><line transform="translate(356,0)" x2="0" y2="5" stroke="#7c848c" stroke-width="1" opacity="1"/><line transform="translate(400,0)" x2="0" y2="5" stroke="#7c848c" stroke-width="1" opacity="1"/></g><g class="mark-text role-axis-label" pointer-events="none"><text text-anchor="middle" transform="translate(0,15)" font-family="Arial, sans-serif" font-size="10px" fill="#7c848c" opacity="1">0h</text><text text-anchor="middle" transform="translate(44.44444444444444,15)" font-family="Arial, sans-serif" font-size="10px" fill="#7c848c" opacity="1">6h</text><text text-anchor="middle" transform="translate(88.88888888888889,15)" font-family="Arial, sans-serif" font-size="10px" fill="#7c848c" opacity="1">11h</text><text text-anchor="middle" transform="translate(133.33333333333331,15)" font-family="Arial, sans-serif" font-size="10px" fill="#7c848c" opacity="1">17h</text><text text-anchor="middle" transform="translate(177.77777777777777,15)" font-family="Arial, sans-serif" font-size="10px" fill="#7c848c" opacity="1">22h</text><text text-anchor="middle" transform="translate(222.22222222222223,15)" font-family="Arial, sans-serif" font-size="10px" fill="#7c848c" opacity="1">28h</text><text text-anchor="middle" transform="translate(266.66666666666663,15)" font-family="Arial, sans-serif" font-size="10px" fill="#7c848c" opacity="1">33h</text><text text-anchor="middle" transform="translate(311.11111111111114,15)" font-family="Arial, sans-serif" font-size="10px" fill="#7c848c" opacity="1">39h</text><text text-anchor="middle" transform="translate(355.55555555555554,15)" font-family="Arial, sans-serif" font-size="10px" fill="#7c848c" opacity="1">44h</text><text text-anchor="middle" transform="translate(400,15)" font-family="Arial, sans-serif" font-size="10px" fill="#7c848c" opacity="1">50h</text></g><g class="mark-rule role-axis-domain" pointer-events="none"><line transform="translate(0,0)" x2="400" y2="0" stroke="#888" stroke-width="1" opacity="1"/></g></g><path class="foreground" aria-hidden="true" d="" pointer-events="none" display="none"/></g></g></g><path class="foreground" aria-hidden="true" d="" display="none"/></g></g></g></svg>