<svg xmlns="http://www.w3.org/2000/svg" xmlns:xlink="http://www.w3.org/1999/xlink" version="1.1" class="marks" width="520" height="327" viewBox="0 0 520 327"><g fill="none" stroke-miterlimit="10" transform="translate(58,50)"><g class="mark-group role-frame root" role="graphics-object" aria-roledescription="group mark container"><g transform="translate(0,0)"><path class="background" aria-hidden="true" d="M0,0h400v180h-400Z"/><g><g class="mark-group role-axis" role="graphics-symbol" aria-roledescription="axis" aria-label="Y-axis for a discrete scale with 6 values: onshape-robotics-toolkit, umv-codesign, senthurayyappan, ballbot-mujoco, neurobionicspi, onshape-api"><g transform="translate(0.5,0.5)"><path class="background" aria-hidden="true" d="M0,0h0v0h0Z" pointer-events="none"/><g><g class="mark-rule role-axis-tick" pointer-events="none"><line transform="translate(0,17)" x2="-5" y2="0" stroke="#888" stroke-width="1" opacity="1"/><line transform="translate(0,46)" x2="-5" y2="0" stroke="#888" stroke-width="1" opacity="1"/><line transform="translate(0,75)" x2="-5" y2="0" stroke="#888" stroke-width="1" opacity="1"/><line transform="translate(0,104)" x2="-5" y2="0" stroke="#888" stroke-width="1" opacity="1"/><line transform="translate(0,133)" x2="-5" y2="0" stroke="#888" stroke-width="1" opacity="1"/><line transform="translate(0,162)" x2="-5" y2="0" stroke="#888" stroke-width="1" opacity="1"/></g><g class="mark-rule role-axis-domain" pointer-events="none"><line transform="translate(0,0)" x2="0" y2="180" stroke="#888" stroke-width="1" opacity="1"/></g></g><path class="foreground" aria-hidden="true" d="" pointer-events="none" display="none"/></g></g><g class="mark-rect role-mark" role="graphics-symbol" aria-roledescription="rect mark container"><path d="M383.69599999999997,5.806451612903231h0v23.225806451612904h0Z" fill="#31b74c"/><path d="M0,5.806451612903231h383.69599999999997v23.225806451612904h-383.69599999999997Z" fill="#0f452d"/><path d="M314.312,34.83870967741936h0v23.225806451612904h0Z" fill="#31b74c"/><path d="M0,34.83870967741936h314.312v23.225806451612904h-314.312Z" fill="#0f452d"/><path d="M0,63.87096774193549h306.68v23.225806451612904h-306.68Z" fill="#31b74c"/><path d="M0,63.87096774193549h0v23.225806451612904h0Z" fill="#0f452d"/><path d="M231.384,92.90322580645162h0v23.225806451612904h0Z" fill="#31b74c"/><path d="M0,92.90322580645162h231.384v23.225806451612904h-231.384Z" fill="#0f452d"/><path d="M0,121.93548387096774h76.412v23.225806451612904h-76.412Z" fill="#31b74c"/><path d="M0,121.93548387096774h0v23.225806451612904h0Z" fill="#0f452d"/><path d="M61.175999999999995,150.96774193548387h0v23.225806451612904h0Z" fill="#31b74c"/><path d="M0,150.96774193548387h61.175999999999995v23.225806451612904h-61.175999999999995Z" fill="#0f452d"/></g><g class="mark-text role-mark" role="graphics-object" aria-roledescription="text mark container"><text text-anchor="start" transform="translate(5,20.419354838709683)" font-family="Arial, sans-serif" font-size="10px" fill="#bfc6cc">onshape-robotics-toolkit (27h)</text><text text-anchor="start" transform="translate(5,49.45161290322581)" font-family="Arial, sans-serif" font-size="10px" fill="#bfc6cc">umv-codesign (22h)</text><text text-anchor="start" transform="translate(5,78.48387096774194)" font-family="Arial, sans-serif" font-size="10px" fill="#bfc6cc">senthurayyappan (21h)</text><text text-anchor="start" transform="translate(5,107.51612903225806)" font-family="Arial, sans-serif" font-size="10px" fill="#bfc6cc">ballbot-mujoco (16h)</text><text text-anchor="start" transform="translate(5,136.5483870967742)" font-family="Arial, sans-serif" font-size="10px" fill="#bfc6cc">neurobionicspi (5h)</text><text text-anchor="start" transform="translate(5,165.58064516129033)" font-family="Arial, sans-serif" font-size="10px" fill="#bfc6cc">onshape-api (4h)</text></g><g class="mark-group role-legend" role="graphics-symbol" aria-roledescription="legend" aria-label="Symbol legend for fill color with 2 values: last_7_days, all_time"><g transform="translate(0,215)"><path class="background" aria-hidden="true" d="M0,0h223v12h-223Z" pointer-events="none"/><g><g class="mark-group role-legend-entry"><g transform="translate(0,0)"><path class="background" aria-hidden="true" d="M0,0h0v0h0Z" pointer-events="none"/><g><g class="mark-group role-scope" role="graphics-object" aria-roledescription="group mark container"><g transform="translate(0,0)"><path class="background" aria-hidden="true" d="M0,0h121v12h-121Z" pointer-events="none" opacity="1"/><g><g class="mark-symbol role-legend-symbol" pointer-events="none"><path transform="translate(6,6)" d="M5,0A5,5,0,1,1,-5,0A5,5,0,1,1,5,0" fill="#31b74c" stroke-width="1.5" opacity="1"/></g><g class="mark-text role-legend-label" pointer-events="none"><text text-anchor="start" transform="translate(16,10)" font-family="Arial, sans-serif" font-size="12px" fill="#bfc6cc" opacity="1">last_7_days</text></g></g><path class="foreground" aria-hidden="true" d="" pointer-events="none" display="none"/></g><g transform="translate(131,0)"><path class="background" aria-hidden="true" d="M0,0h92v12h-92Z" pointer-events="none" opacity="1"/><g><g class="mark-symbol role-legend-symbol" pointer-events="none"><path transform="translate(6,6)" d="M5,0A5,5,0,1,1,-5,0A5,5,0,1,1,5,0" fill="#0f452d" stroke-width="1.5" opacity="1"/></g><g class="mark-text role-legend-label" pointer-events="none"><text text-anchor="start" transform="translate(16,10)" font-family="Arial, sans-serif" font-size="12px" fill="#bfc6cc" opacity="1">all_time</text></g></g><path class="foreground" aria-hidden="true" d="" pointer-events="none" display="none"/></g></g></g><path class="foreground" aria-hidden="true" d="" pointer-events="none" display="none"/></g></g></g><path class="foreground" aria-hidden="true" d="" pointer-events="none" display="none"/></g></g><g class="mark-group role-axis" role="graphics-symbol" aria-roledescription="axis" aria-label="X-axis for a linear scale with values from 0k to 100k"><g transform="translate(0.5,180.5)"><path class="background" aria-hidden="true" d="M0,0h0v0h0Z" pointer-events="none"/><g><g class="mark-rule role-axis-tick" pointer-events="none"><line transform="translate(0,0)" x2="0" y2="5" stroke="#3c444c" stroke-width="1" opacity="1"/><line transform="translate(40,0)" x2="0" y2="5" stroke="#3c444c" stroke-width="1" opacity="1"/><line transform="translate(80,0)" x2="0" y2="5" stroke="#3c444c" stroke-width="1" opacity="1"/><line transform="translate(120,0)" x2="0" y2="5" stroke="#3c444c" stroke-width="1" opacity="1"/><line transform="translate(160,0)" x2="0" y2="5" stroke="#3c444c" stroke-width="1" opacity="1"/><line transform="translate(200,0)" x2="0" y2="5" stroke="#3c444c" stroke-width="1" opacity="1"/><line transform="translate(240,0)" x2="0" y2="5" stroke="#3c444c" stroke-width="1" opacity="1"/><line transform="translate(280,0)" x2="0" y2="5" stroke="#3c444c" stroke-width="1" opacity="1"/><line transform="translate(320,0)" x2="0" y2="5" stroke="#3c444c" stroke-width="1" opacity="1"/><line transform="translate(360,0)" x2="0" y2="5" stroke="#3c444c" stroke-width="1" opacity="1"/><line transform="translate(400,0)" x2="0" y2="5" stroke="#3c444c" stroke-width="1" opacity="1"/></g><g class="mark-text role-axis-label" pointer-events="none"><text text-anchor="middle" transform="translate(0,15)" font-family="Arial, sans-serif" font-size="10px" fill="#3c444c" opacity="1">0h</text><text text-anchor="middle" transform="translate(40,15)" font-family="Arial, sans-serif" font-size="10px" fill="#3c444c" opacity="1">3h</text><text text-anchor="middle" transform="translate(80,15)" font-family="Arial, sans-serif" font-size="10px" fill="#3c444c" opacity="1">6h</text><text text-anchor="middle" transform="translate(120,15)" font-family="Arial, sans-serif" font-size="10px" fill="#3c444c" opacity="1">8h</text><text text-anchor="middle" transform="translate(160,15)" font-family="Arial, sans-serif" font-size="10px" fill="#3c444c" opacity="1">11h</text><text text-anchor="middle" transform="translate(200,15)" font-family="Arial, sans-serif" font-size="10px" fill="#3c444c" opacity="1">14h</text><text text-anchor="middle" transform="translate(240,15)" font-family="Arial, sans-serif" font-size="10px" fill="#3c444c" opacity="1">17h</text><text text-anchor="middle" transform="translate(280,15)" font-family="Arial, sans-serif" font-size="10px" fill="#3c444c" opacity="1">19h</text><text text-anchor="middle" transform="translate(320,15)" font-family="Arial, sans-serif" font-size="10px" fill="#3c444c" opacity="1">22h</text><text text-anchor="middle" transform="translate(360,15)" font-family="Arial, sans-serif" font-size="10px" fill="#3c444c" opacity="1">25h</text><text text-anchor="middle" transform="translate(400,15)" font-family="Arial, sans-serif" font-size="10px" fill="#3c444c" opacity="1">28h</text></g><g class="mark-rule role-axis-domain" pointer-events="none"><line transform="translate(0,0)" x2="400" y2="0" stroke="#888" stroke-width="1" opacity="1"/></g></g><path class="foreground" aria-hidden="true" d="" pointer-events="none" display="none"/></g></g></g><path class="foreground" aria-hidden="true" d="" display="none"/></g></g></g></svg>