<svg xmlns="http://www.w3.org/2000/svg" xmlns:xlink="http://www.w3.org/1999/xlink" version="1.1" class="marks" width="400" height="400" viewBox="0 0 400 400"><g fill="none" stroke-miterlimit="10" transform="translate(80,80)"><g class="mark-group role-frame root" role="graphics-object" aria-roledescription="group mark container"><g transform="translate(120,120)"><path class="background" aria-hidden="true" d="M0,0h240v240h-240Z"/><g><g class="mark-rule role-mark radial-grid" role="graphics-symbol" aria-roledescription="rule mark container"><line transform="translate(0,0)" x2="-103.92304845413261" y2="-60.00000000000004" stroke="gray" stroke-width="1"/><line transform="translate(0,0)" x2="3.399323338588788e-14" y2="-120" stroke="gray" stroke-width="1"/><line transform="translate(0,0)" x2="103.92304845413264" y2="-59.99999999999998" stroke="gray" stroke-width="1"/><line transform="translate(0,0)" x2="103.92304845413261" y2="60.00000000000003" stroke="gray" stroke-width="1"/><line transform="translate(0,0)" x2="7.34788079488412e-15" y2="120" stroke="gray" stroke-width="1"/><line transform="translate(0,0)" x2="-103.92304845413261" y2="60.00000000000004" stroke="gray" stroke-width="1"/></g><g class="mark-group role-scope categories" role="graphics-object" aria-roledescription="group mark container"><g transform="translate(0,0)"><path class="background" aria-hidden="true" d="M0,0h0v0h0Z"/><g><g class="mark-line role-mark category-line" role="graphics-symbol" aria-roledescription="line mark container"><path d="M-59.382,-34.284L0,-56.184L35.916,-20.736L35.812,20.676L0,13.656L-9.478,5.472Z" fill="#0f452d" fill-opacity="0.6" stroke="#0f452d" stroke-width="2"/></g><g class="mark-symbol role-mark category-point" role="graphics-symbol" aria-roledescription="symbol mark container"><path transform="translate(-59.38162988669138,-34.28400000000002)" d="M3.536,0A3.536,3.536,0,1,1,-3.536,0A3.536,3.536,0,1,1,3.536,0" fill="#0f452d" stroke="white" stroke-width="1"/><path transform="translate(1.5915631871272703e-14,-56.184)" d="M3.536,0A3.536,3.536,0,1,1,-3.536,0A3.536,3.536,0,1,1,3.536,0" fill="#0f452d" stroke="white" stroke-width="1"/><path transform="translate(35.91580554574824,-20.735999999999994)" d="M3.536,0A3.536,3.536,0,1,1,-3.536,0A3.536,3.536,0,1,1,3.536,0" fill="#0f452d" stroke="white" stroke-width="1"/><path transform="translate(35.81188249729411,20.676000000000013)" d="M3.536,0A3.536,3.536,0,1,1,-3.536,0A3.536,3.536,0,1,1,3.536,0" fill="#0f452d" stroke="white" stroke-width="1"/><path transform="translate(8.361888344578129e-16,13.656000000000002)" d="M3.536,0A3.536,3.536,0,1,1,-3.536,0A3.536,3.536,0,1,1,3.536,0" fill="#0f452d" stroke="white" stroke-width="1"/><path transform="translate(-9.477782019016894,5.472000000000003)" d="M3.536,0A3.536,3.536,0,1,1,-3.536,0A3.536,3.536,0,1,1,3.536,0" fill="#0f452d" stroke="white" stroke-width="1"/></g><g class="mark-text role-mark value-text" role="graphics-object" aria-roledescription="text mark container"><text text-anchor="end" transform="translate(-64.38162988669137,-20.28400000000002)" font-family="Arial, sans-serif" font-size="12px" fill="#bfc6cc">29%</text><text text-anchor="start" transform="translate(1.5915631871272703e-14,-42.184)" font-family="Arial, sans-serif" font-size="12px" fill="#bfc6cc">23%</text><text text-anchor="start" transform="translate(35.91580554574824,-6.7359999999999935)" font-family="Arial, sans-serif" font-size="12px" fill="#bfc6cc">17%</text><text text-anchor="start" transform="translate(35.81188249729411,12.676000000000013)" font-family="Arial, sans-serif" font-size="12px" fill="#bfc6cc">17%</text><text text-anchor="start" transform="translate(8.361888344578129e-16,5.656000000000002)" font-family="Arial, sans-serif" font-size="12px" fill="#bfc6cc">6%</text><text text-anchor="end" transform="translate(-14.477782019016894,-2.527999999999997)" font-family="Arial, sans-serif" font-size="12px" fill="#bfc6cc"/></g></g><path class="foreground" aria-hidden="true" d="" display="none"/></g><g transform="translate(0,0)"><path class="background" aria-hidden="true" d="M0,0h0v0h0Z"/><g><g class="mark-line role-mark category-line" role="graphics-symbol" aria-roledescription="line mark container"><path d="M-1.434,-0.828L0,0L103.923,-60L0,0L0,52.608L0,0Z" fill="#31b74c" fill-opacity="0.6" stroke="#31b74c" stroke-width="2"/></g><g class="mark-symbol role-mark category-point" role="graphics-symbol" aria-roledescription="symbol mark container"><path transform="translate(-1.43413806866703,-0.8280000000000005)" d="M3.536,0A3.536,3.536,0,1,1,-3.536,0A3.536,3.536,0,1,1,3.536,0" fill="#31b74c" stroke="white" stroke-width="1"/><path transform="translate(0,0)" d="M3.536,0A3.536,3.536,0,1,1,-3.536,0A3.536,3.536,0,1,1,3.536,0" fill="#31b74c" stroke="white" stroke-width="1"/><path transform="translate(103.92304845413264,-59.99999999999998)" d="M3.536,0A3.536,3.536,0,1,1,-3.536,0A3.536,3.536,0,1,1,3.536,0" fill="#31b74c" stroke="white" stroke-width="1"/><path transform="translate(0,0)" d="M3.536,0A3.536,3.536,0,1,1,-3.536,0A3.536,3.536,0,1,1,3.536,0" fill="#31b74c" stroke="white" stroke-width="1"/><path transform="translate(3.2213109404771982e-15,52.608000000000004)" d="M3.536,0A3.536,3.536,0,1,1,-3.536,0A3.536,3.536,0,1,1,3.536,0" fill="#31b74c" stroke="white" stroke-width="1"/><path transform="translate(0,0)" d="M3.536,0A3.536,3.536,0,1,1,-3.536,0A3.536,3.536,0,1,1,3.536,0" fill="#31b74c" stroke="white" stroke-width="1"/></g><g class="mark-text role-mark value-text" role="graphics-object" aria-roledescription="text mark container"><text text-anchor="end" transform="translate(-6.43413806866703,13.171999999999999)" font-family="Arial, sans-serif" font-size="12px" fill="#bfc6cc"/><text text-anchor="start" transform="translate(0,14)" font-family="Arial, sans-serif" font-size="12px" fill="#bfc6cc"/><text text-anchor="start" transform="translate(103.92304845413264,-45.99999999999998)" font-family="Arial, sans-serif" font-size="12px" fill="#bfc6cc">67%</text><text text-anchor="start" transform="translate(0,-8)" font-family="Arial, sans-serif" font-size="12px" fill="#bfc6cc"/><text text-anchor="start" transform="translate(3.2213109404771982e-15,44.608000000000004)" font-family="Arial, sans-serif" font-size="12px" fill="#bfc6cc">22%</text><text text-anchor="end" transform="translate(-5,-8)" font-family="Arial, sans-serif" font-size="12px" fill="#bfc6cc"/></g></g><path class="foreground" aria-hidden="true" d="" display="none"/></g></g><g class="mark-text role-mark key-label" role="graphics-object" aria-roledescription="text mark container"><text text-anchor="end" transform="translate(-116.91342951089919,-70.50000000000004)" font-family="Arial, sans-serif" font-size="12px" fill="#3c444c"><tspan>onshape</tspan><tspan x="0" dy="12">robotics</tspan><tspan x="0" dy="12">toolkit</tspan></text><text text-anchor="start" transform="translate(3.824238755912386e-14,-138)" font-family="Arial, sans-serif" font-size="12px" fill="#3c444c"><tspan>umv</tspan><tspan x="0" dy="12">codesign</tspan></text><text text-anchor="start" transform="translate(116.91342951089922,-70.49999999999997)" font-family="Arial, sans-serif" font-size="12px" fill="#3c444c"><tspan>senthurayy</tspan><tspan x="0" dy="12">appan</tspan></text><text text-anchor="start" transform="translate(116.91342951089919,76.50000000000003)" font-family="Arial, sans-serif" font-size="12px" fill="#3c444c"><tspan>ballbot</tspan><tspan x="0" dy="12">mujoco</tspan></text><text text-anchor="start" transform="translate(8.266365894244634e-15,144)" font-family="Arial, sans-serif" font-size="12px" fill="#3c444c"><tspan>neurobioni</tspan><tspan x="0" dy="12">cspi</tspan></text><text text-anchor="end" transform="translate(-116.91342951089919,76.50000000000004)" font-family="Arial, sans-serif" font-size="12px" fill="#3c444c"><tspan>onshape</tspan><tspan x="0" dy="12">api</tspan></text></g></g><path class="foreground" aria-hidden="true" d="" display="none"/></g></g></g></svg>