<svg xmlns="http://www.w3.org/2000/svg" xmlns:xlink="http://www.w3.org/1999/xlink" version="1.1" class="marks" width="400" height="400" viewBox="0 0 400 400"><g fill="none" stroke-miterlimit="10" transform="translate(80,80)"><g class="mark-group role-frame root" role="graphics-object" aria-roledescription="group mark container"><g transform="translate(120,120)"><path class="background" aria-hidden="true" d="M0,0h240v240h-240Z"/><g><g class="mark-rule role-mark radial-grid" role="graphics-symbol" aria-roledescription="rule mark container"><line transform="translate(0,0)" x2="-103.92304845413261" y2="-60.00000000000004" stroke="gray" stroke-width="1"/><line transform="translate(0,0)" x2="3.399323338588788e-14" y2="-120" stroke="gray" stroke-width="1"/><line transform="translate(0,0)" x2="103.92304845413264" y2="-59.99999999999998" stroke="gray" stroke-width="1"/><line transform="translate(0,0)" x2="103.92304845413261" y2="60.00000000000003" stroke="gray" stroke-width="1"/><line transform="translate(0,0)" x2="7.34788079488412e-15" y2="120" stroke="gray" stroke-width="1"/><line transform="translate(0,0)" x2="-103.92304845413261" y2="60.00000000000004" stroke="gray" stroke-width="1"/></g><g class="mark-group role-scope categories" role="graphics-object" aria-roledescription="group mark container"><g transform="translate(0,0)"><path class="background" aria-hidden="true" d="M0,0h0v0h0Z"/><g><g class="mark-line role-mark category-line" role="graphics-symbol" aria-roledescription="line mark container"><path d="M-57.719,-33.324L0,-54.6L40.738,-23.52L34.814,20.1L0,13.272L-9.208,5.316Z" fill="#0f452d" fill-opacity="0.6" stroke="#0f452d" stroke-width="2"/></g><g class="mark-symbol role-mark category-point" role="graphics-symbol" aria-roledescription="symbol mark container"><path transform="translate(-57.718861111425255,-33.32400000000002)" d="M3.536,0A3.536,3.536,0,1,1,-3.536,0A3.536,3.536,0,1,1,3.536,0" fill="#0f452d" stroke="white" stroke-width="1"/><path transform="translate(1.5466921190578986e-14,-54.6)" d="M3.536,0A3.536,3.536,0,1,1,-3.536,0A3.536,3.536,0,1,1,3.536,0" fill="#0f452d" stroke="white" stroke-width="1"/><path transform="translate(40.73783499402,-23.519999999999992)" d="M3.536,0A3.536,3.536,0,1,1,-3.536,0A3.536,3.536,0,1,1,3.536,0" fill="#0f452d" stroke="white" stroke-width="1"/><path transform="translate(34.81422123213443,20.100000000000012)" d="M3.536,0A3.536,3.536,0,1,1,-3.536,0A3.536,3.536,0,1,1,3.536,0" fill="#0f452d" stroke="white" stroke-width="1"/><path transform="translate(8.126756159141836e-16,13.272)" d="M3.536,0A3.536,3.536,0,1,1,-3.536,0A3.536,3.536,0,1,1,3.536,0" fill="#0f452d" stroke="white" stroke-width="1"/><path transform="translate(-9.20758209303615,5.316000000000003)" d="M3.536,0A3.536,3.536,0,1,1,-3.536,0A3.536,3.536,0,1,1,3.536,0" fill="#0f452d" stroke="white" stroke-width="1"/></g><g class="mark-text role-mark value-text" role="graphics-object" aria-roledescription="text mark container"><text text-anchor="end" transform="translate(-62.718861111425255,-19.32400000000002)" font-family="Arial, sans-serif" font-size="12px" fill="#bfc6cc">28%</text><text text-anchor="start" transform="translate(1.5466921190578986e-14,-40.6)" font-family="Arial, sans-serif" font-size="12px" fill="#bfc6cc">23%</text><text text-anchor="start" transform="translate(40.73783499402,-9.519999999999992)" font-family="Arial, sans-serif" font-size="12px" fill="#bfc6cc">20%</text><text text-anchor="start" transform="translate(34.81422123213443,12.100000000000012)" font-family="Arial, sans-serif" font-size="12px" fill="#bfc6cc">17%</text><text text-anchor="start" transform="translate(8.126756159141836e-16,5.272)" font-family="Arial, sans-serif" font-size="12px" fill="#bfc6cc">6%</text><text text-anchor="end" transform="translate(-14.20758209303615,-2.6839999999999966)" font-family="Arial, sans-serif" font-size="12px" fill="#bfc6cc"/></g></g><path class="foreground" aria-hidden="true" d="" display="none"/></g><g transform="translate(0,0)"><path class="background" aria-hidden="true" d="M0,0h0v0h0Z"/><g><g class="mark-line role-mark category-line" role="graphics-symbol" aria-roledescription="line mark container"><path d="M-1.289,-0.744L0,0L103.923,-60L0,0L0,47.352L0,0Z" fill="#31b74c" fill-opacity="0.6" stroke="#31b74c" stroke-width="2"/></g><g class="mark-symbol role-mark category-point" role="graphics-symbol" aria-roledescription="symbol mark container"><path transform="translate(-1.2886458008312445,-0.7440000000000004)" d="M3.536,0A3.536,3.536,0,1,1,-3.536,0A3.536,3.536,0,1,1,3.536,0" fill="#31b74c" stroke="white" stroke-width="1"/><path transform="translate(0,0)" d="M3.536,0A3.536,3.536,0,1,1,-3.536,0A3.536,3.536,0,1,1,3.536,0" fill="#31b74c" stroke="white" stroke-width="1"/><path transform="translate(103.92304845413264,-59.99999999999998)" d="M3.536,0A3.536,3.536,0,1,1,-3.536,0A3.536,3.536,0,1,1,3.536,0" fill="#31b74c" stroke="white" stroke-width="1"/><path transform="translate(0,0)" d="M3.536,0A3.536,3.536,0,1,1,-3.536,0A3.536,3.536,0,1,1,3.536,0" fill="#31b74c" stroke="white" stroke-width="1"/><path transform="translate(2.899473761661274e-15,47.352000000000004)" d="M3.536,0A3.536,3.536,0,1,1,-3.536,0A3.536,3.536,0,1,1,3.536,0" fill="#31b74c" stroke="white" stroke-width="1"/><path transform="translate(0,0)" d="M3.536,0A3.536,3.536,0,1,1,-3.536,0A3.536,3.536,0,1,1,3.536,0" fill="#31b74c" stroke="white" stroke-width="1"/></g><g class="mark-text role-mark value-text" role="graphics-object" aria-roledescription="text mark container"><text text-anchor="end" transform="translate(-6.288645800831245,13.256)" font-family="Arial, sans-serif" font-size="12px" fill="#bfc6cc"/><text text-anchor="start" transform="translate(0,14)" font-family="Arial, sans-serif" font-size="12px" fill="#bfc6cc"/><text text-anchor="start" transform="translate(103.92304845413264,-45.99999999999998)" font-family="Arial, sans-serif" font-size="12px" fill="#bfc6cc">70%</text><text text-anchor="start" transform="translate(0,-8)" font-family="Arial, sans-serif" font-size="12px" fill="#bfc6cc"/><text text-anchor="start" transform="translate(2.899473761661274e-15,39.352000000000004)" font-family="Arial, sans-serif" font-size="12px" fill="#bfc6cc">20%</text><text text-anchor="end" transform="translate(-5,-8)" font-family="Arial, sans-serif" font-size="12px" fill="#bfc6cc"/></g></g><path class="foreground" aria-hidden="true" d="" display="none"/></g></g><g class="mark-text role-mark key-label" role="graphics-object" aria-roledescription="text mark container"><text text-anchor="end" transform="translate(-116.91342951089919,-70.50000000000004)" font-family="Arial, sans-serif" font-size="12px" fill="#3c444c"><tspan>onshape</tspan><tspan x="0" dy="12">robotics</tspan><tspan x="0" dy="12">toolkit</tspan></text><text text-anchor="start" transform="translate(3.824238755912386e-14,-138)" font-family="Arial, sans-serif" font-size="12px" fill="#3c444c"><tspan>umv</tspan><tspan x="0" dy="12">codesign</tspan></text><text text-anchor="start" transform="translate(116.91342951089922,-70.49999999999997)" font-family="Arial, sans-serif" font-size="12px" fill="#3c444c"><tspan>senthurayy</tspan><tspan x="0" dy="12">appan</tspan></text><text text-anchor="start" transform="translate(116.91342951089919,76.50000000000003)" font-family="Arial, sans-serif" font-size="12px" fill="#3c444c"><tspan>ballbot</tspan><tspan x="0" dy="12">mujoco</tspan></text><text text-anchor="start" transform="translate(8.266365894244634e-15,144)" font-family="Arial, sans-serif" font-size="12px" fill="#3c444c"><tspan>neurobioni</tspan><tspan x="0" dy="12">cspi</tspan></text><text text-anchor="end" transform="translate(-116.91342951089919,76.50000000000004)" font-family="Arial, sans-serif" font-size="12px" fill="#3c444c"><tspan>onshape</tspan><tspan x="0" dy="12">api</tspan></text></g></g><path class="foreground" aria-hidden="true" d="" display="none"/></g></g></g></svg>