<svg xmlns="http://www.w3.org/2000/svg" xmlns:xlink="http://www.w3.org/1999/xlink" version="1.1" class="marks" width="400" height="400" viewBox="0 0 400 400"><g fill="none" stroke-miterlimit="10" transform="translate(50,50)"><g class="mark-group role-frame root" role="graphics-object" aria-roledescription="group mark container"><g transform="translate(150,150)"><path class="background" aria-hidden="true" d="M0,0h300v300h-300Z"/><g><g class="mark-rule role-mark radial-grid" role="graphics-symbol" aria-roledescription="rule mark container"><line transform="translate(0,0)" x2="-129.90381056766577" y2="-75.00000000000006" stroke="lightgray" stroke-width="1"/><line transform="translate(0,0)" x2="4.2491541732359845e-14" y2="-150" stroke="lightgray" stroke-width="1"/><line transform="translate(0,0)" x2="129.9038105676658" y2="-74.99999999999997" stroke="lightgray" stroke-width="1"/><line transform="translate(0,0)" x2="129.90381056766577" y2="75.00000000000003" stroke="lightgray" stroke-width="1"/><line transform="translate(0,0)" x2="9.184850993605149e-15" y2="150" stroke="lightgray" stroke-width="1"/><line transform="translate(0,0)" x2="-129.90381056766577" y2="75.00000000000006" stroke="lightgray" stroke-width="1"/></g><g class="mark-group role-scope categories" role="graphics-object" aria-roledescription="group mark container"><g transform="translate(0,0)"><path class="background" aria-hidden="true" d="M0,0h0v0h0Z"/><g><g class="mark-line role-mark category-line" role="graphics-symbol" aria-roledescription="line mark container"><path d="M-77.631,-44.82L0,-73.41L46.817,-27.03L35.1,20.265L0,17.85L-12.367,7.14Z" fill="#A1D6CB" fill-opacity="0.8" stroke="#A1D6CB" stroke-width="2"/></g><g class="mark-symbol role-mark category-point" role="graphics-symbol" aria-roledescription="symbol mark container"><path transform="translate(-77.63051719523706,-44.82000000000003)" d="M3.536,0A3.536,3.536,0,1,1,-3.536,0A3.536,3.536,0,1,1,3.536,0" fill="#A1D6CB" stroke="white" stroke-width="1"/><path transform="translate(2.079536052381691e-14,-73.41)" d="M3.536,0A3.536,3.536,0,1,1,-3.536,0A3.536,3.536,0,1,1,3.536,0" fill="#A1D6CB" stroke="white" stroke-width="1"/><path transform="translate(46.817333328586756,-27.02999999999999)" d="M3.536,0A3.536,3.536,0,1,1,-3.536,0A3.536,3.536,0,1,1,3.536,0" fill="#A1D6CB" stroke="white" stroke-width="1"/><path transform="translate(35.10000961538329,20.26500000000001)" d="M3.536,0A3.536,3.536,0,1,1,-3.536,0A3.536,3.536,0,1,1,3.536,0" fill="#A1D6CB" stroke="white" stroke-width="1"/><path transform="translate(1.0929972682390129e-15,17.85)" d="M3.536,0A3.536,3.536,0,1,1,-3.536,0A3.536,3.536,0,1,1,3.536,0" fill="#A1D6CB" stroke="white" stroke-width="1"/><path transform="translate(-12.366842766041781,7.140000000000004)" d="M3.536,0A3.536,3.536,0,1,1,-3.536,0A3.536,3.536,0,1,1,3.536,0" fill="#A1D6CB" stroke="white" stroke-width="1"/></g><g class="mark-text role-mark value-text" role="graphics-object" aria-roledescription="text mark container"><text text-anchor="end" transform="translate(-82.63051719523706,-28.82000000000003)" font-family="Arial, sans-serif" font-size="14px" fill="#ffffff">30%</text><text text-anchor="start" transform="translate(2.079536052381691e-14,-57.41)" font-family="Arial, sans-serif" font-size="14px" fill="#ffffff">24%</text><text text-anchor="start" transform="translate(46.817333328586756,-11.02999999999999)" font-family="Arial, sans-serif" font-size="14px" fill="#ffffff">18%</text><text text-anchor="start" transform="translate(35.10000961538329,12.265000000000011)" font-family="Arial, sans-serif" font-size="14px" fill="#ffffff">14%</text><text text-anchor="start" transform="translate(1.0929972682390129e-15,9.850000000000001)" font-family="Arial, sans-serif" font-size="14px" fill="#ffffff">6%</text><text text-anchor="end" transform="translate(-17.36684276604178,-0.8599999999999959)" font-family="Arial, sans-serif" font-size="14px" fill="#ffffff"/></g></g><path class="foreground" aria-hidden="true" d="" display="none"/></g><g transform="translate(0,0)"><path class="background" aria-hidden="true" d="M0,0h0v0h0Z"/><g><g class="mark-line role-mark category-line" role="graphics-symbol" aria-roledescription="line mark container"><path d="M-2.156,-1.245L0,0L0,0L129.904,75L0,79.02L0,0Z" fill="#FFF574" fill-opacity="0.8" stroke="#FFF574" stroke-width="2"/></g><g class="mark-symbol role-mark category-point" role="graphics-symbol" aria-roledescription="symbol mark container"><path transform="translate(-2.156403255423252,-1.245000000000001)" d="M3.536,0A3.536,3.536,0,1,1,-3.536,0A3.536,3.536,0,1,1,3.536,0" fill="#FFF574" stroke="white" stroke-width="1"/><path transform="translate(0,0)" d="M3.536,0A3.536,3.536,0,1,1,-3.536,0A3.536,3.536,0,1,1,3.536,0" fill="#FFF574" stroke="white" stroke-width="1"/><path transform="translate(0,0)" d="M3.536,0A3.536,3.536,0,1,1,-3.536,0A3.536,3.536,0,1,1,3.536,0" fill="#FFF574" stroke="white" stroke-width="1"/><path transform="translate(129.90381056766577,75.00000000000003)" d="M3.536,0A3.536,3.536,0,1,1,-3.536,0A3.536,3.536,0,1,1,3.536,0" fill="#FFF574" stroke="white" stroke-width="1"/><path transform="translate(4.838579503431193e-15,79.02000000000001)" d="M3.536,0A3.536,3.536,0,1,1,-3.536,0A3.536,3.536,0,1,1,3.536,0" fill="#FFF574" stroke="white" stroke-width="1"/><path transform="translate(0,0)" d="M3.536,0A3.536,3.536,0,1,1,-3.536,0A3.536,3.536,0,1,1,3.536,0" fill="#FFF574" stroke="white" stroke-width="1"/></g><g class="mark-text role-mark value-text" role="graphics-object" aria-roledescription="text mark container"><text text-anchor="end" transform="translate(-7.1564032554232515,14.754999999999999)" font-family="Arial, sans-serif" font-size="14px" fill="#ffffff"/><text text-anchor="start" transform="translate(0,16)" font-family="Arial, sans-serif" font-size="14px" fill="#ffffff"/><text text-anchor="start" transform="translate(0,16)" font-family="Arial, sans-serif" font-size="14px" fill="#ffffff"/><text text-anchor="start" transform="translate(129.90381056766577,67.00000000000003)" font-family="Arial, sans-serif" font-size="14px" fill="#ffffff">60%</text><text text-anchor="start" transform="translate(4.838579503431193e-15,71.02000000000001)" font-family="Arial, sans-serif" font-size="14px" fill="#ffffff">26%</text><text text-anchor="end" transform="translate(-5,-8)" font-family="Arial, sans-serif" font-size="14px" fill="#ffffff"/></g></g><path class="foreground" aria-hidden="true" d="" display="none"/></g></g><g class="mark-text role-mark key-label" role="graphics-object" aria-roledescription="text mark container"><text text-anchor="end" transform="translate(-142.89419162443235,-85.50000000000006)" font-family="Arial, sans-serif" font-size="14px" fill="#666666">onshape-robotics-toolkit</text><text text-anchor="start" transform="translate(4.6740695905595834e-14,-168)" font-family="Arial, sans-serif" font-size="14px" fill="#666666">umv-codesign</text><text text-anchor="start" transform="translate(142.89419162443238,-85.49999999999997)" font-family="Arial, sans-serif" font-size="14px" fill="#666666">ballbot-mujoco</text><text text-anchor="start" transform="translate(142.89419162443235,93.50000000000004)" font-family="Arial, sans-serif" font-size="14px" fill="#666666">senthurayyappan</text><text text-anchor="start" transform="translate(1.0103336092965664e-14,176)" font-family="Arial, sans-serif" font-size="14px" fill="#666666">neurobionicspi</text><text text-anchor="end" transform="translate(-142.89419162443235,93.50000000000006)" font-family="Arial, sans-serif" font-size="14px" fill="#666666">onshape-api</text></g></g><path class="foreground" aria-hidden="true" d="" display="none"/></g></g></g></svg>