<svg xmlns="http://www.w3.org/2000/svg" xmlns:xlink="http://www.w3.org/1999/xlink" version="1.1" class="marks" width="400" height="400" viewBox="0 0 400 400"><g fill="none" stroke-miterlimit="10" transform="translate(80,80)"><g class="mark-group role-frame root" role="graphics-object" aria-roledescription="group mark container"><g transform="translate(120,120)"><path class="background" aria-hidden="true" d="M0,0h240v240h-240Z"/><g><g class="mark-rule role-mark radial-grid" role="graphics-symbol" aria-roledescription="rule mark container"><line transform="translate(0,0)" x2="-103.92304845413261" y2="-60.00000000000004" stroke="gray" stroke-width="1"/><line transform="translate(0,0)" x2="3.399323338588788e-14" y2="-120" stroke="gray" stroke-width="1"/><line transform="translate(0,0)" x2="103.92304845413264" y2="-59.99999999999998" stroke="gray" stroke-width="1"/><line transform="translate(0,0)" x2="103.92304845413261" y2="60.00000000000003" stroke="gray" stroke-width="1"/><line transform="translate(0,0)" x2="7.34788079488412e-15" y2="120" stroke="gray" stroke-width="1"/><line transform="translate(0,0)" x2="-103.92304845413261" y2="60.00000000000004" stroke="gray" stroke-width="1"/></g><g class="mark-group role-scope categories" role="graphics-object" aria-roledescription="group mark container"><g transform="translate(0,0)"><path class="background" aria-hidden="true" d="M0,0h0v0h0Z"/><g><g class="mark-line role-mark category-line" role="graphics-symbol" aria-roledescription="line mark container"><path d="M-59.527,-34.368L0,-56.304L35.895,-20.724L35.5,20.496L0,13.68L-9.499,5.484Z" fill="#0f452d" fill-opacity="0.6" stroke="#0f452d" stroke-width="2"/></g><g class="mark-symbol role-mark category-point" role="graphics-symbol" aria-roledescription="symbol mark container"><path transform="translate(-59.527122154527156,-34.368000000000016)" d="M3.536,0A3.536,3.536,0,1,1,-3.536,0A3.536,3.536,0,1,1,3.536,0" fill="#0f452d" stroke="white" stroke-width="1"/><path transform="translate(1.5949625104658592e-14,-56.304)" d="M3.536,0A3.536,3.536,0,1,1,-3.536,0A3.536,3.536,0,1,1,3.536,0" fill="#0f452d" stroke="white" stroke-width="1"/><path transform="translate(35.89502093605741,-20.723999999999993)" d="M3.536,0A3.536,3.536,0,1,1,-3.536,0A3.536,3.536,0,1,1,3.536,0" fill="#0f452d" stroke="white" stroke-width="1"/><path transform="translate(35.5001133519317,20.49600000000001)" d="M3.536,0A3.536,3.536,0,1,1,-3.536,0A3.536,3.536,0,1,1,3.536,0" fill="#0f452d" stroke="white" stroke-width="1"/><path transform="translate(8.376584106167896e-16,13.68)" d="M3.536,0A3.536,3.536,0,1,1,-3.536,0A3.536,3.536,0,1,1,3.536,0" fill="#0f452d" stroke="white" stroke-width="1"/><path transform="translate(-9.498566628707723,5.484000000000004)" d="M3.536,0A3.536,3.536,0,1,1,-3.536,0A3.536,3.536,0,1,1,3.536,0" fill="#0f452d" stroke="white" stroke-width="1"/></g><g class="mark-text role-mark value-text" role="graphics-object" aria-roledescription="text mark container"><text text-anchor="end" transform="translate(-64.52712215452715,-20.368000000000016)" font-family="Arial, sans-serif" font-size="12px" fill="#bfc6cc">29%</text><text text-anchor="start" transform="translate(1.5949625104658592e-14,-42.304)" font-family="Arial, sans-serif" font-size="12px" fill="#bfc6cc">23%</text><text text-anchor="start" transform="translate(35.89502093605741,-6.723999999999993)" font-family="Arial, sans-serif" font-size="12px" fill="#bfc6cc">17%</text><text text-anchor="start" transform="translate(35.5001133519317,12.49600000000001)" font-family="Arial, sans-serif" font-size="12px" fill="#bfc6cc">17%</text><text text-anchor="start" transform="translate(8.376584106167896e-16,5.68)" font-family="Arial, sans-serif" font-size="12px" fill="#bfc6cc">6%</text><text text-anchor="end" transform="translate(-14.498566628707723,-2.5159999999999956)" font-family="Arial, sans-serif" font-size="12px" fill="#bfc6cc"/></g></g><path class="foreground" aria-hidden="true" d="" display="none"/></g><g transform="translate(0,0)"><path class="background" aria-hidden="true" d="M0,0h0v0h0Z"/><g><g class="mark-line role-mark category-line" role="graphics-symbol" aria-roledescription="line mark container"><path d="M-1.434,-0.828L0,0L0,0L103.923,60L0,53.088L0,0Z" fill="#31b74c" fill-opacity="0.6" stroke="#31b74c" stroke-width="2"/></g><g class="mark-symbol role-mark category-point" role="graphics-symbol" aria-roledescription="symbol mark container"><path transform="translate(-1.43413806866703,-0.8280000000000005)" d="M3.536,0A3.536,3.536,0,1,1,-3.536,0A3.536,3.536,0,1,1,3.536,0" fill="#31b74c" stroke="white" stroke-width="1"/><path transform="translate(0,0)" d="M3.536,0A3.536,3.536,0,1,1,-3.536,0A3.536,3.536,0,1,1,3.536,0" fill="#31b74c" stroke="white" stroke-width="1"/><path transform="translate(0,0)" d="M3.536,0A3.536,3.536,0,1,1,-3.536,0A3.536,3.536,0,1,1,3.536,0" fill="#31b74c" stroke="white" stroke-width="1"/><path transform="translate(103.92304845413261,60.00000000000003)" d="M3.536,0A3.536,3.536,0,1,1,-3.536,0A3.536,3.536,0,1,1,3.536,0" fill="#31b74c" stroke="white" stroke-width="1"/><path transform="translate(3.2507024636567345e-15,53.088)" d="M3.536,0A3.536,3.536,0,1,1,-3.536,0A3.536,3.536,0,1,1,3.536,0" fill="#31b74c" stroke="white" stroke-width="1"/><path transform="translate(0,0)" d="M3.536,0A3.536,3.536,0,1,1,-3.536,0A3.536,3.536,0,1,1,3.536,0" fill="#31b74c" stroke="white" stroke-width="1"/></g><g class="mark-text role-mark value-text" role="graphics-object" aria-roledescription="text mark container"><text text-anchor="end" transform="translate(-6.43413806866703,13.171999999999999)" font-family="Arial, sans-serif" font-size="12px" fill="#bfc6cc"/><text text-anchor="start" transform="translate(0,14)" font-family="Arial, sans-serif" font-size="12px" fill="#bfc6cc"/><text text-anchor="start" transform="translate(0,14)" font-family="Arial, sans-serif" font-size="12px" fill="#bfc6cc"/><text text-anchor="start" transform="translate(103.92304845413261,52.00000000000003)" font-family="Arial, sans-serif" font-size="12px" fill="#bfc6cc">66%</text><text text-anchor="start" transform="translate(3.2507024636567345e-15,45.088)" font-family="Arial, sans-serif" font-size="12px" fill="#bfc6cc">22%</text><text text-anchor="end" transform="translate(-5,-8)" font-family="Arial, sans-serif" font-size="12px" fill="#bfc6cc"/></g></g><path class="foreground" aria-hidden="true" d="" display="none"/></g></g><g class="mark-text role-mark key-label" role="graphics-object" aria-roledescription="text mark container"><text text-anchor="end" transform="translate(-116.91342951089919,-70.50000000000004)" font-family="Arial, sans-serif" font-size="12px" fill="#3c444c"><tspan>onshape</tspan><tspan x="0" dy="12">robotics</tspan><tspan x="0" dy="12">toolkit</tspan></text><text text-anchor="start" transform="translate(3.824238755912386e-14,-138)" font-family="Arial, sans-serif" font-size="12px" fill="#3c444c"><tspan>umv</tspan><tspan x="0" dy="12">codesign</tspan></text><text text-anchor="start" transform="translate(116.91342951089922,-70.49999999999997)" font-family="Arial, sans-serif" font-size="12px" fill="#3c444c"><tspan>ballbot</tspan><tspan x="0" dy="12">mujoco</tspan></text><text text-anchor="start" transform="translate(116.91342951089919,76.50000000000003)" font-family="Arial, sans-serif" font-size="12px" fill="#3c444c"><tspan>senthurayy</tspan><tspan x="0" dy="12">appan</tspan></text><text text-anchor="start" transform="translate(8.266365894244634e-15,144)" font-family="Arial, sans-serif" font-size="12px" fill="#3c444c"><tspan>neurobioni</tspan><tspan x="0" dy="12">cspi</tspan></text><text text-anchor="end" transform="translate(-116.91342951089919,76.50000000000004)" font-family="Arial, sans-serif" font-size="12px" fill="#3c444c"><tspan>onshape</tspan><tspan x="0" dy="12">api</tspan></text></g></g><path class="foreground" aria-hidden="true" d="" display="none"/></g></g></g></svg>