<svg xmlns="http://www.w3.org/2000/svg" xmlns:xlink="http://www.w3.org/1999/xlink" version="1.1" class="marks" width="400" height="400" viewBox="0 0 400 400"><g fill="none" stroke-miterlimit="10" transform="translate(60,60)"><g class="mark-group role-frame root" role="graphics-object" aria-roledescription="group mark container"><g transform="translate(140,140)"><path class="background" aria-hidden="true" d="M0,0h280v280h-280Z"/><g><g class="mark-rule role-mark radial-grid" role="graphics-symbol" aria-roledescription="rule mark container"><line transform="translate(0,0)" x2="-121.24355652982139" y2="-70.00000000000004" stroke="gray" stroke-width="1"/><line transform="translate(0,0)" x2="3.9658772283535856e-14" y2="-140" stroke="gray" stroke-width="1"/><line transform="translate(0,0)" x2="121.24355652982142" y2="-69.99999999999997" stroke="gray" stroke-width="1"/><line transform="translate(0,0)" x2="121.24355652982139" y2="70.00000000000003" stroke="gray" stroke-width="1"/><line transform="translate(0,0)" x2="8.572527594031473e-15" y2="140" stroke="gray" stroke-width="1"/><line transform="translate(0,0)" x2="-121.24355652982139" y2="70.00000000000004" stroke="gray" stroke-width="1"/></g><g class="mark-group role-scope categories" role="graphics-object" aria-roledescription="group mark container"><g transform="translate(0,0)"><path class="background" aria-hidden="true" d="M0,0h0v0h0Z"/><g><g class="mark-line role-mark category-line" role="graphics-symbol" aria-roledescription="line mark container"><path d="M-65.738,-37.954L0,-62.188L52.183,-30.128L39.647,22.89L0,15.12L-10.475,6.048Z" fill="#0f452d" fill-opacity="0.6" stroke="#0f452d" stroke-width="2"/></g><g class="mark-symbol role-mark category-point" role="graphics-symbol" aria-roledescription="symbol mark container"><path transform="translate(-65.73825635046916,-37.95400000000003)" d="M3.536,0A3.536,3.536,0,1,1,-3.536,0A3.536,3.536,0,1,1,3.536,0" fill="#0f452d" stroke="white" stroke-width="1"/><path transform="translate(1.761642664834663e-14,-62.188)" d="M3.536,0A3.536,3.536,0,1,1,-3.536,0A3.536,3.536,0,1,1,3.536,0" fill="#0f452d" stroke="white" stroke-width="1"/><path transform="translate(52.18322673043514,-30.12799999999999)" d="M3.536,0A3.536,3.536,0,1,1,-3.536,0A3.536,3.536,0,1,1,3.536,0" fill="#0f452d" stroke="white" stroke-width="1"/><path transform="translate(39.646642985251596,22.89000000000001)" d="M3.536,0A3.536,3.536,0,1,1,-3.536,0A3.536,3.536,0,1,1,3.536,0" fill="#0f452d" stroke="white" stroke-width="1"/><path transform="translate(9.25832980155399e-16,15.120000000000001)" d="M3.536,0A3.536,3.536,0,1,1,-3.536,0A3.536,3.536,0,1,1,3.536,0" fill="#0f452d" stroke="white" stroke-width="1"/><path transform="translate(-10.475443284176569,6.0480000000000045)" d="M3.536,0A3.536,3.536,0,1,1,-3.536,0A3.536,3.536,0,1,1,3.536,0" fill="#0f452d" stroke="white" stroke-width="1"/></g><g class="mark-text role-mark value-text" role="graphics-object" aria-roledescription="text mark container"><text text-anchor="end" transform="translate(-70.73825635046916,-23.95400000000003)" font-family="Arial, sans-serif" font-size="12px" fill="#7c848c">27%</text><text text-anchor="start" transform="translate(1.761642664834663e-14,-48.188)" font-family="Arial, sans-serif" font-size="12px" fill="#7c848c">22%</text><text text-anchor="start" transform="translate(52.18322673043514,-16.12799999999999)" font-family="Arial, sans-serif" font-size="12px" fill="#7c848c">22%</text><text text-anchor="start" transform="translate(39.646642985251596,14.890000000000011)" font-family="Arial, sans-serif" font-size="12px" fill="#7c848c">16%</text><text text-anchor="start" transform="translate(9.25832980155399e-16,7.120000000000001)" font-family="Arial, sans-serif" font-size="12px" fill="#7c848c">5%</text><text text-anchor="end" transform="translate(-15.475443284176569,-1.9519999999999955)" font-family="Arial, sans-serif" font-size="12px" fill="#7c848c"/></g></g><path class="foreground" aria-hidden="true" d="" display="none"/></g><g transform="translate(0,0)"><path class="background" aria-hidden="true" d="M0,0h0v0h0Z"/><g><g class="mark-line role-mark category-line" role="graphics-symbol" aria-roledescription="line mark container"><path d="M0,0L0,0L121.244,-70L0,0L0,51.1L0,0Z" fill="#31b74c" fill-opacity="0.6" stroke="#31b74c" stroke-width="2"/></g><g class="mark-symbol role-mark category-point" role="graphics-symbol" aria-roledescription="symbol mark container"><path transform="translate(0,0)" d="M3.536,0A3.536,3.536,0,1,1,-3.536,0A3.536,3.536,0,1,1,3.536,0" fill="#31b74c" stroke="white" stroke-width="1"/><path transform="translate(0,0)" d="M3.536,0A3.536,3.536,0,1,1,-3.536,0A3.536,3.536,0,1,1,3.536,0" fill="#31b74c" stroke="white" stroke-width="1"/><path transform="translate(121.24355652982142,-69.99999999999997)" d="M3.536,0A3.536,3.536,0,1,1,-3.536,0A3.536,3.536,0,1,1,3.536,0" fill="#31b74c" stroke="white" stroke-width="1"/><path transform="translate(0,0)" d="M3.536,0A3.536,3.536,0,1,1,-3.536,0A3.536,3.536,0,1,1,3.536,0" fill="#31b74c" stroke="white" stroke-width="1"/><path transform="translate(3.1289725718214877e-15,51.1)" d="M3.536,0A3.536,3.536,0,1,1,-3.536,0A3.536,3.536,0,1,1,3.536,0" fill="#31b74c" stroke="white" stroke-width="1"/><path transform="translate(0,0)" d="M3.536,0A3.536,3.536,0,1,1,-3.536,0A3.536,3.536,0,1,1,3.536,0" fill="#31b74c" stroke="white" stroke-width="1"/></g><g class="mark-text role-mark value-text" role="graphics-object" aria-roledescription="text mark container"><text text-anchor="end" transform="translate(-5,14)" font-family="Arial, sans-serif" font-size="12px" fill="#7c848c"/><text text-anchor="start" transform="translate(0,14)" font-family="Arial, sans-serif" font-size="12px" fill="#7c848c"/><text text-anchor="start" transform="translate(121.24355652982142,-55.99999999999997)" font-family="Arial, sans-serif" font-size="12px" fill="#7c848c">73%</text><text text-anchor="start" transform="translate(0,-8)" font-family="Arial, sans-serif" font-size="12px" fill="#7c848c"/><text text-anchor="start" transform="translate(3.1289725718214877e-15,43.1)" font-family="Arial, sans-serif" font-size="12px" fill="#7c848c">18%</text><text text-anchor="end" transform="translate(-5,-8)" font-family="Arial, sans-serif" font-size="12px" fill="#7c848c"/></g></g><path class="foreground" aria-hidden="true" d="" display="none"/></g></g><g class="mark-text role-mark key-label" role="graphics-object" aria-roledescription="text mark container"><text text-anchor="end" transform="translate(-134.23393758658796,-80.50000000000006)" font-family="Arial, sans-serif" font-size="12px" fill="#bfc6cc"><tspan>onshape</tspan><tspan x="0" dy="12">robotics</tspan><tspan x="0" dy="12">toolkit</tspan></text><text text-anchor="start" transform="translate(4.390792645677184e-14,-158)" font-family="Arial, sans-serif" font-size="12px" fill="#bfc6cc"><tspan>umv</tspan><tspan x="0" dy="12">codesign</tspan></text><text text-anchor="start" transform="translate(134.233937586588,-80.49999999999997)" font-family="Arial, sans-serif" font-size="12px" fill="#bfc6cc"><tspan>senthurayy</tspan><tspan x="0" dy="12">appan</tspan></text><text text-anchor="start" transform="translate(134.23393758658796,86.50000000000003)" font-family="Arial, sans-serif" font-size="12px" fill="#bfc6cc"><tspan>ballbot</tspan><tspan x="0" dy="12">mujoco</tspan></text><text text-anchor="start" transform="translate(9.491012693391987e-15,164)" font-family="Arial, sans-serif" font-size="12px" fill="#bfc6cc"><tspan>neurobioni</tspan><tspan x="0" dy="12">cspi</tspan></text><text text-anchor="end" transform="translate(-134.23393758658796,86.50000000000006)" font-family="Arial, sans-serif" font-size="12px" fill="#bfc6cc"><tspan>onshape</tspan><tspan x="0" dy="12">api</tspan></text></g></g><path class="foreground" aria-hidden="true" d="" display="none"/></g></g></g></svg>