<svg xmlns="http://www.w3.org/2000/svg" xmlns:xlink="http://www.w3.org/1999/xlink" version="1.1" class="marks" width="400" height="400" viewBox="0 0 400 400"><g fill="none" stroke-miterlimit="10" transform="translate(80,80)"><g class="mark-group role-frame root" role="graphics-object" aria-roledescription="group mark container"><g transform="translate(120,120)"><path class="background" aria-hidden="true" d="M0,0h240v240h-240Z"/><g><g class="mark-rule role-mark radial-grid" role="graphics-symbol" aria-roledescription="rule mark container"><line transform="translate(0,0)" x2="-103.92304845413261" y2="-60.00000000000004" stroke="gray" stroke-width="1"/><line transform="translate(0,0)" x2="3.399323338588788e-14" y2="-120" stroke="gray" stroke-width="1"/><line transform="translate(0,0)" x2="103.92304845413264" y2="-59.99999999999998" stroke="gray" stroke-width="1"/><line transform="translate(0,0)" x2="103.92304845413261" y2="60.00000000000003" stroke="gray" stroke-width="1"/><line transform="translate(0,0)" x2="7.34788079488412e-15" y2="120" stroke="gray" stroke-width="1"/><line transform="translate(0,0)" x2="-103.92304845413261" y2="60.00000000000004" stroke="gray" stroke-width="1"/></g><g class="mark-group role-scope categories" role="graphics-object" aria-roledescription="group mark container"><g transform="translate(0,0)"><path class="background" aria-hidden="true" d="M0,0h0v0h0Z"/><g><g class="mark-line role-mark category-line" role="graphics-symbol" aria-roledescription="line mark container"><path d="M-61.19,-35.328L0,-57.888L36.913,-21.312L30.699,17.724L0,14.064L-9.748,5.628Z" fill="#0f452d" fill-opacity="0.6" stroke="#0f452d" stroke-width="2"/></g><g class="mark-symbol role-mark category-point" role="graphics-symbol" aria-roledescription="symbol mark container"><path transform="translate(-61.18989092979329,-35.328000000000024)" d="M3.536,0A3.536,3.536,0,1,1,-3.536,0A3.536,3.536,0,1,1,3.536,0" fill="#0f452d" stroke="white" stroke-width="1"/><path transform="translate(1.6398335785352312e-14,-57.888)" d="M3.536,0A3.536,3.536,0,1,1,-3.536,0A3.536,3.536,0,1,1,3.536,0" fill="#0f452d" stroke="white" stroke-width="1"/><path transform="translate(36.91346681090792,-21.311999999999994)" d="M3.536,0A3.536,3.536,0,1,1,-3.536,0A3.536,3.536,0,1,1,3.536,0" fill="#0f452d" stroke="white" stroke-width="1"/><path transform="translate(30.698868513350774,17.724000000000007)" d="M3.536,0A3.536,3.536,0,1,1,-3.536,0A3.536,3.536,0,1,1,3.536,0" fill="#0f452d" stroke="white" stroke-width="1"/><path transform="translate(8.611716291604188e-16,14.064000000000002)" d="M3.536,0A3.536,3.536,0,1,1,-3.536,0A3.536,3.536,0,1,1,3.536,0" fill="#0f452d" stroke="white" stroke-width="1"/><path transform="translate(-9.74798194499764,5.628000000000004)" d="M3.536,0A3.536,3.536,0,1,1,-3.536,0A3.536,3.536,0,1,1,3.536,0" fill="#0f452d" stroke="white" stroke-width="1"/></g><g class="mark-text role-mark value-text" role="graphics-object" aria-roledescription="text mark container"><text text-anchor="end" transform="translate(-66.1898909297933,-21.328000000000024)" font-family="Arial, sans-serif" font-size="12px" fill="#bfc6cc">29%</text><text text-anchor="start" transform="translate(1.6398335785352312e-14,-43.888)" font-family="Arial, sans-serif" font-size="12px" fill="#bfc6cc">24%</text><text text-anchor="start" transform="translate(36.91346681090792,-7.311999999999994)" font-family="Arial, sans-serif" font-size="12px" fill="#bfc6cc">18%</text><text text-anchor="start" transform="translate(30.698868513350774,9.724000000000007)" font-family="Arial, sans-serif" font-size="12px" fill="#bfc6cc">15%</text><text text-anchor="start" transform="translate(8.611716291604188e-16,6.064000000000002)" font-family="Arial, sans-serif" font-size="12px" fill="#bfc6cc">6%</text><text text-anchor="end" transform="translate(-14.74798194499764,-2.3719999999999963)" font-family="Arial, sans-serif" font-size="12px" fill="#bfc6cc"/></g></g><path class="foreground" aria-hidden="true" d="" display="none"/></g><g transform="translate(0,0)"><path class="background" aria-hidden="true" d="M0,0h0v0h0Z"/><g><g class="mark-line role-mark category-line" role="graphics-symbol" aria-roledescription="line mark container"><path d="M-1.621,-0.936L0,0L0,0L103.923,60L0,59.352L0,0Z" fill="#31b74c" fill-opacity="0.6" stroke="#31b74c" stroke-width="2"/></g><g class="mark-symbol role-mark category-point" role="graphics-symbol" aria-roledescription="symbol mark container"><path transform="translate(-1.621199555884469,-0.9360000000000007)" d="M3.536,0A3.536,3.536,0,1,1,-3.536,0A3.536,3.536,0,1,1,3.536,0" fill="#31b74c" stroke="white" stroke-width="1"/><path transform="translate(0,0)" d="M3.536,0A3.536,3.536,0,1,1,-3.536,0A3.536,3.536,0,1,1,3.536,0" fill="#31b74c" stroke="white" stroke-width="1"/><path transform="translate(0,0)" d="M3.536,0A3.536,3.536,0,1,1,-3.536,0A3.536,3.536,0,1,1,3.536,0" fill="#31b74c" stroke="white" stroke-width="1"/><path transform="translate(103.92304845413261,60.00000000000003)" d="M3.536,0A3.536,3.536,0,1,1,-3.536,0A3.536,3.536,0,1,1,3.536,0" fill="#31b74c" stroke="white" stroke-width="1"/><path transform="translate(3.6342618411496856e-15,59.352)" d="M3.536,0A3.536,3.536,0,1,1,-3.536,0A3.536,3.536,0,1,1,3.536,0" fill="#31b74c" stroke="white" stroke-width="1"/><path transform="translate(0,0)" d="M3.536,0A3.536,3.536,0,1,1,-3.536,0A3.536,3.536,0,1,1,3.536,0" fill="#31b74c" stroke="white" stroke-width="1"/></g><g class="mark-text role-mark value-text" role="graphics-object" aria-roledescription="text mark container"><text text-anchor="end" transform="translate(-6.621199555884469,13.064)" font-family="Arial, sans-serif" font-size="12px" fill="#bfc6cc"/><text text-anchor="start" transform="translate(0,14)" font-family="Arial, sans-serif" font-size="12px" fill="#bfc6cc"/><text text-anchor="start" transform="translate(0,14)" font-family="Arial, sans-serif" font-size="12px" fill="#bfc6cc"/><text text-anchor="start" transform="translate(103.92304845413261,52.00000000000003)" font-family="Arial, sans-serif" font-size="12px" fill="#bfc6cc">62%</text><text text-anchor="start" transform="translate(3.6342618411496856e-15,51.352)" font-family="Arial, sans-serif" font-size="12px" fill="#bfc6cc">25%</text><text text-anchor="end" transform="translate(-5,-8)" font-family="Arial, sans-serif" font-size="12px" fill="#bfc6cc"/></g></g><path class="foreground" aria-hidden="true" d="" display="none"/></g></g><g class="mark-text role-mark key-label" role="graphics-object" aria-roledescription="text mark container"><text text-anchor="end" transform="translate(-116.91342951089919,-70.50000000000004)" font-family="Arial, sans-serif" font-size="12px" fill="#7c848c">onshape-robotics-toolkit</text><text text-anchor="start" transform="translate(3.824238755912386e-14,-138)" font-family="Arial, sans-serif" font-size="12px" fill="#7c848c">umv-codesign</text><text text-anchor="start" transform="translate(116.91342951089922,-70.49999999999997)" font-family="Arial, sans-serif" font-size="12px" fill="#7c848c">ballbot-mujoco</text><text text-anchor="start" transform="translate(116.91342951089919,76.50000000000003)" font-family="Arial, sans-serif" font-size="12px" fill="#7c848c">senthurayyappan</text><text text-anchor="start" transform="translate(8.266365894244634e-15,144)" font-family="Arial, sans-serif" font-size="12px" fill="#7c848c">neurobionicspi</text><text text-anchor="end" transform="translate(-116.91342951089919,76.50000000000004)" font-family="Arial, sans-serif" font-size="12px" fill="#7c848c">onshape-api</text></g></g><path class="foreground" aria-hidden="true" d="" display="none"/></g></g></g></svg>