<svg xmlns="http://www.w3.org/2000/svg" xmlns:xlink="http://www.w3.org/1999/xlink" version="1.1" class="marks" width="604" height="201" viewBox="0 0 604 201"><g fill="none" stroke-miterlimit="10" transform="translate(182,5)"><g class="mark-group role-frame root" role="graphics-object" aria-roledescription="group mark container"><g transform="translate(0,0)"><path class="background" aria-hidden="true" d="M0,0h400v144h-400Z"/><g><g class="mark-group role-axis" role="graphics-symbol" aria-roledescription="axis" aria-label="Y-axis for a discrete scale with 6 values: onshape-robotics-toolkit, umv-codesign, senthurayyappan, ballbot-mujoco, neurobionicspi, onshape-api"><g transform="translate(0.5,0.5)"><path class="background" aria-hidden="true" d="M0,0h0v0h0Z" pointer-events="none"/><g><g class="mark-text role-axis-label" pointer-events="none"><text text-anchor="end" transform="translate(-5,17.435483870967737)" font-family="Arial, sans-serif" font-size="12px" fill="#bfc6cc" opacity="1">onshape-robotics-…</text><text text-anchor="end" transform="translate(-5,40.66129032258064)" font-family="Arial, sans-serif" font-size="12px" fill="#bfc6cc" opacity="1">umv-codesign</text><text text-anchor="end" transform="translate(-5,63.887096774193544)" font-family="Arial, sans-serif" font-size="12px" fill="#bfc6cc" opacity="1">senthurayyappan</text><text text-anchor="end" transform="translate(-5,87.11290322580646)" font-family="Arial, sans-serif" font-size="12px" fill="#bfc6cc" opacity="1">ballbot-mujoco</text><text text-anchor="end" transform="translate(-5,110.33870967741936)" font-family="Arial, sans-serif" font-size="12px" fill="#bfc6cc" opacity="1">neurobionicspi</text><text text-anchor="end" transform="translate(-5,133.56451612903226)" font-family="Arial, sans-serif" font-size="12px" fill="#bfc6cc" opacity="1">onshape-api</text></g></g><path class="foreground" aria-hidden="true" d="" pointer-events="none" display="none"/></g></g><g class="mark-rect role-mark" role="graphics-symbol" aria-roledescription="rect mark container"><path d="M383.69599999999997,4.6451612903225765h0v18.580645161290324h0Z" fill="#31b74c"/><path d="M0,4.6451612903225765h383.69599999999997v18.580645161290324h-383.69599999999997Z" fill="#0f452d"/><path d="M314.312,27.87096774193548h0v18.580645161290324h0Z" fill="#31b74c"/><path d="M0,27.87096774193548h314.312v18.580645161290324h-314.312Z" fill="#0f452d"/><path d="M0,51.096774193548384h294.956v18.580645161290324h-294.956Z" fill="#31b74c"/><path d="M0,51.096774193548384h0v18.580645161290324h0Z" fill="#0f452d"/><path d="M231.384,74.3225806451613h0v18.580645161290324h0Z" fill="#31b74c"/><path d="M0,74.3225806451613h231.384v18.580645161290324h-231.384Z" fill="#0f452d"/><path d="M0,97.54838709677419h76.412v18.580645161290324h-76.412Z" fill="#31b74c"/><path d="M0,97.54838709677419h0v18.580645161290324h0Z" fill="#0f452d"/><path d="M61.175999999999995,120.77419354838709h0v18.580645161290324h0Z" fill="#31b74c"/><path d="M0,120.77419354838709h61.175999999999995v18.580645161290324h-61.175999999999995Z" fill="#0f452d"/></g><g class="mark-text role-mark" role="graphics-object" aria-roledescription="text mark container"><text text-anchor="start" transform="translate(388.69599999999997,17.935483870967737)" font-family="Arial, sans-serif" font-size="12px" fill="#bfc6cc">27h</text><text text-anchor="start" transform="translate(319.312,41.16129032258064)" font-family="Arial, sans-serif" font-size="12px" fill="#bfc6cc">22h</text><text text-anchor="start" transform="translate(299.956,64.38709677419354)" font-family="Arial, sans-serif" font-size="12px" fill="#bfc6cc">20h</text><text text-anchor="start" transform="translate(236.384,87.61290322580646)" font-family="Arial, sans-serif" font-size="12px" fill="#bfc6cc">16h</text><text text-anchor="start" transform="translate(81.412,110.83870967741936)" font-family="Arial, sans-serif" font-size="12px" fill="#bfc6cc">5h</text><text text-anchor="start" transform="translate(66.17599999999999,134.06451612903226)" font-family="Arial, sans-serif" font-size="12px" fill="#bfc6cc">4h</text></g><g class="mark-group role-legend" role="graphics-symbol" aria-roledescription="legend" aria-label="Symbol legend for fill color with 2 values: last_7_days, all_time"><g transform="translate(0,179)"><path class="background" aria-hidden="true" d="M0,0h223v12h-223Z" pointer-events="none"/><g><g class="mark-group role-legend-entry"><g transform="translate(0,0)"><path class="background" aria-hidden="true" d="M0,0h0v0h0Z" pointer-events="none"/><g><g class="mark-group role-scope" role="graphics-object" aria-roledescription="group mark container"><g transform="translate(0,0)"><path class="background" aria-hidden="true" d="M0,0h121v12h-121Z" pointer-events="none" opacity="1"/><g><g class="mark-symbol role-legend-symbol" pointer-events="none"><path transform="translate(6,6)" d="M5,0A5,5,0,1,1,-5,0A5,5,0,1,1,5,0" fill="#31b74c" stroke-width="1.5" opacity="1"/></g><g class="mark-text role-legend-label" pointer-events="none"><text text-anchor="start" transform="translate(16,10)" font-family="Arial, sans-serif" font-size="12px" fill="#bfc6cc" opacity="1">last_7_days</text></g></g><path class="foreground" aria-hidden="true" d="" pointer-events="none" display="none"/></g><g transform="translate(131,0)"><path class="background" aria-hidden="true" d="M0,0h92v12h-92Z" pointer-events="none" opacity="1"/><g><g class="mark-symbol role-legend-symbol" pointer-events="none"><path transform="translate(6,6)" d="M5,0A5,5,0,1,1,-5,0A5,5,0,1,1,5,0" fill="#0f452d" stroke-width="1.5" opacity="1"/></g><g class="mark-text role-legend-label" pointer-events="none"><text text-anchor="start" transform="translate(16,10)" font-family="Arial, sans-serif" font-size="12px" fill="#bfc6cc" opacity="1">all_time</text></g></g><path class="foreground" aria-hidden="true" d="" pointer-events="none" display="none"/></g></g></g><path class="foreground" aria-hidden="true" d="" pointer-events="none" display="none"/></g></g></g><path class="foreground" aria-hidden="true" d="" pointer-events="none" display="none"/></g></g><g class="mark-group role-axis" role="graphics-symbol" aria-roledescription="axis" aria-label="X-axis for a linear scale with values from 0k to 100k"><g transform="translate(0.5,144.5)"><path class="background" aria-hidden="true" d="M0,0h0v0h0Z" pointer-events="none"/><g><g class="mark-rule role-axis-tick" pointer-events="none"><line transform="translate(0,0)" x2="0" y2="5" stroke="#3c444c" stroke-width="1" opacity="1"/><line transform="translate(40,0)" x2="0" y2="5" stroke="#3c444c" stroke-width="1" opacity="1"/><line transform="translate(80,0)" x2="0" y2="5" stroke="#3c444c" stroke-width="1" opacity="1"/><line transform="translate(120,0)" x2="0" y2="5" stroke="#3c444c" stroke-width="1" opacity="1"/><line transform="translate(160,0)" x2="0" y2="5" stroke="#3c444c" stroke-width="1" opacity="1"/><line transform="translate(200,0)" x2="0" y2="5" stroke="#3c444c" stroke-width="1" opacity="1"/><line transform="translate(240,0)" x2="0" y2="5" stroke="#3c444c" stroke-width="1" opacity="1"/><line transform="translate(280,0)" x2="0" y2="5" stroke="#3c444c" stroke-width="1" opacity="1"/><line transform="translate(320,0)" x2="0" y2="5" stroke="#3c444c" stroke-width="1" opacity="1"/><line transform="translate(360,0)" x2="0" y2="5" stroke="#3c444c" stroke-width="1" opacity="1"/><line transform="translate(400,0)" x2="0" y2="5" stroke="#3c444c" stroke-width="1" opacity="1"/></g><g class="mark-text role-axis-label" pointer-events="none"><text text-anchor="middle" transform="translate(0,15)" font-family="Arial, sans-serif" font-size="10px" fill="#3c444c" opacity="1">0h</text><text text-anchor="middle" transform="translate(40,15)" font-family="Arial, sans-serif" font-size="10px" fill="#3c444c" opacity="1">3h</text><text text-anchor="middle" transform="translate(80,15)" font-family="Arial, sans-serif" font-size="10px" fill="#3c444c" opacity="1">6h</text><text text-anchor="middle" transform="translate(120,15)" font-family="Arial, sans-serif" font-size="10px" fill="#3c444c" opacity="1">8h</text><text text-anchor="middle" transform="translate(160,15)" font-family="Arial, sans-serif" font-size="10px" fill="#3c444c" opacity="1">11h</text><text text-anchor="middle" transform="translate(200,15)" font-family="Arial, sans-serif" font-size="10px" fill="#3c444c" opacity="1">14h</text><text text-anchor="middle" transform="translate(240,15)" font-family="Arial, sans-serif" font-size="10px" fill="#3c444c" opacity="1">17h</text><text text-anchor="middle" transform="translate(280,15)" font-family="Arial, sans-serif" font-size="10px" fill="#3c444c" opacity="1">19h</text><text text-anchor="middle" transform="translate(320,15)" font-family="Arial, sans-serif" font-size="10px" fill="#3c444c" opacity="1">22h</text><text text-anchor="middle" transform="translate(360,15)" font-family="Arial, sans-serif" font-size="10px" fill="#3c444c" opacity="1">25h</text><text text-anchor="middle" transform="translate(400,15)" font-family="Arial, sans-serif" font-size="10px" fill="#3c444c" opacity="1">28h</text></g><g class="mark-rule role-axis-domain" pointer-events="none"><line transform="translate(0,0)" x2="400" y2="0" stroke="#888" stroke-width="1" opacity="1"/></g></g><path class="foreground" aria-hidden="true" d="" pointer-events="none" display="none"/></g></g></g><path class="foreground" aria-hidden="true" d="" display="none"/></g></g></g></svg>