<svg xmlns="http://www.w3.org/2000/svg" xmlns:xlink="http://www.w3.org/1999/xlink" version="1.1" class="marks" width="400" height="400" viewBox="0 0 400 400"><g fill="none" stroke-miterlimit="10" transform="translate(100,100)"><g class="mark-group role-frame root" role="graphics-object" aria-roledescription="group mark container"><g transform="translate(100,100)"><path class="background" aria-hidden="true" d="M0,0h200v200h-200Z"/><g><g class="mark-rule role-mark radial-grid" role="graphics-symbol" aria-roledescription="rule mark container"><line transform="translate(0,0)" x2="-86.60254037844385" y2="-50.000000000000036" stroke="gray" stroke-width="1"/><line transform="translate(0,0)" x2="2.8327694488239898e-14" y2="-100" stroke="gray" stroke-width="1"/><line transform="translate(0,0)" x2="86.60254037844388" y2="-49.999999999999986" stroke="gray" stroke-width="1"/><line transform="translate(0,0)" x2="86.60254037844385" y2="50.00000000000002" stroke="gray" stroke-width="1"/><line transform="translate(0,0)" x2="6.123233995736766e-15" y2="100" stroke="gray" stroke-width="1"/><line transform="translate(0,0)" x2="-86.60254037844385" y2="50.000000000000036" stroke="gray" stroke-width="1"/></g><g class="mark-group role-scope categories" role="graphics-object" aria-roledescription="group mark container"><g transform="translate(0,0)"><path class="background" aria-hidden="true" d="M0,0h0v0h0Z"/><g><g class="mark-line role-mark category-line" role="graphics-symbol" aria-roledescription="line mark container"><path d="M-51.442,-29.7L0,-48.66L31.021,-17.91L24.318,14.04L0,11.82L-8.193,4.73Z" fill="#0f452d" fill-opacity="0.6" stroke="#0f452d" stroke-width="2"/></g><g class="mark-symbol role-mark category-point" role="graphics-symbol" aria-roledescription="symbol mark container"><path transform="translate(-51.441908984795646,-29.70000000000002)" d="M3.536,0A3.536,3.536,0,1,1,-3.536,0A3.536,3.536,0,1,1,3.536,0" fill="#0f452d" stroke="white" stroke-width="1"/><path transform="translate(1.3784256137977534e-14,-48.66)" d="M3.536,0A3.536,3.536,0,1,1,-3.536,0A3.536,3.536,0,1,1,3.536,0" fill="#0f452d" stroke="white" stroke-width="1"/><path transform="translate(31.021029963558593,-17.909999999999993)" d="M3.536,0A3.536,3.536,0,1,1,-3.536,0A3.536,3.536,0,1,1,3.536,0" fill="#0f452d" stroke="white" stroke-width="1"/><path transform="translate(24.31799333826703,14.040000000000006)" d="M3.536,0A3.536,3.536,0,1,1,-3.536,0A3.536,3.536,0,1,1,3.536,0" fill="#0f452d" stroke="white" stroke-width="1"/><path transform="translate(7.237662582960858e-16,11.82)" d="M3.536,0A3.536,3.536,0,1,1,-3.536,0A3.536,3.536,0,1,1,3.536,0" fill="#0f452d" stroke="white" stroke-width="1"/><path transform="translate(-8.192600319800789,4.730000000000004)" d="M3.536,0A3.536,3.536,0,1,1,-3.536,0A3.536,3.536,0,1,1,3.536,0" fill="#0f452d" stroke="white" stroke-width="1"/></g><g class="mark-text role-mark value-text" role="graphics-object" aria-roledescription="text mark container"><text text-anchor="end" transform="translate(-56.441908984795646,-15.70000000000002)" font-family="Arial, sans-serif" font-size="12px" fill="#bfc6cc">30%</text><text text-anchor="start" transform="translate(1.3784256137977534e-14,-34.66)" font-family="Arial, sans-serif" font-size="12px" fill="#bfc6cc">24%</text><text text-anchor="start" transform="translate(31.021029963558593,-3.909999999999993)" font-family="Arial, sans-serif" font-size="12px" fill="#bfc6cc">18%</text><text text-anchor="start" transform="translate(24.31799333826703,6.040000000000006)" font-family="Arial, sans-serif" font-size="12px" fill="#bfc6cc">14%</text><text text-anchor="start" transform="translate(7.237662582960858e-16,3.8200000000000003)" font-family="Arial, sans-serif" font-size="12px" fill="#bfc6cc">6%</text><text text-anchor="end" transform="translate(-13.192600319800789,-3.269999999999996)" font-family="Arial, sans-serif" font-size="12px" fill="#bfc6cc"/></g></g><path class="foreground" aria-hidden="true" d="" display="none"/></g><g transform="translate(0,0)"><path class="background" aria-hidden="true" d="M0,0h0v0h0Z"/><g><g class="mark-line role-mark category-line" role="graphics-symbol" aria-roledescription="line mark container"><path d="M-1.403,-0.81L0,0L0,0L86.603,50L0,51.3L0,0Z" fill="#31b74c" fill-opacity="0.6" stroke="#31b74c" stroke-width="2"/></g><g class="mark-symbol role-mark category-point" role="graphics-symbol" aria-roledescription="symbol mark container"><path transform="translate(-1.4029611541307907,-0.8100000000000007)" d="M3.536,0A3.536,3.536,0,1,1,-3.536,0A3.536,3.536,0,1,1,3.536,0" fill="#31b74c" stroke="white" stroke-width="1"/><path transform="translate(0,0)" d="M3.536,0A3.536,3.536,0,1,1,-3.536,0A3.536,3.536,0,1,1,3.536,0" fill="#31b74c" stroke="white" stroke-width="1"/><path transform="translate(0,0)" d="M3.536,0A3.536,3.536,0,1,1,-3.536,0A3.536,3.536,0,1,1,3.536,0" fill="#31b74c" stroke="white" stroke-width="1"/><path transform="translate(86.60254037844385,50.00000000000002)" d="M3.536,0A3.536,3.536,0,1,1,-3.536,0A3.536,3.536,0,1,1,3.536,0" fill="#31b74c" stroke="white" stroke-width="1"/><path transform="translate(3.141219039812961e-15,51.300000000000004)" d="M3.536,0A3.536,3.536,0,1,1,-3.536,0A3.536,3.536,0,1,1,3.536,0" fill="#31b74c" stroke="white" stroke-width="1"/><path transform="translate(0,0)" d="M3.536,0A3.536,3.536,0,1,1,-3.536,0A3.536,3.536,0,1,1,3.536,0" fill="#31b74c" stroke="white" stroke-width="1"/></g><g class="mark-text role-mark value-text" role="graphics-object" aria-roledescription="text mark container"><text text-anchor="end" transform="translate(-6.402961154130791,13.19)" font-family="Arial, sans-serif" font-size="12px" fill="#bfc6cc"/><text text-anchor="start" transform="translate(0,14)" font-family="Arial, sans-serif" font-size="12px" fill="#bfc6cc"/><text text-anchor="start" transform="translate(0,14)" font-family="Arial, sans-serif" font-size="12px" fill="#bfc6cc"/><text text-anchor="start" transform="translate(86.60254037844385,42.00000000000002)" font-family="Arial, sans-serif" font-size="12px" fill="#bfc6cc">61%</text><text text-anchor="start" transform="translate(3.141219039812961e-15,43.300000000000004)" font-family="Arial, sans-serif" font-size="12px" fill="#bfc6cc">26%</text><text text-anchor="end" transform="translate(-5,-8)" font-family="Arial, sans-serif" font-size="12px" fill="#bfc6cc"/></g></g><path class="foreground" aria-hidden="true" d="" display="none"/></g></g><g class="mark-text role-mark key-label" role="graphics-object" aria-roledescription="text mark container"><text text-anchor="end" transform="translate(-99.59292143521043,-60.500000000000036)" font-family="Arial, sans-serif" font-size="12px" fill="#7c848c">onshape-robotics-toolkit</text><text text-anchor="start" transform="translate(3.2576848661475884e-14,-118)" font-family="Arial, sans-serif" font-size="12px" fill="#7c848c">umv-codesign</text><text text-anchor="start" transform="translate(99.59292143521046,-60.49999999999998)" font-family="Arial, sans-serif" font-size="12px" fill="#7c848c">ballbot-mujoco</text><text text-anchor="start" transform="translate(99.59292143521043,66.50000000000003)" font-family="Arial, sans-serif" font-size="12px" fill="#7c848c">senthurayyappan</text><text text-anchor="start" transform="translate(7.041719095097281e-15,124)" font-family="Arial, sans-serif" font-size="12px" fill="#7c848c">neurobionicspi</text><text text-anchor="end" transform="translate(-99.59292143521043,66.50000000000003)" font-family="Arial, sans-serif" font-size="12px" fill="#7c848c">onshape-api</text></g></g><path class="foreground" aria-hidden="true" d="" display="none"/></g></g></g></svg>