<svg xmlns="http://www.w3.org/2000/svg" xmlns:xlink="http://www.w3.org/1999/xlink" version="1.1" class="marks" width="916" height="533" viewBox="0 0 916 533"><g fill="none" stroke-miterlimit="10" transform="translate(72,50)"><g class="mark-group role-frame root" role="graphics-object" aria-roledescription="group mark container"><g transform="translate(0,0)"><path class="background" aria-hidden="true" d="M0,0h800v400h-800Z"/><g><g class="mark-group role-axis" role="graphics-symbol" aria-roledescription="axis" aria-label="X-axis titled 'Date' for a discrete scale with 14 values: 02-01, 02-02, 02-03, 02-04, 02-05, ending with 02-14"><g transform="translate(0.5,400.5)"><path class="background" aria-hidden="true" d="M0,0h0v0h0Z" pointer-events="none"/><g><g class="mark-rule role-axis-tick" pointer-events="none"><line transform="translate(0,0)" x2="0" y2="5" stroke="#888" stroke-width="1" opacity="1"/><line transform="translate(62,0)" x2="0" y2="5" stroke="#888" stroke-width="1" opacity="1"/><line transform="translate(123,0)" x2="0" y2="5" stroke="#888" stroke-width="1" opacity="1"/><line transform="translate(185,0)" x2="0" y2="5" stroke="#888" stroke-width="1" opacity="1"/><line transform="translate(246,0)" x2="0" y2="5" stroke="#888" stroke-width="1" opacity="1"/><line transform="translate(308,0)" x2="0" y2="5" stroke="#888" stroke-width="1" opacity="1"/><line transform="translate(369,0)" x2="0" y2="5" stroke="#888" stroke-width="1" opacity="1"/><line transform="translate(431,0)" x2="0" y2="5" stroke="#888" stroke-width="1" opacity="1"/><line transform="translate(492,0)" x2="0" y2="5" stroke="#888" stroke-width="1" opacity="1"/><line transform="translate(554,0)" x2="0" y2="5" stroke="#888" stroke-width="1" opacity="1"/><line transform="translate(615,0)" x2="0" y2="5" stroke="#888" stroke-width="1" opacity="1"/><line transform="translate(677,0)" x2="0" y2="5" stroke="#888" stroke-width="1" opacity="1"/><line transform="translate(738,0)" x2="0" y2="5" stroke="#888" stroke-width="1" opacity="1"/><line transform="translate(800,0)" x2="0" y2="5" stroke="#888" stroke-width="1" opacity="1"/></g><g class="mark-text role-axis-label" pointer-events="none"><text text-anchor="middle" transform="translate(0,16)" font-family="Arial, sans-serif" font-size="12px" fill="#3c444c" opacity="1">02-01</text><text text-anchor="middle" transform="translate(61.53846153846154,16)" font-family="Arial, sans-serif" font-size="12px" fill="#3c444c" opacity="1">02-02</text><text text-anchor="middle" transform="translate(123.07692307692308,16)" font-family="Arial, sans-serif" font-size="12px" fill="#3c444c" opacity="1">02-03</text><text text-anchor="middle" transform="translate(184.6153846153846,16)" font-family="Arial, sans-serif" font-size="12px" fill="#3c444c" opacity="1">02-04</text><text text-anchor="middle" transform="translate(246.15384615384616,16)" font-family="Arial, sans-serif" font-size="12px" fill="#3c444c" opacity="1">02-05</text><text text-anchor="middle" transform="translate(307.6923076923077,16)" font-family="Arial, sans-serif" font-size="12px" fill="#3c444c" opacity="1">02-06</text><text text-anchor="middle" transform="translate(369.2307692307692,16)" font-family="Arial, sans-serif" font-size="12px" fill="#3c444c" opacity="1">02-07</text><text text-anchor="middle" transform="translate(430.7692307692308,16)" font-family="Arial, sans-serif" font-size="12px" fill="#3c444c" opacity="1">02-08</text><text text-anchor="middle" transform="translate(492.3076923076923,16)" font-family="Arial, sans-serif" font-size="12px" fill="#3c444c" opacity="1">02-09</text><text text-anchor="middle" transform="translate(553.8461538461538,16)" font-family="Arial, sans-serif" font-size="12px" fill="#3c444c" opacity="1">02-10</text><text text-anchor="middle" transform="translate(615.3846153846154,16)" font-family="Arial, sans-serif" font-size="12px" fill="#3c444c" opacity="1">02-11</text><text text-anchor="middle" transform="translate(676.9230769230769,16)" font-family="Arial, sans-serif" font-size="12px" fill="#3c444c" opacity="1">02-12</text><text text-anchor="middle" transform="translate(738.4615384615385,16)" font-family="Arial, sans-serif" font-size="12px" fill="#3c444c" opacity="1">02-13</text><text text-anchor="middle" transform="translate(800,16)" font-family="Arial, sans-serif" font-size="12px" fill="#3c444c" opacity="1">02-14</text></g><g class="mark-rule role-axis-domain" pointer-events="none"><line transform="translate(0,0)" x2="800" y2="0" stroke="#888" stroke-width="1" opacity="1"/></g><g class="mark-text role-axis-title" pointer-events="none"><text text-anchor="middle" transform="translate(400,31)" font-family="Arial, sans-serif" font-size="12px" font-weight="bold" fill="#3c444c" opacity="1">Date</text></g></g><path class="foreground" aria-hidden="true" d="" pointer-events="none" display="none"/></g></g><g class="mark-group role-axis" role="graphics-symbol" aria-roledescription="axis" aria-label="Y-axis titled 'Views' for a linear scale with values from 0 to 450"><g transform="translate(0.5,0.5)"><path class="background" aria-hidden="true" d="M0,0h0v0h0Z" pointer-events="none"/><g><g class="mark-rule role-axis-tick" pointer-events="none"><line transform="translate(0,400)" x2="-5" y2="0" stroke="#888" stroke-width="1" opacity="1"/><line transform="translate(0,356)" x2="-5" y2="0" stroke="#888" stroke-width="1" opacity="1"/><line transform="translate(0,311)" x2="-5" y2="0" stroke="#888" stroke-width="1" opacity="1"/><line transform="translate(0,267)" x2="-5" y2="0" stroke="#888" stroke-width="1" opacity="1"/><line transform="translate(0,222)" x2="-5" y2="0" stroke="#888" stroke-width="1" opacity="1"/><line transform="translate(0,178)" x2="-5" y2="0" stroke="#888" stroke-width="1" opacity="1"/><line transform="translate(0,133)" x2="-5" y2="0" stroke="#888" stroke-width="1" opacity="1"/><line transform="translate(0,89)" x2="-5" y2="0" stroke="#888" stroke-width="1" opacity="1"/><line transform="translate(0,44)" x2="-5" y2="0" stroke="#888" stroke-width="1" opacity="1"/><line transform="translate(0,0)" x2="-5" y2="0" stroke="#888" stroke-width="1" opacity="1"/></g><g class="mark-text role-axis-label" pointer-events="none"><text text-anchor="end" transform="translate(-7,404)" font-family="Arial, sans-serif" font-size="12px" fill="#3c444c" opacity="1">0</text><text text-anchor="end" transform="translate(-7,359.55555555555554)" font-family="Arial, sans-serif" font-size="12px" fill="#3c444c" opacity="1">50</text><text text-anchor="end" transform="translate(-7,315.11111111111114)" font-family="Arial, sans-serif" font-size="12px" fill="#3c444c" opacity="1">100</text><text text-anchor="end" transform="translate(-7,270.6666666666667)" font-family="Arial, sans-serif" font-size="12px" fill="#3c444c" opacity="1">150</text><text text-anchor="end" transform="translate(-7,226.22222222222223)" font-family="Arial, sans-serif" font-size="12px" fill="#3c444c" opacity="1">200</text><text text-anchor="end" transform="translate(-7,181.77777777777777)" font-family="Arial, sans-serif" font-size="12px" fill="#3c444c" opacity="1">250</text><text text-anchor="end" transform="translate(-7,137.33333333333334)" font-family="Arial, sans-serif" font-size="12px" fill="#3c444c" opacity="1">300</text><text text-anchor="end" transform="translate(-7,92.88888888888889)" font-family="Arial, sans-serif" font-size="12px" fill="#3c444c" opacity="1">350</text><text text-anchor="end" transform="translate(-7,48.444444444444464)" font-family="Arial, sans-serif" font-size="12px" fill="#3c444c" opacity="1">400</text><text text-anchor="end" transform="translate(-7,4)" font-family="Arial, sans-serif" font-size="12px" fill="#3c444c" opacity="1">450</text></g><g class="mark-rule role-axis-domain" pointer-events="none"><line transform="translate(0,400)" x2="0" y2="-400" stroke="#888" stroke-width="1" opacity="1"/></g><g class="mark-text role-axis-title" pointer-events="none"><text text-anchor="middle" transform="translate(-39,200) rotate(-90) translate(0,-3)" font-family="Arial, sans-serif" font-size="12px" font-weight="bold" fill="#3c444c" opacity="1">Views</text></g></g><path class="foreground" aria-hidden="true" d="" pointer-events="none" display="none"/></g></g><g class="mark-group role-scope" role="graphics-object" aria-roledescription="group mark container"><g transform="translate(0,0)"><path class="background" aria-hidden="true" d="M0,0h0v0h0Z"/><g><g class="mark-line role-mark" role="graphics-symbol" aria-roledescription="line mark container"><path d="M0,368.889C20.513,382.667,41.026,396.444,61.538,396.444C82.051,396.444,102.564,382.222,123.077,382.222C143.59,382.222,164.103,392.889,184.615,392.889C205.128,392.889,225.641,288.889,246.154,288.889C266.667,288.889,287.179,337.481,307.692,353.778C328.205,370.074,348.718,383.111,369.231,386.667C389.744,390.222,410.256,390.074,430.769,392C451.282,393.926,471.795,398.222,492.308,398.222C512.821,398.222,533.333,388.741,553.846,387.556C574.359,386.37,594.872,385.778,615.385,385.778C635.897,385.778,656.41,386.667,676.923,386.667C697.436,386.667,717.949,381.333,738.462,381.333C758.974,381.333,779.487,390.667,800,400" stroke="rgb(105, 194, 202)" stroke-width="2"/></g><g class="mark-text role-mark" role="graphics-object" aria-roledescription="text mark container"><text text-anchor="middle" transform="translate(0,358.8888888888889)" font-family="sans-serif" font-size="10px" fill="#888888">35</text><text text-anchor="middle" transform="translate(61.53846153846154,386.44444444444446)" font-family="sans-serif" font-size="10px" fill="#888888">4</text><text text-anchor="middle" transform="translate(123.07692307692308,372.22222222222223)" font-family="sans-serif" font-size="10px" fill="#888888">20</text><text text-anchor="middle" transform="translate(184.6153846153846,382.8888888888889)" font-family="sans-serif" font-size="10px" fill="#888888">8</text><text text-anchor="middle" transform="translate(246.15384615384616,278.88888888888886)" font-family="sans-serif" font-size="10px" fill="#888888">125</text><text text-anchor="middle" transform="translate(307.6923076923077,343.77777777777777)" font-family="sans-serif" font-size="10px" fill="#888888">52</text><text text-anchor="middle" transform="translate(369.2307692307692,376.6666666666667)" font-family="sans-serif" font-size="10px" fill="#888888">15</text><text text-anchor="middle" transform="translate(430.7692307692308,382)" font-family="sans-serif" font-size="10px" fill="#888888">9</text><text text-anchor="middle" transform="translate(492.3076923076923,388.22222222222223)" font-family="sans-serif" font-size="10px" fill="#888888">2</text><text text-anchor="middle" transform="translate(553.8461538461538,377.55555555555554)" font-family="sans-serif" font-size="10px" fill="#888888">14</text><text text-anchor="middle" transform="translate(615.3846153846154,375.77777777777777)" font-family="sans-serif" font-size="10px" fill="#888888">16</text><text text-anchor="middle" transform="translate(676.9230769230769,376.6666666666667)" font-family="sans-serif" font-size="10px" fill="#888888">15</text><text text-anchor="middle" transform="translate(738.4615384615385,371.33333333333337)" font-family="sans-serif" font-size="10px" fill="#888888">21</text><text text-anchor="middle" transform="translate(800,390)" font-family="sans-serif" font-size="10px" fill="#888888">0</text></g></g><path class="foreground" aria-hidden="true" d="" display="none"/></g><g transform="translate(0,0)"><path class="background" aria-hidden="true" d="M0,0h0v0h0Z"/><g><g class="mark-line role-mark" role="graphics-symbol" aria-roledescription="line mark container"><path d="M0,310.222C20.513,288.741,41.026,267.259,61.538,247.111C82.051,226.963,102.564,189.333,123.077,189.333C143.59,189.333,164.103,294.815,184.615,306.667C205.128,318.519,225.641,324.444,246.154,324.444C266.667,324.444,287.179,313.481,307.692,291.556C328.205,269.63,348.718,8,369.231,8C389.744,8,410.256,153.63,430.769,196.444C451.282,239.259,471.795,264.889,492.308,264.889C512.821,264.889,533.333,263.407,553.846,260.444C574.359,257.481,594.872,230.222,615.385,230.222C635.897,230.222,656.41,303.111,676.923,303.111C697.436,303.111,717.949,294.222,738.462,294.222C758.974,294.222,779.487,328,800,361.778" stroke="rgb(184, 227, 190)" stroke-width="2"/></g><g class="mark-text role-mark" role="graphics-object" aria-roledescription="text mark container"><text text-anchor="middle" transform="translate(0,300.22222222222223)" font-family="sans-serif" font-size="10px" fill="#888888">101</text><text text-anchor="middle" transform="translate(61.53846153846154,237.11111111111111)" font-family="sans-serif" font-size="10px" fill="#888888">172</text><text text-anchor="middle" transform="translate(123.07692307692308,179.33333333333334)" font-family="sans-serif" font-size="10px" fill="#888888">237</text><text text-anchor="middle" transform="translate(184.6153846153846,296.66666666666663)" font-family="sans-serif" font-size="10px" fill="#888888">105</text><text text-anchor="middle" transform="translate(246.15384615384616,314.44444444444446)" font-family="sans-serif" font-size="10px" fill="#888888">85</text><text text-anchor="middle" transform="translate(307.6923076923077,281.55555555555554)" font-family="sans-serif" font-size="10px" fill="#888888">122</text><text text-anchor="middle" transform="translate(369.2307692307692,-1.999999999999993)" font-family="sans-serif" font-size="10px" fill="#888888">441</text><text text-anchor="middle" transform="translate(430.7692307692308,186.44444444444446)" font-family="sans-serif" font-size="10px" fill="#888888">229</text><text text-anchor="middle" transform="translate(492.3076923076923,254.8888888888889)" font-family="sans-serif" font-size="10px" fill="#888888">152</text><text text-anchor="middle" transform="translate(553.8461538461538,250.44444444444446)" font-family="sans-serif" font-size="10px" fill="#888888">157</text><text text-anchor="middle" transform="translate(615.3846153846154,220.22222222222223)" font-family="sans-serif" font-size="10px" fill="#888888">191</text><text text-anchor="middle" transform="translate(676.9230769230769,293.1111111111111)" font-family="sans-serif" font-size="10px" fill="#888888">109</text><text text-anchor="middle" transform="translate(738.4615384615385,284.22222222222223)" font-family="sans-serif" font-size="10px" fill="#888888">119</text><text text-anchor="middle" transform="translate(800,351.77777777777777)" font-family="sans-serif" font-size="10px" fill="#888888">43</text></g></g><path class="foreground" aria-hidden="true" d="" display="none"/></g><g transform="translate(0,0)"><path class="background" aria-hidden="true" d="M0,0h0v0h0Z"/><g><g class="mark-line role-mark" role="graphics-symbol" aria-roledescription="line mark container"><path d="M0,398.222C20.513,397.333,41.026,396.444,61.538,396.444C82.051,396.444,102.564,397.333,123.077,397.333C143.59,397.333,164.103,396.444,184.615,396.444C205.128,396.444,225.641,397.037,246.154,397.333C266.667,397.63,287.179,398.222,307.692,398.222C328.205,398.222,348.718,393.778,369.231,393.778C389.744,393.778,410.256,400,430.769,400C451.282,400,471.795,386.667,492.308,386.667C512.821,386.667,533.333,392,553.846,392C574.359,392,594.872,379.556,615.385,379.556C635.897,379.556,656.41,400,676.923,400C697.436,400,717.949,394.667,738.462,394.667C758.974,394.667,779.487,395.556,800,396.444" stroke="rgb(34, 131, 185)" stroke-width="2"/></g><g class="mark-text role-mark" role="graphics-object" aria-roledescription="text mark container"><text text-anchor="middle" transform="translate(0,388.22222222222223)" font-family="sans-serif" font-size="10px" fill="#888888">2</text><text text-anchor="middle" transform="translate(61.53846153846154,386.44444444444446)" font-family="sans-serif" font-size="10px" fill="#888888">4</text><text text-anchor="middle" transform="translate(123.07692307692308,387.3333333333333)" font-family="sans-serif" font-size="10px" fill="#888888">3</text><text text-anchor="middle" transform="translate(184.6153846153846,386.44444444444446)" font-family="sans-serif" font-size="10px" fill="#888888">4</text><text text-anchor="middle" transform="translate(246.15384615384616,387.3333333333333)" font-family="sans-serif" font-size="10px" fill="#888888">3</text><text text-anchor="middle" transform="translate(307.6923076923077,388.22222222222223)" font-family="sans-serif" font-size="10px" fill="#888888">2</text><text text-anchor="middle" transform="translate(369.2307692307692,383.77777777777777)" font-family="sans-serif" font-size="10px" fill="#888888">7</text><text text-anchor="middle" transform="translate(430.7692307692308,390)" font-family="sans-serif" font-size="10px" fill="#888888">0</text><text text-anchor="middle" transform="translate(492.3076923076923,376.6666666666667)" font-family="sans-serif" font-size="10px" fill="#888888">15</text><text text-anchor="middle" transform="translate(553.8461538461538,382)" font-family="sans-serif" font-size="10px" fill="#888888">9</text><text text-anchor="middle" transform="translate(615.3846153846154,369.55555555555554)" font-family="sans-serif" font-size="10px" fill="#888888">23</text><text text-anchor="middle" transform="translate(676.9230769230769,390)" font-family="sans-serif" font-size="10px" fill="#888888">0</text><text text-anchor="middle" transform="translate(738.4615384615385,384.6666666666667)" font-family="sans-serif" font-size="10px" fill="#888888">6</text><text text-anchor="middle" transform="translate(800,386.44444444444446)" font-family="sans-serif" font-size="10px" fill="#888888">4</text></g></g><path class="foreground" aria-hidden="true" d="" display="none"/></g><g transform="translate(0,0)"><path class="background" aria-hidden="true" d="M0,0h0v0h0Z"/><g><g class="mark-line role-mark" role="graphics-symbol" aria-roledescription="line mark container"><path d="M0,400C20.513,399.111,41.026,398.222,61.538,394.667C82.051,391.111,102.564,337.778,123.077,337.778C143.59,337.778,164.103,394.667,184.615,394.667C205.128,394.667,225.641,367.111,246.154,367.111C266.667,367.111,287.179,397.333,307.692,397.333C328.205,397.333,348.718,376,369.231,376C389.744,376,410.256,394.667,430.769,396.444C451.282,398.222,471.795,399.111,492.308,399.111C512.821,399.111,533.333,397.333,553.846,397.333C574.359,397.333,594.872,397.778,615.385,398.222C635.897,398.667,656.41,400,676.923,400C697.436,400,717.949,370.667,738.462,370.667C758.974,370.667,779.487,384,800,397.333" stroke="rgb(67, 165, 201)" stroke-width="2"/></g><g class="mark-text role-mark" role="graphics-object" aria-roledescription="text mark container"><text text-anchor="middle" transform="translate(0,390)" font-family="sans-serif" font-size="10px" fill="#888888">0</text><text text-anchor="middle" transform="translate(61.53846153846154,384.6666666666667)" font-family="sans-serif" font-size="10px" fill="#888888">6</text><text text-anchor="middle" transform="translate(123.07692307692308,327.77777777777777)" font-family="sans-serif" font-size="10px" fill="#888888">70</text><text text-anchor="middle" transform="translate(184.6153846153846,384.6666666666667)" font-family="sans-serif" font-size="10px" fill="#888888">6</text><text text-anchor="middle" transform="translate(246.15384615384616,357.11111111111114)" font-family="sans-serif" font-size="10px" fill="#888888">37</text><text text-anchor="middle" transform="translate(307.6923076923077,387.3333333333333)" font-family="sans-serif" font-size="10px" fill="#888888">3</text><text text-anchor="middle" transform="translate(369.2307692307692,366)" font-family="sans-serif" font-size="10px" fill="#888888">27</text><text text-anchor="middle" transform="translate(430.7692307692308,386.44444444444446)" font-family="sans-serif" font-size="10px" fill="#888888">4</text><text text-anchor="middle" transform="translate(492.3076923076923,389.1111111111111)" font-family="sans-serif" font-size="10px" fill="#888888">1</text><text text-anchor="middle" transform="translate(553.8461538461538,387.3333333333333)" font-family="sans-serif" font-size="10px" fill="#888888">3</text><text text-anchor="middle" transform="translate(615.3846153846154,388.22222222222223)" font-family="sans-serif" font-size="10px" fill="#888888">2</text><text text-anchor="middle" transform="translate(676.9230769230769,390)" font-family="sans-serif" font-size="10px" fill="#888888">0</text><text text-anchor="middle" transform="translate(738.4615384615385,360.66666666666663)" font-family="sans-serif" font-size="10px" fill="#888888">33</text><text text-anchor="middle" transform="translate(800,387.3333333333333)" font-family="sans-serif" font-size="10px" fill="#888888">3</text></g></g><path class="foreground" aria-hidden="true" d="" display="none"/></g><g transform="translate(0,0)"><path class="background" aria-hidden="true" d="M0,0h0v0h0Z"/><g><g class="mark-line role-mark" role="graphics-symbol" aria-roledescription="line mark container"><path d="M0,382.222C20.513,382.074,41.026,381.926,61.538,381.333C82.051,380.741,102.564,337.778,123.077,337.778C143.59,337.778,164.103,348.444,184.615,348.444C205.128,348.444,225.641,325.333,246.154,325.333C266.667,325.333,287.179,382.815,307.692,387.556C328.205,392.296,348.718,394.667,369.231,394.667C389.744,394.667,410.256,389.333,430.769,389.333C451.282,389.333,471.795,398.222,492.308,398.222C512.821,398.222,533.333,384.593,553.846,378.667C574.359,372.741,594.872,362.667,615.385,362.667C635.897,362.667,656.41,380.444,676.923,380.444C697.436,380.444,717.949,377.481,738.462,376.889C758.974,376.296,779.487,376.148,800,376" stroke="rgb(147, 213, 189)" stroke-width="2"/></g><g class="mark-text role-mark" role="graphics-object" aria-roledescription="text mark container"><text text-anchor="middle" transform="translate(0,372.22222222222223)" font-family="sans-serif" font-size="10px" fill="#888888">20</text><text text-anchor="middle" transform="translate(61.53846153846154,371.33333333333337)" font-family="sans-serif" font-size="10px" fill="#888888">21</text><text text-anchor="middle" transform="translate(123.07692307692308,327.77777777777777)" font-family="sans-serif" font-size="10px" fill="#888888">70</text><text text-anchor="middle" transform="translate(184.6153846153846,338.44444444444446)" font-family="sans-serif" font-size="10px" fill="#888888">58</text><text text-anchor="middle" transform="translate(246.15384615384616,315.3333333333333)" font-family="sans-serif" font-size="10px" fill="#888888">84</text><text text-anchor="middle" transform="translate(307.6923076923077,377.55555555555554)" font-family="sans-serif" font-size="10px" fill="#888888">14</text><text text-anchor="middle" transform="translate(369.2307692307692,384.6666666666667)" font-family="sans-serif" font-size="10px" fill="#888888">6</text><text text-anchor="middle" transform="translate(430.7692307692308,379.33333333333337)" font-family="sans-serif" font-size="10px" fill="#888888">12</text><text text-anchor="middle" transform="translate(492.3076923076923,388.22222222222223)" font-family="sans-serif" font-size="10px" fill="#888888">2</text><text text-anchor="middle" transform="translate(553.8461538461538,368.6666666666667)" font-family="sans-serif" font-size="10px" fill="#888888">24</text><text text-anchor="middle" transform="translate(615.3846153846154,352.66666666666663)" font-family="sans-serif" font-size="10px" fill="#888888">42</text><text text-anchor="middle" transform="translate(676.9230769230769,370.44444444444446)" font-family="sans-serif" font-size="10px" fill="#888888">22</text><text text-anchor="middle" transform="translate(738.4615384615385,366.88888888888886)" font-family="sans-serif" font-size="10px" fill="#888888">26</text><text text-anchor="middle" transform="translate(800,366)" font-family="sans-serif" font-size="10px" fill="#888888">27</text></g></g><path class="foreground" aria-hidden="true" d="" display="none"/></g></g><g class="mark-group role-legend" role="graphics-symbol" aria-roledescription="legend" aria-label="Symbol legend for fill color with 5 values: onshape-robotics-toolkit, TMotorCANControl, neurobionicspi, opensourceleg, anton"><g transform="translate(0,451)"><path class="background" aria-hidden="true" d="M0,0h732v12h-732Z" pointer-events="none"/><g><g class="mark-group role-legend-entry"><g transform="translate(0,0)"><path class="background" aria-hidden="true" d="M0,0h0v0h0Z" pointer-events="none"/><g><g class="mark-group role-scope" role="graphics-object" aria-roledescription="group mark container"><g transform="translate(0,0)"><path class="background" aria-hidden="true" d="M0,0h169v12h-169Z" pointer-events="none" opacity="1"/><g><g class="mark-symbol role-legend-symbol" pointer-events="none"><path transform="translate(6,6)" d="M5,0A5,5,0,1,1,-5,0A5,5,0,1,1,5,0" fill="rgb(184, 227, 190)" stroke-width="1.5" opacity="1"/></g><g class="mark-text role-legend-label" pointer-events="none"><text text-anchor="start" transform="translate(16,10)" font-family="Arial, sans-serif" font-size="12px" fill="#bfc6cc" opacity="1">onshape-robotic…</text></g></g><path class="foreground" aria-hidden="true" d="" pointer-events="none" display="none"/></g><g transform="translate(179,0)"><path class="background" aria-hidden="true" d="M0,0h169v12h-169Z" pointer-events="none" opacity="1"/><g><g class="mark-symbol role-legend-symbol" pointer-events="none"><path transform="translate(6,6)" d="M5,0A5,5,0,1,1,-5,0A5,5,0,1,1,5,0" fill="rgb(147, 213, 189)" stroke-width="1.5" opacity="1"/></g><g class="mark-text role-legend-label" pointer-events="none"><text text-anchor="start" transform="translate(16,10)" font-family="Arial, sans-serif" font-size="12px" fill="#bfc6cc" opacity="1">TMotorCANControl</text></g></g><path class="foreground" aria-hidden="true" d="" pointer-events="none" display="none"/></g><g transform="translate(358,0)"><path class="background" aria-hidden="true" d="M0,0h150v12h-150Z" pointer-events="none" opacity="1"/><g><g class="mark-symbol role-legend-symbol" pointer-events="none"><path transform="translate(6,6)" d="M5,0A5,5,0,1,1,-5,0A5,5,0,1,1,5,0" fill="rgb(105, 194, 202)" stroke-width="1.5" opacity="1"/></g><g class="mark-text role-legend-label" pointer-events="none"><text text-anchor="start" transform="translate(16,10)" font-family="Arial, sans-serif" font-size="12px" fill="#bfc6cc" opacity="1">neurobionicspi</text></g></g><path class="foreground" aria-hidden="true" d="" pointer-events="none" display="none"/></g><g transform="translate(518,0)"><path class="background" aria-hidden="true" d="M0,0h140v12h-140Z" pointer-events="none" opacity="1"/><g><g class="mark-symbol role-legend-symbol" pointer-events="none"><path transform="translate(6,6)" d="M5,0A5,5,0,1,1,-5,0A5,5,0,1,1,5,0" fill="rgb(67, 165, 201)" stroke-width="1.5" opacity="1"/></g><g class="mark-text role-legend-label" pointer-events="none"><text text-anchor="start" transform="translate(16,10)" font-family="Arial, sans-serif" font-size="12px" fill="#bfc6cc" opacity="1">opensourceleg</text></g></g><path class="foreground" aria-hidden="true" d="" pointer-events="none" display="none"/></g><g transform="translate(668,0)"><path class="background" aria-hidden="true" d="M0,0h64v12h-64Z" pointer-events="none" opacity="1"/><g><g class="mark-symbol role-legend-symbol" pointer-events="none"><path transform="translate(6,6)" d="M5,0A5,5,0,1,1,-5,0A5,5,0,1,1,5,0" fill="rgb(34, 131, 185)" stroke-width="1.5" opacity="1"/></g><g class="mark-text role-legend-label" pointer-events="none"><text text-anchor="start" transform="translate(16,10)" font-family="Arial, sans-serif" font-size="12px" fill="#bfc6cc" opacity="1">anton</text></g></g><path class="foreground" aria-hidden="true" d="" pointer-events="none" display="none"/></g></g></g><path class="foreground" aria-hidden="true" d="" pointer-events="none" display="none"/></g></g></g><path class="foreground" aria-hidden="true" d="" pointer-events="none" display="none"/></g></g><g class="mark-group role-title"><g transform="translate(386,-29.999999999999993)"><path class="background" aria-hidden="true" d="M0,0h0v0h0Z" pointer-events="none"/><g><g class="mark-text role-title-text" role="graphics-symbol" aria-roledescription="title" aria-label="Title text 'Repository Views Over Time'" pointer-events="none"><text text-anchor="middle" transform="translate(0,13)" font-family="Arial, sans-serif" font-size="16px" font-weight="bold" fill="#bfc6cc" opacity="1">Repository Views Over Time</text></g></g><path class="foreground" aria-hidden="true" d="" pointer-events="none" display="none"/></g></g></g><path class="foreground" aria-hidden="true" d="" display="none"/></g></g></g></svg>