<svg xmlns="http://www.w3.org/2000/svg" xmlns:xlink="http://www.w3.org/1999/xlink" version="1.1" class="marks" width="886" height="479" viewBox="0 0 886 479"><g fill="none" stroke-miterlimit="10" transform="translate(57,11)"><g class="mark-group role-frame root" role="graphics-object" aria-roledescription="group mark container"><g transform="translate(0,0)"><path class="background" aria-hidden="true" d="M0,0h800v400h-800Z"/><g><g class="mark-group role-axis" role="graphics-symbol" aria-roledescription="axis" aria-label="X-axis titled 'Date' for a discrete scale with 14 values: 01-21, 01-22, 01-23, 01-24, 01-25, ending with 02-03"><g transform="translate(0.5,400.5)"><path class="background" aria-hidden="true" d="M0,0h0v0h0Z" pointer-events="none"/><g><g class="mark-rule role-axis-tick" pointer-events="none"><line transform="translate(0,0)" x2="0" y2="5" stroke="#888" stroke-width="1" opacity="1"/><line transform="translate(62,0)" x2="0" y2="5" stroke="#888" stroke-width="1" opacity="1"/><line transform="translate(123,0)" x2="0" y2="5" stroke="#888" stroke-width="1" opacity="1"/><line transform="translate(185,0)" x2="0" y2="5" stroke="#888" stroke-width="1" opacity="1"/><line transform="translate(246,0)" x2="0" y2="5" stroke="#888" stroke-width="1" opacity="1"/><line transform="translate(308,0)" x2="0" y2="5" stroke="#888" stroke-width="1" opacity="1"/><line transform="translate(369,0)" x2="0" y2="5" stroke="#888" stroke-width="1" opacity="1"/><line transform="translate(431,0)" x2="0" y2="5" stroke="#888" stroke-width="1" opacity="1"/><line transform="translate(492,0)" x2="0" y2="5" stroke="#888" stroke-width="1" opacity="1"/><line transform="translate(554,0)" x2="0" y2="5" stroke="#888" stroke-width="1" opacity="1"/><line transform="translate(615,0)" x2="0" y2="5" stroke="#888" stroke-width="1" opacity="1"/><line transform="translate(677,0)" x2="0" y2="5" stroke="#888" stroke-width="1" opacity="1"/><line transform="translate(738,0)" x2="0" y2="5" stroke="#888" stroke-width="1" opacity="1"/><line transform="translate(800,0)" x2="0" y2="5" stroke="#888" stroke-width="1" opacity="1"/></g><g class="mark-text role-axis-label" pointer-events="none"><text text-anchor="middle" transform="translate(0,16)" font-family="Arial, sans-serif" font-size="12px" fill="#3c444c" opacity="1">01-21</text><text text-anchor="middle" transform="translate(61.53846153846154,16)" font-family="Arial, sans-serif" font-size="12px" fill="#3c444c" opacity="1">01-22</text><text text-anchor="middle" transform="translate(123.07692307692308,16)" font-family="Arial, sans-serif" font-size="12px" fill="#3c444c" opacity="1">01-23</text><text text-anchor="middle" transform="translate(184.6153846153846,16)" font-family="Arial, sans-serif" font-size="12px" fill="#3c444c" opacity="1">01-24</text><text text-anchor="middle" transform="translate(246.15384615384616,16)" font-family="Arial, sans-serif" font-size="12px" fill="#3c444c" opacity="1">01-25</text><text text-anchor="middle" transform="translate(307.6923076923077,16)" font-family="Arial, sans-serif" font-size="12px" fill="#3c444c" opacity="1">01-26</text><text text-anchor="middle" transform="translate(369.2307692307692,16)" font-family="Arial, sans-serif" font-size="12px" fill="#3c444c" opacity="1">01-27</text><text text-anchor="middle" transform="translate(430.7692307692308,16)" font-family="Arial, sans-serif" font-size="12px" fill="#3c444c" opacity="1">01-28</text><text text-anchor="middle" transform="translate(492.3076923076923,16)" font-family="Arial, sans-serif" font-size="12px" fill="#3c444c" opacity="1">01-29</text><text text-anchor="middle" transform="translate(553.8461538461538,16)" font-family="Arial, sans-serif" font-size="12px" fill="#3c444c" opacity="1">01-30</text><text text-anchor="middle" transform="translate(615.3846153846154,16)" font-family="Arial, sans-serif" font-size="12px" fill="#3c444c" opacity="1">01-31</text><text text-anchor="middle" transform="translate(676.9230769230769,16)" font-family="Arial, sans-serif" font-size="12px" fill="#3c444c" opacity="1">02-01</text><text text-anchor="middle" transform="translate(738.4615384615385,16)" font-family="Arial, sans-serif" font-size="12px" fill="#3c444c" opacity="1">02-02</text><text text-anchor="middle" transform="translate(800,16)" font-family="Arial, sans-serif" font-size="12px" fill="#3c444c" opacity="1">02-03</text></g><g class="mark-rule role-axis-domain" pointer-events="none"><line transform="translate(0,0)" x2="800" y2="0" stroke="#888" stroke-width="1" opacity="1"/></g><g class="mark-text role-axis-title" pointer-events="none"><text text-anchor="middle" transform="translate(400,31)" font-family="Arial, sans-serif" font-size="12px" font-weight="bold" fill="#3c444c" opacity="1">Date</text></g></g><path class="foreground" aria-hidden="true" d="" pointer-events="none" display="none"/></g></g><g class="mark-group role-axis" role="graphics-symbol" aria-roledescription="axis" aria-label="Y-axis titled 'Views' for a linear scale with values from 0 to 450"><g transform="translate(0.5,0.5)"><path class="background" aria-hidden="true" d="M0,0h0v0h0Z" pointer-events="none"/><g><g class="mark-rule role-axis-tick" pointer-events="none"><line transform="translate(0,400)" x2="-5" y2="0" stroke="#888" stroke-width="1" opacity="1"/><line transform="translate(0,356)" x2="-5" y2="0" stroke="#888" stroke-width="1" opacity="1"/><line transform="translate(0,311)" x2="-5" y2="0" stroke="#888" stroke-width="1" opacity="1"/><line transform="translate(0,267)" x2="-5" y2="0" stroke="#888" stroke-width="1" opacity="1"/><line transform="translate(0,222)" x2="-5" y2="0" stroke="#888" stroke-width="1" opacity="1"/><line transform="translate(0,178)" x2="-5" y2="0" stroke="#888" stroke-width="1" opacity="1"/><line transform="translate(0,133)" x2="-5" y2="0" stroke="#888" stroke-width="1" opacity="1"/><line transform="translate(0,89)" x2="-5" y2="0" stroke="#888" stroke-width="1" opacity="1"/><line transform="translate(0,44)" x2="-5" y2="0" stroke="#888" stroke-width="1" opacity="1"/><line transform="translate(0,0)" x2="-5" y2="0" stroke="#888" stroke-width="1" opacity="1"/></g><g class="mark-text role-axis-label" pointer-events="none"><text text-anchor="end" transform="translate(-7,404)" font-family="Arial, sans-serif" font-size="12px" fill="#3c444c" opacity="1">0</text><text text-anchor="end" transform="translate(-7,359.55555555555554)" font-family="Arial, sans-serif" font-size="12px" fill="#3c444c" opacity="1">50</text><text text-anchor="end" transform="translate(-7,315.11111111111114)" font-family="Arial, sans-serif" font-size="12px" fill="#3c444c" opacity="1">100</text><text text-anchor="end" transform="translate(-7,270.6666666666667)" font-family="Arial, sans-serif" font-size="12px" fill="#3c444c" opacity="1">150</text><text text-anchor="end" transform="translate(-7,226.22222222222223)" font-family="Arial, sans-serif" font-size="12px" fill="#3c444c" opacity="1">200</text><text text-anchor="end" transform="translate(-7,181.77777777777777)" font-family="Arial, sans-serif" font-size="12px" fill="#3c444c" opacity="1">250</text><text text-anchor="end" transform="translate(-7,137.33333333333334)" font-family="Arial, sans-serif" font-size="12px" fill="#3c444c" opacity="1">300</text><text text-anchor="end" transform="translate(-7,92.88888888888889)" font-family="Arial, sans-serif" font-size="12px" fill="#3c444c" opacity="1">350</text><text text-anchor="end" transform="translate(-7,48.444444444444464)" font-family="Arial, sans-serif" font-size="12px" fill="#3c444c" opacity="1">400</text><text text-anchor="end" transform="translate(-7,4)" font-family="Arial, sans-serif" font-size="12px" fill="#3c444c" opacity="1">450</text></g><g class="mark-rule role-axis-domain" pointer-events="none"><line transform="translate(0,400)" x2="0" y2="-400" stroke="#888" stroke-width="1" opacity="1"/></g><g class="mark-text role-axis-title" pointer-events="none"><text text-anchor="middle" transform="translate(-39,200) rotate(-90) translate(0,-3)" font-family="Arial, sans-serif" font-size="12px" font-weight="bold" fill="#3c444c" opacity="1">Views</text></g></g><path class="foreground" aria-hidden="true" d="" pointer-events="none" display="none"/></g></g><g class="mark-group role-scope" role="graphics-object" aria-roledescription="group mark container"><g transform="translate(0,0)"><path class="background" aria-hidden="true" d="M0,0h0v0h0Z"/><g><g class="mark-line role-mark" role="graphics-symbol" aria-roledescription="line mark container"><path d="M0,384.889C20.513,391.111,41.026,397.333,61.538,397.333C82.051,397.333,102.564,390.222,123.077,390.222C143.59,390.222,164.103,391.556,184.615,392.889C205.128,394.222,225.641,397.037,246.154,398.222C266.667,399.407,287.179,400,307.692,400C328.205,400,348.718,306.667,369.231,306.667C389.744,306.667,410.256,385.778,430.769,385.778C451.282,385.778,471.795,320.889,492.308,320.889C512.821,320.889,533.333,381.333,553.846,381.333C574.359,381.333,594.872,365.333,615.385,365.333C635.897,365.333,656.41,366.519,676.923,368.889C697.436,371.259,717.949,396.444,738.462,396.444C758.974,396.444,779.487,393.778,800,391.111" stroke="rgb(140, 207, 138)" stroke-width="2"/></g><g class="mark-text role-mark" role="graphics-object" aria-roledescription="text mark container"><text text-anchor="middle" transform="translate(0,374.88888888888886)" font-family="sans-serif" font-size="10px" fill="#888888">17</text><text text-anchor="middle" transform="translate(61.53846153846154,387.3333333333333)" font-family="sans-serif" font-size="10px" fill="#888888">3</text><text text-anchor="middle" transform="translate(123.07692307692308,380.22222222222223)" font-family="sans-serif" font-size="10px" fill="#888888">11</text><text text-anchor="middle" transform="translate(184.6153846153846,382.8888888888889)" font-family="sans-serif" font-size="10px" fill="#888888">8</text><text text-anchor="middle" transform="translate(246.15384615384616,388.22222222222223)" font-family="sans-serif" font-size="10px" fill="#888888">2</text><text text-anchor="middle" transform="translate(307.6923076923077,390)" font-family="sans-serif" font-size="10px" fill="#888888">0</text><text text-anchor="middle" transform="translate(369.2307692307692,296.66666666666663)" font-family="sans-serif" font-size="10px" fill="#888888">105</text><text text-anchor="middle" transform="translate(430.7692307692308,375.77777777777777)" font-family="sans-serif" font-size="10px" fill="#888888">16</text><text text-anchor="middle" transform="translate(492.3076923076923,310.88888888888886)" font-family="sans-serif" font-size="10px" fill="#888888">89</text><text text-anchor="middle" transform="translate(553.8461538461538,371.33333333333337)" font-family="sans-serif" font-size="10px" fill="#888888">21</text><text text-anchor="middle" transform="translate(615.3846153846154,355.3333333333333)" font-family="sans-serif" font-size="10px" fill="#888888">39</text><text text-anchor="middle" transform="translate(676.9230769230769,358.8888888888889)" font-family="sans-serif" font-size="10px" fill="#888888">35</text><text text-anchor="middle" transform="translate(738.4615384615385,386.44444444444446)" font-family="sans-serif" font-size="10px" fill="#888888">4</text><text text-anchor="middle" transform="translate(800,381.1111111111111)" font-family="sans-serif" font-size="10px" fill="#888888">10</text></g></g><path class="foreground" aria-hidden="true" d="" display="none"/></g><g transform="translate(0,0)"><path class="background" aria-hidden="true" d="M0,0h0v0h0Z"/><g><g class="mark-line role-mark" role="graphics-symbol" aria-roledescription="line mark container"><path d="M0,387.556C20.513,391.259,41.026,394.963,61.538,395.556C82.051,396.148,102.564,396.444,123.077,396.444C143.59,396.444,164.103,393.778,184.615,393.778C205.128,393.778,225.641,397.333,246.154,397.333C266.667,397.333,287.179,397.333,307.692,397.333C328.205,397.333,348.718,399.111,369.231,399.111C389.744,399.111,410.256,398.815,430.769,398.222C451.282,397.63,471.795,393.778,492.308,393.778C512.821,393.778,533.333,395.852,553.846,396.444C574.359,397.037,594.872,397.037,615.385,397.333C635.897,397.63,656.41,398.222,676.923,398.222C697.436,398.222,717.949,396.444,738.462,396.444C758.974,396.444,779.487,396.889,800,397.333" stroke="rgb(26, 131, 62)" stroke-width="2"/></g><g class="mark-text role-mark" role="graphics-object" aria-roledescription="text mark container"><text text-anchor="middle" transform="translate(0,377.55555555555554)" font-family="sans-serif" font-size="10px" fill="#888888">14</text><text text-anchor="middle" transform="translate(61.53846153846154,385.55555555555554)" font-family="sans-serif" font-size="10px" fill="#888888">5</text><text text-anchor="middle" transform="translate(123.07692307692308,386.44444444444446)" font-family="sans-serif" font-size="10px" fill="#888888">4</text><text text-anchor="middle" transform="translate(184.6153846153846,383.77777777777777)" font-family="sans-serif" font-size="10px" fill="#888888">7</text><text text-anchor="middle" transform="translate(246.15384615384616,387.3333333333333)" font-family="sans-serif" font-size="10px" fill="#888888">3</text><text text-anchor="middle" transform="translate(307.6923076923077,387.3333333333333)" font-family="sans-serif" font-size="10px" fill="#888888">3</text><text text-anchor="middle" transform="translate(369.2307692307692,389.1111111111111)" font-family="sans-serif" font-size="10px" fill="#888888">1</text><text text-anchor="middle" transform="translate(430.7692307692308,388.22222222222223)" font-family="sans-serif" font-size="10px" fill="#888888">2</text><text text-anchor="middle" transform="translate(492.3076923076923,383.77777777777777)" font-family="sans-serif" font-size="10px" fill="#888888">7</text><text text-anchor="middle" transform="translate(553.8461538461538,386.44444444444446)" font-family="sans-serif" font-size="10px" fill="#888888">4</text><text text-anchor="middle" transform="translate(615.3846153846154,387.3333333333333)" font-family="sans-serif" font-size="10px" fill="#888888">3</text><text text-anchor="middle" transform="translate(676.9230769230769,388.22222222222223)" font-family="sans-serif" font-size="10px" fill="#888888">2</text><text text-anchor="middle" transform="translate(738.4615384615385,386.44444444444446)" font-family="sans-serif" font-size="10px" fill="#888888">4</text><text text-anchor="middle" transform="translate(800,387.3333333333333)" font-family="sans-serif" font-size="10px" fill="#888888">3</text></g></g><path class="foreground" aria-hidden="true" d="" display="none"/></g><g transform="translate(0,0)"><path class="background" aria-hidden="true" d="M0,0h0v0h0Z"/><g><g class="mark-line role-mark" role="graphics-symbol" aria-roledescription="line mark container"><path d="M0,358.222C20.513,367.111,41.026,376,61.538,376C82.051,376,102.564,341.333,123.077,341.333C143.59,341.333,164.103,350.074,184.615,357.333C205.128,364.593,225.641,381.926,246.154,384.889C266.667,387.852,287.179,389.333,307.692,389.333C328.205,389.333,348.718,271.852,369.231,214.222C389.744,156.593,410.256,43.556,430.769,43.556C451.282,43.556,471.795,201.481,492.308,216.889C512.821,232.296,533.333,240,553.846,240C574.359,240,594.872,197.333,615.385,197.333C635.897,197.333,656.41,310.222,676.923,310.222C697.436,310.222,717.949,249.481,738.462,247.111C758.974,244.741,779.487,244.148,800,243.556" stroke="rgb(178, 224, 172)" stroke-width="2"/></g><g class="mark-text role-mark" role="graphics-object" aria-roledescription="text mark container"><text text-anchor="middle" transform="translate(0,348.22222222222223)" font-family="sans-serif" font-size="10px" fill="#888888">47</text><text text-anchor="middle" transform="translate(61.53846153846154,366)" font-family="sans-serif" font-size="10px" fill="#888888">27</text><text text-anchor="middle" transform="translate(123.07692307692308,331.3333333333333)" font-family="sans-serif" font-size="10px" fill="#888888">66</text><text text-anchor="middle" transform="translate(184.6153846153846,347.3333333333333)" font-family="sans-serif" font-size="10px" fill="#888888">48</text><text text-anchor="middle" transform="translate(246.15384615384616,374.88888888888886)" font-family="sans-serif" font-size="10px" fill="#888888">17</text><text text-anchor="middle" transform="translate(307.6923076923077,379.33333333333337)" font-family="sans-serif" font-size="10px" fill="#888888">12</text><text text-anchor="middle" transform="translate(369.2307692307692,204.22222222222223)" font-family="sans-serif" font-size="10px" fill="#888888">209</text><text text-anchor="middle" transform="translate(430.7692307692308,33.55555555555557)" font-family="sans-serif" font-size="10px" fill="#888888">401</text><text text-anchor="middle" transform="translate(492.3076923076923,206.88888888888886)" font-family="sans-serif" font-size="10px" fill="#888888">206</text><text text-anchor="middle" transform="translate(553.8461538461538,230)" font-family="sans-serif" font-size="10px" fill="#888888">180</text><text text-anchor="middle" transform="translate(615.3846153846154,187.33333333333331)" font-family="sans-serif" font-size="10px" fill="#888888">228</text><text text-anchor="middle" transform="translate(676.9230769230769,300.22222222222223)" font-family="sans-serif" font-size="10px" fill="#888888">101</text><text text-anchor="middle" transform="translate(738.4615384615385,237.11111111111111)" font-family="sans-serif" font-size="10px" fill="#888888">172</text><text text-anchor="middle" transform="translate(800,233.55555555555551)" font-family="sans-serif" font-size="10px" fill="#888888">176</text></g></g><path class="foreground" aria-hidden="true" d="" display="none"/></g><g transform="translate(0,0)"><path class="background" aria-hidden="true" d="M0,0h0v0h0Z"/><g><g class="mark-line role-mark" role="graphics-symbol" aria-roledescription="line mark container"><path d="M0,377.778C20.513,384.889,41.026,392,61.538,392C82.051,392,102.564,391.407,123.077,390.222C143.59,389.037,164.103,344,184.615,344C205.128,344,225.641,400,246.154,400C266.667,400,287.179,400,307.692,400C328.205,400,348.718,351.111,369.231,351.111C389.744,351.111,410.256,361.778,430.769,368.889C451.282,376,471.795,393.778,492.308,393.778C512.821,393.778,533.333,392.889,553.846,391.111C574.359,389.333,594.872,357.333,615.385,357.333C635.897,357.333,656.41,400,676.923,400C697.436,400,717.949,398.074,738.462,394.667C758.974,391.259,779.487,385.407,800,379.556" stroke="rgb(96, 186, 108)" stroke-width="2"/></g><g class="mark-text role-mark" role="graphics-object" aria-roledescription="text mark container"><text text-anchor="middle" transform="translate(0,367.77777777777777)" font-family="sans-serif" font-size="10px" fill="#888888">25</text><text text-anchor="middle" transform="translate(61.53846153846154,382)" font-family="sans-serif" font-size="10px" fill="#888888">9</text><text text-anchor="middle" transform="translate(123.07692307692308,380.22222222222223)" font-family="sans-serif" font-size="10px" fill="#888888">11</text><text text-anchor="middle" transform="translate(184.6153846153846,334)" font-family="sans-serif" font-size="10px" fill="#888888">63</text><text text-anchor="middle" transform="translate(246.15384615384616,390)" font-family="sans-serif" font-size="10px" fill="#888888">0</text><text text-anchor="middle" transform="translate(307.6923076923077,390)" font-family="sans-serif" font-size="10px" fill="#888888">0</text><text text-anchor="middle" transform="translate(369.2307692307692,341.1111111111111)" font-family="sans-serif" font-size="10px" fill="#888888">55</text><text text-anchor="middle" transform="translate(430.7692307692308,358.8888888888889)" font-family="sans-serif" font-size="10px" fill="#888888">35</text><text text-anchor="middle" transform="translate(492.3076923076923,383.77777777777777)" font-family="sans-serif" font-size="10px" fill="#888888">7</text><text text-anchor="middle" transform="translate(553.8461538461538,381.1111111111111)" font-family="sans-serif" font-size="10px" fill="#888888">10</text><text text-anchor="middle" transform="translate(615.3846153846154,347.3333333333333)" font-family="sans-serif" font-size="10px" fill="#888888">48</text><text text-anchor="middle" transform="translate(676.9230769230769,390)" font-family="sans-serif" font-size="10px" fill="#888888">0</text><text text-anchor="middle" transform="translate(738.4615384615385,384.6666666666667)" font-family="sans-serif" font-size="10px" fill="#888888">6</text><text text-anchor="middle" transform="translate(800,369.55555555555554)" font-family="sans-serif" font-size="10px" fill="#888888">23</text></g></g><path class="foreground" aria-hidden="true" d="" display="none"/></g><g transform="translate(0,0)"><path class="background" aria-hidden="true" d="M0,0h0v0h0Z"/><g><g class="mark-line role-mark" role="graphics-symbol" aria-roledescription="line mark container"><path d="M0,394.667C20.513,396,41.026,397.333,61.538,397.333C82.051,397.333,102.564,397.333,123.077,397.333C143.59,397.333,164.103,395.556,184.615,395.556C205.128,395.556,225.641,396.593,246.154,397.333C266.667,398.074,287.179,400,307.692,400C328.205,400,348.718,394.667,369.231,394.667C389.744,394.667,410.256,400,430.769,400C451.282,400,471.795,397.63,492.308,396.444C512.821,395.259,533.333,395.259,553.846,392.889C574.359,390.519,594.872,376,615.385,376C635.897,376,656.41,400,676.923,400C697.436,400,717.949,399.704,738.462,399.111C758.974,398.519,779.487,396.593,800,394.667" stroke="rgb(57, 160, 85)" stroke-width="2"/></g><g class="mark-text role-mark" role="graphics-object" aria-roledescription="text mark container"><text text-anchor="middle" transform="translate(0,384.6666666666667)" font-family="sans-serif" font-size="10px" fill="#888888">6</text><text text-anchor="middle" transform="translate(61.53846153846154,387.3333333333333)" font-family="sans-serif" font-size="10px" fill="#888888">3</text><text text-anchor="middle" transform="translate(123.07692307692308,387.3333333333333)" font-family="sans-serif" font-size="10px" fill="#888888">3</text><text text-anchor="middle" transform="translate(184.6153846153846,385.55555555555554)" font-family="sans-serif" font-size="10px" fill="#888888">5</text><text text-anchor="middle" transform="translate(246.15384615384616,387.3333333333333)" font-family="sans-serif" font-size="10px" fill="#888888">3</text><text text-anchor="middle" transform="translate(307.6923076923077,390)" font-family="sans-serif" font-size="10px" fill="#888888">0</text><text text-anchor="middle" transform="translate(369.2307692307692,384.6666666666667)" font-family="sans-serif" font-size="10px" fill="#888888">6</text><text text-anchor="middle" transform="translate(430.7692307692308,390)" font-family="sans-serif" font-size="10px" fill="#888888">0</text><text text-anchor="middle" transform="translate(492.3076923076923,386.44444444444446)" font-family="sans-serif" font-size="10px" fill="#888888">4</text><text text-anchor="middle" transform="translate(553.8461538461538,382.8888888888889)" font-family="sans-serif" font-size="10px" fill="#888888">8</text><text text-anchor="middle" transform="translate(615.3846153846154,366)" font-family="sans-serif" font-size="10px" fill="#888888">27</text><text text-anchor="middle" transform="translate(676.9230769230769,390)" font-family="sans-serif" font-size="10px" fill="#888888">0</text><text text-anchor="middle" transform="translate(738.4615384615385,389.1111111111111)" font-family="sans-serif" font-size="10px" fill="#888888">1</text><text text-anchor="middle" transform="translate(800,384.6666666666667)" font-family="sans-serif" font-size="10px" fill="#888888">6</text></g></g><path class="foreground" aria-hidden="true" d="" display="none"/></g></g><g class="mark-group role-legend" role="graphics-symbol" aria-roledescription="legend" aria-label="Symbol legend for fill color with 5 values: onshape-robotics-toolkit, neurobionicspi, opensourceleg, blendmsh, anton"><g transform="translate(0,451)"><path class="background" aria-hidden="true" d="M0,0h655v12h-655Z" pointer-events="none"/><g><g class="mark-group role-legend-entry"><g transform="translate(0,0)"><path class="background" aria-hidden="true" d="M0,0h0v0h0Z" pointer-events="none"/><g><g class="mark-group role-scope" role="graphics-object" aria-roledescription="group mark container"><g transform="translate(0,0)"><path class="background" aria-hidden="true" d="M0,0h169v12h-169Z" pointer-events="none" opacity="1"/><g><g class="mark-symbol role-legend-symbol" pointer-events="none"><path transform="translate(6,6)" d="M5,0A5,5,0,1,1,-5,0A5,5,0,1,1,5,0" fill="rgb(178, 224, 172)" stroke-width="1.5" opacity="1"/></g><g class="mark-text role-legend-label" pointer-events="none"><text text-anchor="start" transform="translate(16,10)" font-family="Arial, sans-serif" font-size="12px" fill="#bfc6cc" opacity="1">onshape-robotic…</text></g></g><path class="foreground" aria-hidden="true" d="" pointer-events="none" display="none"/></g><g transform="translate(179,0)"><path class="background" aria-hidden="true" d="M0,0h150v12h-150Z" pointer-events="none" opacity="1"/><g><g class="mark-symbol role-legend-symbol" pointer-events="none"><path transform="translate(6,6)" d="M5,0A5,5,0,1,1,-5,0A5,5,0,1,1,5,0" fill="rgb(140, 207, 138)" stroke-width="1.5" opacity="1"/></g><g class="mark-text role-legend-label" pointer-events="none"><text text-anchor="start" transform="translate(16,10)" font-family="Arial, sans-serif" font-size="12px" fill="#bfc6cc" opacity="1">neurobionicspi</text></g></g><path class="foreground" aria-hidden="true" d="" pointer-events="none" display="none"/></g><g transform="translate(339,0)"><path class="background" aria-hidden="true" d="M0,0h140v12h-140Z" pointer-events="none" opacity="1"/><g><g class="mark-symbol role-legend-symbol" pointer-events="none"><path transform="translate(6,6)" d="M5,0A5,5,0,1,1,-5,0A5,5,0,1,1,5,0" fill="rgb(96, 186, 108)" stroke-width="1.5" opacity="1"/></g><g class="mark-text role-legend-label" pointer-events="none"><text text-anchor="start" transform="translate(16,10)" font-family="Arial, sans-serif" font-size="12px" fill="#bfc6cc" opacity="1">opensourceleg</text></g></g><path class="foreground" aria-hidden="true" d="" pointer-events="none" display="none"/></g><g transform="translate(489,0)"><path class="background" aria-hidden="true" d="M0,0h92v12h-92Z" pointer-events="none" opacity="1"/><g><g class="mark-symbol role-legend-symbol" pointer-events="none"><path transform="translate(6,6)" d="M5,0A5,5,0,1,1,-5,0A5,5,0,1,1,5,0" fill="rgb(57, 160, 85)" stroke-width="1.5" opacity="1"/></g><g class="mark-text role-legend-label" pointer-events="none"><text text-anchor="start" transform="translate(16,10)" font-family="Arial, sans-serif" font-size="12px" fill="#bfc6cc" opacity="1">blendmsh</text></g></g><path class="foreground" aria-hidden="true" d="" pointer-events="none" display="none"/></g><g transform="translate(591,0)"><path class="background" aria-hidden="true" d="M0,0h64v12h-64Z" pointer-events="none" opacity="1"/><g><g class="mark-symbol role-legend-symbol" pointer-events="none"><path transform="translate(6,6)" d="M5,0A5,5,0,1,1,-5,0A5,5,0,1,1,5,0" fill="rgb(26, 131, 62)" stroke-width="1.5" opacity="1"/></g><g class="mark-text role-legend-label" pointer-events="none"><text text-anchor="start" transform="translate(16,10)" font-family="Arial, sans-serif" font-size="12px" fill="#bfc6cc" opacity="1">anton</text></g></g><path class="foreground" aria-hidden="true" d="" pointer-events="none" display="none"/></g></g></g><path class="foreground" aria-hidden="true" d="" pointer-events="none" display="none"/></g></g></g><path class="foreground" aria-hidden="true" d="" pointer-events="none" display="none"/></g></g></g><path class="foreground" aria-hidden="true" d="" display="none"/></g></g></g></svg>