<svg xmlns="http://www.w3.org/2000/svg" xmlns:xlink="http://www.w3.org/1999/xlink" version="1.1" class="marks" width="886" height="479" viewBox="0 0 886 479"><g fill="none" stroke-miterlimit="10" transform="translate(57,11)"><g class="mark-group role-frame root" role="graphics-object" aria-roledescription="group mark container"><g transform="translate(0,0)"><path class="background" aria-hidden="true" d="M0,0h800v400h-800Z"/><g><g class="mark-group role-axis" role="graphics-symbol" aria-roledescription="axis" aria-label="X-axis titled 'Date' for a discrete scale with 14 values: 01-22, 01-23, 01-24, 01-25, 01-26, ending with 02-04"><g transform="translate(0.5,400.5)"><path class="background" aria-hidden="true" d="M0,0h0v0h0Z" pointer-events="none"/><g><g class="mark-rule role-axis-tick" pointer-events="none"><line transform="translate(0,0)" x2="0" y2="5" stroke="#888" stroke-width="1" opacity="1"/><line transform="translate(62,0)" x2="0" y2="5" stroke="#888" stroke-width="1" opacity="1"/><line transform="translate(123,0)" x2="0" y2="5" stroke="#888" stroke-width="1" opacity="1"/><line transform="translate(185,0)" x2="0" y2="5" stroke="#888" stroke-width="1" opacity="1"/><line transform="translate(246,0)" x2="0" y2="5" stroke="#888" stroke-width="1" opacity="1"/><line transform="translate(308,0)" x2="0" y2="5" stroke="#888" stroke-width="1" opacity="1"/><line transform="translate(369,0)" x2="0" y2="5" stroke="#888" stroke-width="1" opacity="1"/><line transform="translate(431,0)" x2="0" y2="5" stroke="#888" stroke-width="1" opacity="1"/><line transform="translate(492,0)" x2="0" y2="5" stroke="#888" stroke-width="1" opacity="1"/><line transform="translate(554,0)" x2="0" y2="5" stroke="#888" stroke-width="1" opacity="1"/><line transform="translate(615,0)" x2="0" y2="5" stroke="#888" stroke-width="1" opacity="1"/><line transform="translate(677,0)" x2="0" y2="5" stroke="#888" stroke-width="1" opacity="1"/><line transform="translate(738,0)" x2="0" y2="5" stroke="#888" stroke-width="1" opacity="1"/><line transform="translate(800,0)" x2="0" y2="5" stroke="#888" stroke-width="1" opacity="1"/></g><g class="mark-text role-axis-label" pointer-events="none"><text text-anchor="middle" transform="translate(0,16)" font-family="Arial, sans-serif" font-size="12px" fill="#3c444c" opacity="1">01-22</text><text text-anchor="middle" transform="translate(61.53846153846154,16)" font-family="Arial, sans-serif" font-size="12px" fill="#3c444c" opacity="1">01-23</text><text text-anchor="middle" transform="translate(123.07692307692308,16)" font-family="Arial, sans-serif" font-size="12px" fill="#3c444c" opacity="1">01-24</text><text text-anchor="middle" transform="translate(184.6153846153846,16)" font-family="Arial, sans-serif" font-size="12px" fill="#3c444c" opacity="1">01-25</text><text text-anchor="middle" transform="translate(246.15384615384616,16)" font-family="Arial, sans-serif" font-size="12px" fill="#3c444c" opacity="1">01-26</text><text text-anchor="middle" transform="translate(307.6923076923077,16)" font-family="Arial, sans-serif" font-size="12px" fill="#3c444c" opacity="1">01-27</text><text text-anchor="middle" transform="translate(369.2307692307692,16)" font-family="Arial, sans-serif" font-size="12px" fill="#3c444c" opacity="1">01-28</text><text text-anchor="middle" transform="translate(430.7692307692308,16)" font-family="Arial, sans-serif" font-size="12px" fill="#3c444c" opacity="1">01-29</text><text text-anchor="middle" transform="translate(492.3076923076923,16)" font-family="Arial, sans-serif" font-size="12px" fill="#3c444c" opacity="1">01-30</text><text text-anchor="middle" transform="translate(553.8461538461538,16)" font-family="Arial, sans-serif" font-size="12px" fill="#3c444c" opacity="1">01-31</text><text text-anchor="middle" transform="translate(615.3846153846154,16)" font-family="Arial, sans-serif" font-size="12px" fill="#3c444c" opacity="1">02-01</text><text text-anchor="middle" transform="translate(676.9230769230769,16)" font-family="Arial, sans-serif" font-size="12px" fill="#3c444c" opacity="1">02-02</text><text text-anchor="middle" transform="translate(738.4615384615385,16)" font-family="Arial, sans-serif" font-size="12px" fill="#3c444c" opacity="1">02-03</text><text text-anchor="middle" transform="translate(800,16)" font-family="Arial, sans-serif" font-size="12px" fill="#3c444c" opacity="1">02-04</text></g><g class="mark-rule role-axis-domain" pointer-events="none"><line transform="translate(0,0)" x2="800" y2="0" stroke="#888" stroke-width="1" opacity="1"/></g><g class="mark-text role-axis-title" pointer-events="none"><text text-anchor="middle" transform="translate(400,31)" font-family="Arial, sans-serif" font-size="12px" font-weight="bold" fill="#3c444c" opacity="1">Date</text></g></g><path class="foreground" aria-hidden="true" d="" pointer-events="none" display="none"/></g></g><g class="mark-group role-axis" role="graphics-symbol" aria-roledescription="axis" aria-label="Y-axis titled 'Views' for a linear scale with values from 0 to 450"><g transform="translate(0.5,0.5)"><path class="background" aria-hidden="true" d="M0,0h0v0h0Z" pointer-events="none"/><g><g class="mark-rule role-axis-tick" pointer-events="none"><line transform="translate(0,400)" x2="-5" y2="0" stroke="#888" stroke-width="1" opacity="1"/><line transform="translate(0,356)" x2="-5" y2="0" stroke="#888" stroke-width="1" opacity="1"/><line transform="translate(0,311)" x2="-5" y2="0" stroke="#888" stroke-width="1" opacity="1"/><line transform="translate(0,267)" x2="-5" y2="0" stroke="#888" stroke-width="1" opacity="1"/><line transform="translate(0,222)" x2="-5" y2="0" stroke="#888" stroke-width="1" opacity="1"/><line transform="translate(0,178)" x2="-5" y2="0" stroke="#888" stroke-width="1" opacity="1"/><line transform="translate(0,133)" x2="-5" y2="0" stroke="#888" stroke-width="1" opacity="1"/><line transform="translate(0,89)" x2="-5" y2="0" stroke="#888" stroke-width="1" opacity="1"/><line transform="translate(0,44)" x2="-5" y2="0" stroke="#888" stroke-width="1" opacity="1"/><line transform="translate(0,0)" x2="-5" y2="0" stroke="#888" stroke-width="1" opacity="1"/></g><g class="mark-text role-axis-label" pointer-events="none"><text text-anchor="end" transform="translate(-7,404)" font-family="Arial, sans-serif" font-size="12px" fill="#3c444c" opacity="1">0</text><text text-anchor="end" transform="translate(-7,359.55555555555554)" font-family="Arial, sans-serif" font-size="12px" fill="#3c444c" opacity="1">50</text><text text-anchor="end" transform="translate(-7,315.11111111111114)" font-family="Arial, sans-serif" font-size="12px" fill="#3c444c" opacity="1">100</text><text text-anchor="end" transform="translate(-7,270.6666666666667)" font-family="Arial, sans-serif" font-size="12px" fill="#3c444c" opacity="1">150</text><text text-anchor="end" transform="translate(-7,226.22222222222223)" font-family="Arial, sans-serif" font-size="12px" fill="#3c444c" opacity="1">200</text><text text-anchor="end" transform="translate(-7,181.77777777777777)" font-family="Arial, sans-serif" font-size="12px" fill="#3c444c" opacity="1">250</text><text text-anchor="end" transform="translate(-7,137.33333333333334)" font-family="Arial, sans-serif" font-size="12px" fill="#3c444c" opacity="1">300</text><text text-anchor="end" transform="translate(-7,92.88888888888889)" font-family="Arial, sans-serif" font-size="12px" fill="#3c444c" opacity="1">350</text><text text-anchor="end" transform="translate(-7,48.444444444444464)" font-family="Arial, sans-serif" font-size="12px" fill="#3c444c" opacity="1">400</text><text text-anchor="end" transform="translate(-7,4)" font-family="Arial, sans-serif" font-size="12px" fill="#3c444c" opacity="1">450</text></g><g class="mark-rule role-axis-domain" pointer-events="none"><line transform="translate(0,400)" x2="0" y2="-400" stroke="#888" stroke-width="1" opacity="1"/></g><g class="mark-text role-axis-title" pointer-events="none"><text text-anchor="middle" transform="translate(-39,200) rotate(-90) translate(0,-3)" font-family="Arial, sans-serif" font-size="12px" font-weight="bold" fill="#3c444c" opacity="1">Views</text></g></g><path class="foreground" aria-hidden="true" d="" pointer-events="none" display="none"/></g></g><g class="mark-group role-scope" role="graphics-object" aria-roledescription="group mark container"><g transform="translate(0,0)"><path class="background" aria-hidden="true" d="M0,0h0v0h0Z"/><g><g class="mark-line role-mark" role="graphics-symbol" aria-roledescription="line mark container"><path d="M0,397.333C20.513,393.778,41.026,390.222,61.538,390.222C82.051,390.222,102.564,391.556,123.077,392.889C143.59,394.222,164.103,397.037,184.615,398.222C205.128,399.407,225.641,400,246.154,400C266.667,400,287.179,306.667,307.692,306.667C328.205,306.667,348.718,385.778,369.231,385.778C389.744,385.778,410.256,320.889,430.769,320.889C451.282,320.889,471.795,381.333,492.308,381.333C512.821,381.333,533.333,365.333,553.846,365.333C574.359,365.333,594.872,366.519,615.385,368.889C635.897,371.259,656.41,396.444,676.923,396.444C697.436,396.444,717.949,382.222,738.462,382.222C758.974,382.222,779.487,390.667,800,399.111" stroke="rgb(140, 207, 138)" stroke-width="2"/></g><g class="mark-text role-mark" role="graphics-object" aria-roledescription="text mark container"><text text-anchor="middle" transform="translate(0,387.3333333333333)" font-family="sans-serif" font-size="10px" fill="#888888">3</text><text text-anchor="middle" transform="translate(61.53846153846154,380.22222222222223)" font-family="sans-serif" font-size="10px" fill="#888888">11</text><text text-anchor="middle" transform="translate(123.07692307692308,382.8888888888889)" font-family="sans-serif" font-size="10px" fill="#888888">8</text><text text-anchor="middle" transform="translate(184.6153846153846,388.22222222222223)" font-family="sans-serif" font-size="10px" fill="#888888">2</text><text text-anchor="middle" transform="translate(246.15384615384616,390)" font-family="sans-serif" font-size="10px" fill="#888888">0</text><text text-anchor="middle" transform="translate(307.6923076923077,296.66666666666663)" font-family="sans-serif" font-size="10px" fill="#888888">105</text><text text-anchor="middle" transform="translate(369.2307692307692,375.77777777777777)" font-family="sans-serif" font-size="10px" fill="#888888">16</text><text text-anchor="middle" transform="translate(430.7692307692308,310.88888888888886)" font-family="sans-serif" font-size="10px" fill="#888888">89</text><text text-anchor="middle" transform="translate(492.3076923076923,371.33333333333337)" font-family="sans-serif" font-size="10px" fill="#888888">21</text><text text-anchor="middle" transform="translate(553.8461538461538,355.3333333333333)" font-family="sans-serif" font-size="10px" fill="#888888">39</text><text text-anchor="middle" transform="translate(615.3846153846154,358.8888888888889)" font-family="sans-serif" font-size="10px" fill="#888888">35</text><text text-anchor="middle" transform="translate(676.9230769230769,386.44444444444446)" font-family="sans-serif" font-size="10px" fill="#888888">4</text><text text-anchor="middle" transform="translate(738.4615384615385,372.22222222222223)" font-family="sans-serif" font-size="10px" fill="#888888">20</text><text text-anchor="middle" transform="translate(800,389.1111111111111)" font-family="sans-serif" font-size="10px" fill="#888888">1</text></g></g><path class="foreground" aria-hidden="true" d="" display="none"/></g><g transform="translate(0,0)"><path class="background" aria-hidden="true" d="M0,0h0v0h0Z"/><g><g class="mark-line role-mark" role="graphics-symbol" aria-roledescription="line mark container"><path d="M0,395.556C20.513,396,41.026,396.444,61.538,396.444C82.051,396.444,102.564,393.778,123.077,393.778C143.59,393.778,164.103,397.333,184.615,397.333C205.128,397.333,225.641,397.333,246.154,397.333C266.667,397.333,287.179,399.111,307.692,399.111C328.205,399.111,348.718,398.815,369.231,398.222C389.744,397.63,410.256,393.778,430.769,393.778C451.282,393.778,471.795,395.852,492.308,396.444C512.821,397.037,533.333,397.037,553.846,397.333C574.359,397.63,594.872,398.222,615.385,398.222C635.897,398.222,656.41,396.444,676.923,396.444C697.436,396.444,717.949,397.333,738.462,397.333C758.974,397.333,779.487,397.333,800,397.333" stroke="rgb(26, 131, 62)" stroke-width="2"/></g><g class="mark-text role-mark" role="graphics-object" aria-roledescription="text mark container"><text text-anchor="middle" transform="translate(0,385.55555555555554)" font-family="sans-serif" font-size="10px" fill="#888888">5</text><text text-anchor="middle" transform="translate(61.53846153846154,386.44444444444446)" font-family="sans-serif" font-size="10px" fill="#888888">4</text><text text-anchor="middle" transform="translate(123.07692307692308,383.77777777777777)" font-family="sans-serif" font-size="10px" fill="#888888">7</text><text text-anchor="middle" transform="translate(184.6153846153846,387.3333333333333)" font-family="sans-serif" font-size="10px" fill="#888888">3</text><text text-anchor="middle" transform="translate(246.15384615384616,387.3333333333333)" font-family="sans-serif" font-size="10px" fill="#888888">3</text><text text-anchor="middle" transform="translate(307.6923076923077,389.1111111111111)" font-family="sans-serif" font-size="10px" fill="#888888">1</text><text text-anchor="middle" transform="translate(369.2307692307692,388.22222222222223)" font-family="sans-serif" font-size="10px" fill="#888888">2</text><text text-anchor="middle" transform="translate(430.7692307692308,383.77777777777777)" font-family="sans-serif" font-size="10px" fill="#888888">7</text><text text-anchor="middle" transform="translate(492.3076923076923,386.44444444444446)" font-family="sans-serif" font-size="10px" fill="#888888">4</text><text text-anchor="middle" transform="translate(553.8461538461538,387.3333333333333)" font-family="sans-serif" font-size="10px" fill="#888888">3</text><text text-anchor="middle" transform="translate(615.3846153846154,388.22222222222223)" font-family="sans-serif" font-size="10px" fill="#888888">2</text><text text-anchor="middle" transform="translate(676.9230769230769,386.44444444444446)" font-family="sans-serif" font-size="10px" fill="#888888">4</text><text text-anchor="middle" transform="translate(738.4615384615385,387.3333333333333)" font-family="sans-serif" font-size="10px" fill="#888888">3</text><text text-anchor="middle" transform="translate(800,387.3333333333333)" font-family="sans-serif" font-size="10px" fill="#888888">3</text></g></g><path class="foreground" aria-hidden="true" d="" display="none"/></g><g transform="translate(0,0)"><path class="background" aria-hidden="true" d="M0,0h0v0h0Z"/><g><g class="mark-line role-mark" role="graphics-symbol" aria-roledescription="line mark container"><path d="M0,376C20.513,358.667,41.026,341.333,61.538,341.333C82.051,341.333,102.564,350.074,123.077,357.333C143.59,364.593,164.103,381.926,184.615,384.889C205.128,387.852,225.641,389.333,246.154,389.333C266.667,389.333,287.179,271.852,307.692,214.222C328.205,156.593,348.718,43.556,369.231,43.556C389.744,43.556,410.256,201.481,430.769,216.889C451.282,232.296,471.795,240,492.308,240C512.821,240,533.333,197.333,553.846,197.333C574.359,197.333,594.872,310.222,615.385,310.222C635.897,310.222,656.41,267.259,676.923,247.111C697.436,226.963,717.949,189.333,738.462,189.333C758.974,189.333,779.487,287.556,800,385.778" stroke="rgb(178, 224, 172)" stroke-width="2"/></g><g class="mark-text role-mark" role="graphics-object" aria-roledescription="text mark container"><text text-anchor="middle" transform="translate(0,366)" font-family="sans-serif" font-size="10px" fill="#888888">27</text><text text-anchor="middle" transform="translate(61.53846153846154,331.3333333333333)" font-family="sans-serif" font-size="10px" fill="#888888">66</text><text text-anchor="middle" transform="translate(123.07692307692308,347.3333333333333)" font-family="sans-serif" font-size="10px" fill="#888888">48</text><text text-anchor="middle" transform="translate(184.6153846153846,374.88888888888886)" font-family="sans-serif" font-size="10px" fill="#888888">17</text><text text-anchor="middle" transform="translate(246.15384615384616,379.33333333333337)" font-family="sans-serif" font-size="10px" fill="#888888">12</text><text text-anchor="middle" transform="translate(307.6923076923077,204.22222222222223)" font-family="sans-serif" font-size="10px" fill="#888888">209</text><text text-anchor="middle" transform="translate(369.2307692307692,33.55555555555557)" font-family="sans-serif" font-size="10px" fill="#888888">401</text><text text-anchor="middle" transform="translate(430.7692307692308,206.88888888888886)" font-family="sans-serif" font-size="10px" fill="#888888">206</text><text text-anchor="middle" transform="translate(492.3076923076923,230)" font-family="sans-serif" font-size="10px" fill="#888888">180</text><text text-anchor="middle" transform="translate(553.8461538461538,187.33333333333331)" font-family="sans-serif" font-size="10px" fill="#888888">228</text><text text-anchor="middle" transform="translate(615.3846153846154,300.22222222222223)" font-family="sans-serif" font-size="10px" fill="#888888">101</text><text text-anchor="middle" transform="translate(676.9230769230769,237.11111111111111)" font-family="sans-serif" font-size="10px" fill="#888888">172</text><text text-anchor="middle" transform="translate(738.4615384615385,179.33333333333334)" font-family="sans-serif" font-size="10px" fill="#888888">237</text><text text-anchor="middle" transform="translate(800,375.77777777777777)" font-family="sans-serif" font-size="10px" fill="#888888">16</text></g></g><path class="foreground" aria-hidden="true" d="" display="none"/></g><g transform="translate(0,0)"><path class="background" aria-hidden="true" d="M0,0h0v0h0Z"/><g><g class="mark-line role-mark" role="graphics-symbol" aria-roledescription="line mark container"><path d="M0,392C20.513,391.704,41.026,391.407,61.538,390.222C82.051,389.037,102.564,344,123.077,344C143.59,344,164.103,400,184.615,400C205.128,400,225.641,400,246.154,400C266.667,400,287.179,351.111,307.692,351.111C328.205,351.111,348.718,361.778,369.231,368.889C389.744,376,410.256,393.778,430.769,393.778C451.282,393.778,471.795,392.889,492.308,391.111C512.821,389.333,533.333,357.333,553.846,357.333C574.359,357.333,594.872,400,615.385,400C635.897,400,656.41,398.222,676.923,394.667C697.436,391.111,717.949,337.778,738.462,337.778C758.974,337.778,779.487,368.889,800,400" stroke="rgb(96, 186, 108)" stroke-width="2"/></g><g class="mark-text role-mark" role="graphics-object" aria-roledescription="text mark container"><text text-anchor="middle" transform="translate(0,382)" font-family="sans-serif" font-size="10px" fill="#888888">9</text><text text-anchor="middle" transform="translate(61.53846153846154,380.22222222222223)" font-family="sans-serif" font-size="10px" fill="#888888">11</text><text text-anchor="middle" transform="translate(123.07692307692308,334)" font-family="sans-serif" font-size="10px" fill="#888888">63</text><text text-anchor="middle" transform="translate(184.6153846153846,390)" font-family="sans-serif" font-size="10px" fill="#888888">0</text><text text-anchor="middle" transform="translate(246.15384615384616,390)" font-family="sans-serif" font-size="10px" fill="#888888">0</text><text text-anchor="middle" transform="translate(307.6923076923077,341.1111111111111)" font-family="sans-serif" font-size="10px" fill="#888888">55</text><text text-anchor="middle" transform="translate(369.2307692307692,358.8888888888889)" font-family="sans-serif" font-size="10px" fill="#888888">35</text><text text-anchor="middle" transform="translate(430.7692307692308,383.77777777777777)" font-family="sans-serif" font-size="10px" fill="#888888">7</text><text text-anchor="middle" transform="translate(492.3076923076923,381.1111111111111)" font-family="sans-serif" font-size="10px" fill="#888888">10</text><text text-anchor="middle" transform="translate(553.8461538461538,347.3333333333333)" font-family="sans-serif" font-size="10px" fill="#888888">48</text><text text-anchor="middle" transform="translate(615.3846153846154,390)" font-family="sans-serif" font-size="10px" fill="#888888">0</text><text text-anchor="middle" transform="translate(676.9230769230769,384.6666666666667)" font-family="sans-serif" font-size="10px" fill="#888888">6</text><text text-anchor="middle" transform="translate(738.4615384615385,327.77777777777777)" font-family="sans-serif" font-size="10px" fill="#888888">70</text><text text-anchor="middle" transform="translate(800,390)" font-family="sans-serif" font-size="10px" fill="#888888">0</text></g></g><path class="foreground" aria-hidden="true" d="" display="none"/></g><g transform="translate(0,0)"><path class="background" aria-hidden="true" d="M0,0h0v0h0Z"/><g><g class="mark-line role-mark" role="graphics-symbol" aria-roledescription="line mark container"><path d="M0,397.333C20.513,397.333,41.026,397.333,61.538,397.333C82.051,397.333,102.564,395.556,123.077,395.556C143.59,395.556,164.103,396.593,184.615,397.333C205.128,398.074,225.641,400,246.154,400C266.667,400,287.179,394.667,307.692,394.667C328.205,394.667,348.718,400,369.231,400C389.744,400,410.256,397.63,430.769,396.444C451.282,395.259,471.795,395.259,492.308,392.889C512.821,390.519,533.333,376,553.846,376C574.359,376,594.872,400,615.385,400C635.897,400,656.41,399.704,676.923,399.111C697.436,398.519,717.949,379.556,738.462,379.556C758.974,379.556,779.487,389.333,800,399.111" stroke="rgb(57, 160, 85)" stroke-width="2"/></g><g class="mark-text role-mark" role="graphics-object" aria-roledescription="text mark container"><text text-anchor="middle" transform="translate(0,387.3333333333333)" font-family="sans-serif" font-size="10px" fill="#888888">3</text><text text-anchor="middle" transform="translate(61.53846153846154,387.3333333333333)" font-family="sans-serif" font-size="10px" fill="#888888">3</text><text text-anchor="middle" transform="translate(123.07692307692308,385.55555555555554)" font-family="sans-serif" font-size="10px" fill="#888888">5</text><text text-anchor="middle" transform="translate(184.6153846153846,387.3333333333333)" font-family="sans-serif" font-size="10px" fill="#888888">3</text><text text-anchor="middle" transform="translate(246.15384615384616,390)" font-family="sans-serif" font-size="10px" fill="#888888">0</text><text text-anchor="middle" transform="translate(307.6923076923077,384.6666666666667)" font-family="sans-serif" font-size="10px" fill="#888888">6</text><text text-anchor="middle" transform="translate(369.2307692307692,390)" font-family="sans-serif" font-size="10px" fill="#888888">0</text><text text-anchor="middle" transform="translate(430.7692307692308,386.44444444444446)" font-family="sans-serif" font-size="10px" fill="#888888">4</text><text text-anchor="middle" transform="translate(492.3076923076923,382.8888888888889)" font-family="sans-serif" font-size="10px" fill="#888888">8</text><text text-anchor="middle" transform="translate(553.8461538461538,366)" font-family="sans-serif" font-size="10px" fill="#888888">27</text><text text-anchor="middle" transform="translate(615.3846153846154,390)" font-family="sans-serif" font-size="10px" fill="#888888">0</text><text text-anchor="middle" transform="translate(676.9230769230769,389.1111111111111)" font-family="sans-serif" font-size="10px" fill="#888888">1</text><text text-anchor="middle" transform="translate(738.4615384615385,369.55555555555554)" font-family="sans-serif" font-size="10px" fill="#888888">23</text><text text-anchor="middle" transform="translate(800,389.1111111111111)" font-family="sans-serif" font-size="10px" fill="#888888">1</text></g></g><path class="foreground" aria-hidden="true" d="" display="none"/></g></g><g class="mark-group role-legend" role="graphics-symbol" aria-roledescription="legend" aria-label="Symbol legend for fill color with 5 values: onshape-robotics-toolkit, neurobionicspi, opensourceleg, blendmsh, anton"><g transform="translate(0,451)"><path class="background" aria-hidden="true" d="M0,0h655v12h-655Z" pointer-events="none"/><g><g class="mark-group role-legend-entry"><g transform="translate(0,0)"><path class="background" aria-hidden="true" d="M0,0h0v0h0Z" pointer-events="none"/><g><g class="mark-group role-scope" role="graphics-object" aria-roledescription="group mark container"><g transform="translate(0,0)"><path class="background" aria-hidden="true" d="M0,0h169v12h-169Z" pointer-events="none" opacity="1"/><g><g class="mark-symbol role-legend-symbol" pointer-events="none"><path transform="translate(6,6)" d="M5,0A5,5,0,1,1,-5,0A5,5,0,1,1,5,0" fill="rgb(178, 224, 172)" stroke-width="1.5" opacity="1"/></g><g class="mark-text role-legend-label" pointer-events="none"><text text-anchor="start" transform="translate(16,10)" font-family="Arial, sans-serif" font-size="12px" fill="#bfc6cc" opacity="1">onshape-robotic…</text></g></g><path class="foreground" aria-hidden="true" d="" pointer-events="none" display="none"/></g><g transform="translate(179,0)"><path class="background" aria-hidden="true" d="M0,0h150v12h-150Z" pointer-events="none" opacity="1"/><g><g class="mark-symbol role-legend-symbol" pointer-events="none"><path transform="translate(6,6)" d="M5,0A5,5,0,1,1,-5,0A5,5,0,1,1,5,0" fill="rgb(140, 207, 138)" stroke-width="1.5" opacity="1"/></g><g class="mark-text role-legend-label" pointer-events="none"><text text-anchor="start" transform="translate(16,10)" font-family="Arial, sans-serif" font-size="12px" fill="#bfc6cc" opacity="1">neurobionicspi</text></g></g><path class="foreground" aria-hidden="true" d="" pointer-events="none" display="none"/></g><g transform="translate(339,0)"><path class="background" aria-hidden="true" d="M0,0h140v12h-140Z" pointer-events="none" opacity="1"/><g><g class="mark-symbol role-legend-symbol" pointer-events="none"><path transform="translate(6,6)" d="M5,0A5,5,0,1,1,-5,0A5,5,0,1,1,5,0" fill="rgb(96, 186, 108)" stroke-width="1.5" opacity="1"/></g><g class="mark-text role-legend-label" pointer-events="none"><text text-anchor="start" transform="translate(16,10)" font-family="Arial, sans-serif" font-size="12px" fill="#bfc6cc" opacity="1">opensourceleg</text></g></g><path class="foreground" aria-hidden="true" d="" pointer-events="none" display="none"/></g><g transform="translate(489,0)"><path class="background" aria-hidden="true" d="M0,0h92v12h-92Z" pointer-events="none" opacity="1"/><g><g class="mark-symbol role-legend-symbol" pointer-events="none"><path transform="translate(6,6)" d="M5,0A5,5,0,1,1,-5,0A5,5,0,1,1,5,0" fill="rgb(57, 160, 85)" stroke-width="1.5" opacity="1"/></g><g class="mark-text role-legend-label" pointer-events="none"><text text-anchor="start" transform="translate(16,10)" font-family="Arial, sans-serif" font-size="12px" fill="#bfc6cc" opacity="1">blendmsh</text></g></g><path class="foreground" aria-hidden="true" d="" pointer-events="none" display="none"/></g><g transform="translate(591,0)"><path class="background" aria-hidden="true" d="M0,0h64v12h-64Z" pointer-events="none" opacity="1"/><g><g class="mark-symbol role-legend-symbol" pointer-events="none"><path transform="translate(6,6)" d="M5,0A5,5,0,1,1,-5,0A5,5,0,1,1,5,0" fill="rgb(26, 131, 62)" stroke-width="1.5" opacity="1"/></g><g class="mark-text role-legend-label" pointer-events="none"><text text-anchor="start" transform="translate(16,10)" font-family="Arial, sans-serif" font-size="12px" fill="#bfc6cc" opacity="1">anton</text></g></g><path class="foreground" aria-hidden="true" d="" pointer-events="none" display="none"/></g></g></g><path class="foreground" aria-hidden="true" d="" pointer-events="none" display="none"/></g></g></g><path class="foreground" aria-hidden="true" d="" pointer-events="none" display="none"/></g></g></g><path class="foreground" aria-hidden="true" d="" display="none"/></g></g></g></svg>