<svg width="800" height="500"><g transform="translate(40, 20)"></g><rect class="bar" x="20" width="80" y="0" height="430" fill="#2563eb" rx="6" ry="6"></rect><rect class="bar" x="120" width="80" y="141.38119911176906" height="288.6188008882309" fill="#2563eb" rx="6" ry="6"></rect><rect class="bar" x="220" width="80" y="236.8341968911917" height="193.1658031088083" fill="#2563eb" rx="6" ry="6"></rect><rect class="bar" x="320" width="80" y="391.9015544041451" height="38.09844559585491" fill="#2563eb" rx="6" ry="6"></rect><rect class="bar" x="420" width="80" y="425.7986676535899" height="4.201332346410084" fill="#2563eb" rx="6" ry="6"></rect><rect class="bar" x="520" width="80" y="426.18060695780906" height="3.8193930421909386" fill="#2563eb" rx="6" ry="6"></rect><rect class="bar" x="620" width="80" y="430" height="0" fill="#2563eb" rx="6" ry="6"></rect><g transform="translate(0,430)" fill="none" font-size="10" font-family="sans-serif" text-anchor="middle"><path class="domain" stroke="currentColor" d="M0.5,6V0.5H720.5V6"></path><g class="tick" opacity="1" transform="translate(60,0)"><line stroke="currentColor" y2="6"></line><text fill="currentColor" y="9" dy="0.71em" transform="rotate(-45)" style="text-anchor: end;">neurobionicspi</text></g><g class="tick" opacity="1" transform="translate(160,0)"><line stroke="currentColor" y2="6"></line><text fill="currentColor" y="9" dy="0.71em" transform="rotate(-45)" style="text-anchor: end;">senthurayyappan</text></g><g class="tick" opacity="1" transform="translate(260,0)"><line stroke="currentColor" y2="6"></line><text fill="currentColor" y="9" dy="0.71em" transform="rotate(-45)" style="text-anchor: end;">senthurayyappan.github.io</text></g><g class="tick" opacity="1" transform="translate(360,0)"><line stroke="currentColor" y2="6"></line><text fill="currentColor" y="9" dy="0.71em" transform="rotate(-45)" style="text-anchor: end;">robot-nm</text></g><g class="tick" opacity="1" transform="translate(460,0)"><line stroke="currentColor" y2="6"></line><text fill="currentColor" y="9" dy="0.71em" transform="rotate(-45)" style="text-anchor: end;">pi</text></g><g class="tick" opacity="1" transform="translate(560,0)"><line stroke="currentColor" y2="6"></line><text fill="currentColor" y="9" dy="0.71em" transform="rotate(-45)" style="text-anchor: end;">onshape-robotics-toolkit</text></g><g class="tick" opacity="1" transform="translate(660,0)"><line stroke="currentColor" y2="6"></line><text fill="currentColor" y="9" dy="0.71em" transform="rotate(-45)" style="text-anchor: end;">ballbot-mujoco</text></g></g><g fill="none" font-size="10" font-family="sans-serif" text-anchor="end"><path class="domain" stroke="currentColor" d="M-6,430.5H0.5V0.5H-6"></path><g class="tick" opacity="1" transform="translate(0,430.5)"><line stroke="currentColor" x2="-6"></line><text fill="currentColor" x="-9" dy="0.32em">0</text></g><g class="tick" opacity="1" transform="translate(0,315.91820873427093)"><line stroke="currentColor" x2="-6"></line><text fill="currentColor" x="-9" dy="0.32em">1</text></g><g class="tick" opacity="1" transform="translate(0,201.3364174685418)"><line stroke="currentColor" x2="-6"></line><text fill="currentColor" x="-9" dy="0.32em">2</text></g><g class="tick" opacity="1" transform="translate(0,86.75462620281273)"><line stroke="currentColor" x2="-6"></line><text fill="currentColor" x="-9" dy="0.32em">3</text></g></g></svg>